<svg width="565" height="547" viewBox="0 0 565 547" fill="none" xmlns="http://www.w3.org/2000/svg">
<mask id="mask0" mask-type="alpha" maskUnits="userSpaceOnUse" x="0" y="0" width="565" height="547">
<rect width="565" height="547" fill="black"/>
</mask>
<g mask="url(#mask0)">
<path d="M595.194 375.103L506.767 459.625L595.194 544.147L683.482 459.625L595.194 375.103ZM507.414 459.625L595.194 375.633L682.974 459.625L595.194 543.617L507.414 459.625Z" fill="#FFA200"/>
<path d="M595.194 375.103L506.767 459.625L595.194 544.147L683.482 459.625L595.194 375.103ZM507.414 459.625L595.194 375.633L682.974 459.625L595.194 543.617L507.414 459.625Z" fill="url(#paint0_linear)"/>
<path d="M551.164 332.974L506.765 375.368L550.933 417.629L595.1 375.368L551.164 332.974ZM507.366 375.368L551.164 333.461L594.962 375.368L551.164 417.275L507.366 375.368Z" fill="#FFA200"/>
<path d="M551.164 332.974L506.765 375.368L550.933 417.629L595.1 375.368L551.164 332.974ZM507.366 375.368L551.164 333.461L594.962 375.368L551.164 417.275L507.366 375.368Z" fill="url(#paint1_linear)"/>
<path d="M463.106 375.235L441.023 396.365L463.106 417.496L485.19 396.365L463.106 375.235ZM441.438 396.454L463.106 375.721L484.774 396.454L463.106 417.186L441.438 396.454Z" fill="#FFA200"/>
<path d="M463.106 375.235L441.023 396.365L463.106 417.496L485.19 396.365L463.106 375.235ZM441.438 396.454L463.106 375.721L484.774 396.454L463.106 417.186L441.438 396.454Z" fill="url(#paint2_linear)"/>
<path d="M463.107 417.231L450.125 429.653L463.107 442.075L476.09 429.653L463.107 417.231ZM450.495 429.785L463.107 417.717L475.72 429.785L463.107 441.853L450.495 429.785Z" fill="#FFA200"/>
<path d="M463.107 417.231L450.125 429.653L463.107 442.075L476.09 429.653L463.107 417.231ZM450.495 429.785L463.107 417.717L475.72 429.785L463.107 441.853L450.495 429.785Z" fill="url(#paint3_linear)"/>
<path d="M398.982 378.771L386 391.193L398.982 403.615L412.057 391.326L398.982 378.771ZM386.37 391.326L398.982 379.258L411.595 391.326L398.982 403.394L386.37 391.326Z" fill="#FFA200"/>
<path d="M398.982 378.771L386 391.193L398.982 403.615L412.057 391.326L398.982 378.771ZM386.37 391.326L398.982 379.258L411.595 391.326L398.982 403.394L386.37 391.326Z" fill="url(#paint4_linear)"/>
<path d="M639.223 332.974L595.055 375.235L639.223 417.496L683.39 375.235L639.223 332.974ZM595.425 375.368L639.223 333.461L683.02 375.368L639.223 417.275L595.425 375.368Z" fill="#FFA200"/>
<path d="M639.223 332.974L595.055 375.235L639.223 417.496L683.39 375.235L639.223 332.974ZM595.425 375.368L639.223 333.461L683.02 375.368L639.223 417.275L595.425 375.368Z" fill="url(#paint5_linear)"/>
<path d="M595.194 221L514.39 298.317L595.194 375.589L675.998 298.317L595.194 221ZM514.898 298.317L595.194 221.486L675.489 298.317L595.194 375.103L514.898 298.317Z" fill="#FFA200"/>
<path d="M595.194 221L514.39 298.317L595.194 375.589L675.998 298.317L595.194 221ZM514.898 298.317L595.194 221.486L675.489 298.317L595.194 375.103L514.898 298.317Z" fill="url(#paint6_linear)"/>
<path d="M498.682 478.103L484.313 491.851L498.682 505.599L513.05 491.851L498.682 478.103ZM484.821 491.983L498.682 478.721L512.542 491.983L498.682 505.245L484.821 491.983Z" fill="#FFA200"/>
<path d="M498.682 478.103L484.313 491.851L498.682 505.599L513.05 491.851L498.682 478.103ZM484.821 491.983L498.682 478.721L512.542 491.983L498.682 505.245L484.821 491.983Z" fill="url(#paint7_linear)"/>
<path d="M590.434 434.162L576.066 447.998L590.434 461.746L604.803 447.998L590.434 434.162ZM576.574 448.042L590.434 434.781L604.294 448.042L590.434 461.304L576.574 448.042Z" fill="#FFA200"/>
<path d="M590.434 434.162L576.066 447.998L590.434 461.746L604.803 447.998L590.434 434.162ZM576.574 448.042L590.434 434.781L604.294 448.042L590.434 461.304L576.574 448.042Z" fill="url(#paint8_linear)"/>
<path d="M507.135 375.103L462.968 417.364L506.767 459.625L551.303 417.364L507.135 375.103ZM463.338 417.452L507.135 375.545L550.933 417.452L507.135 459.36L463.338 417.452Z" fill="#FFA200"/>
<path d="M507.135 375.103L462.968 417.364L506.767 459.625L551.303 417.364L507.135 375.103ZM463.338 417.452L507.135 375.545L550.933 417.452L507.135 459.36L463.338 417.452Z" fill="url(#paint9_linear)"/>
<path d="M683.25 459.403L639.083 501.664L683.25 544.147L727.556 501.753L683.25 459.403ZM639.452 501.753L683.25 459.845L727.048 501.753L683.25 543.66L639.452 501.753Z" fill="#FFA200"/>
<path d="M683.25 459.403L639.083 501.664L683.25 544.147L727.556 501.753L683.25 459.403ZM639.452 501.753L683.25 459.845L727.048 501.753L683.25 543.66L639.452 501.753Z" fill="url(#paint10_linear)"/>
<path d="M740.632 431.907L755 445.655L740.632 459.403L726.264 445.655L740.632 431.907ZM754.492 445.788L740.632 432.526L726.772 445.788L740.632 459.05L754.492 445.788Z" fill="#FFA200"/>
<path d="M740.632 431.907L755 445.655L740.632 459.403L726.264 445.655L740.632 431.907ZM754.492 445.788L740.632 432.526L726.772 445.788L740.632 459.05L754.492 445.788Z" fill="url(#paint11_linear)"/>
<path d="M-70.194 456.044L18.233 371.522L-70.194 287L-158.482 371.522L-70.194 456.044ZM17.5862 371.522L-70.194 455.514L-157.974 371.522L-70.194 287.53L17.5862 371.522Z" fill="#FFA200"/>
<path d="M-70.194 456.044L18.233 371.522L-70.194 287L-158.482 371.522L-70.194 456.044ZM17.5862 371.522L-70.194 455.514L-157.974 371.522L-70.194 287.53L17.5862 371.522Z" fill="url(#paint12_linear)"/>
<path d="M-26.1638 498.173L18.2345 455.779L-25.9328 413.518L-70.1001 455.779L-26.1638 498.173ZM17.6339 455.779L-26.1638 497.687L-69.9615 455.779L-26.1638 413.872L17.6339 455.779Z" fill="#FFA200"/>
<path d="M-26.1638 498.173L18.2345 455.779L-25.9328 413.518L-70.1001 455.779L-26.1638 498.173ZM17.6339 455.779L-26.1638 497.687L-69.9615 455.779L-26.1638 413.872L17.6339 455.779Z" fill="url(#paint13_linear)"/>
<path d="M61.8937 455.912L83.9774 434.782L61.8937 413.651L39.81 434.782L61.8937 455.912ZM83.5615 434.694L61.8937 455.426L40.2258 434.694L61.8937 413.961L83.5615 434.694Z" fill="#FFA200"/>
<path d="M61.8937 455.912L83.9774 434.782L61.8937 413.651L39.81 434.782L61.8937 455.912ZM83.5615 434.694L61.8937 455.426L40.2258 434.694L61.8937 413.961L83.5615 434.694Z" fill="url(#paint14_linear)"/>
<path d="M61.8926 413.917L74.8748 401.495L61.8926 389.073L48.9104 401.495L61.8926 413.917ZM74.5052 401.362L61.8926 413.43L49.28 401.362L61.8926 389.294L74.5052 401.362Z" fill="#FFA200"/>
<path d="M61.8926 413.917L74.8748 401.495L61.8926 389.073L48.9104 401.495L61.8926 413.917ZM74.5052 401.362L61.8926 413.43L49.28 401.362L61.8926 389.294L74.5052 401.362Z" fill="url(#paint15_linear)"/>
<path d="M126.018 452.376L139 439.954L126.018 427.532L112.943 439.821L126.018 452.376ZM138.63 439.821L126.018 451.889L113.405 439.821L126.018 427.753L138.63 439.821Z" fill="#FFA200"/>
<path d="M126.018 452.376L139 439.954L126.018 427.532L112.943 439.821L126.018 452.376ZM138.63 439.821L126.018 451.889L113.405 439.821L126.018 427.753L138.63 439.821Z" fill="url(#paint16_linear)"/>
<path d="M-114.223 498.173L-70.0554 455.912L-114.223 413.651L-158.39 455.912L-114.223 498.173ZM-70.425 455.779L-114.223 497.687L-158.02 455.779L-114.223 413.872L-70.425 455.779Z" fill="#FFA200"/>
<path d="M-114.223 498.173L-70.0554 455.912L-114.223 413.651L-158.39 455.912L-114.223 498.173ZM-70.425 455.779L-114.223 497.687L-158.02 455.779L-114.223 413.872L-70.425 455.779Z" fill="url(#paint17_linear)"/>
<path d="M-70.1936 610.147L10.6104 532.831L-70.1936 455.558L-150.998 532.831L-70.1936 610.147ZM10.1022 532.831L-70.1936 609.661L-150.489 532.831L-70.194 456.044L10.1022 532.831Z" fill="#FFA200"/>
<path d="M-70.1936 610.147L10.6104 532.831L-70.1936 455.558L-150.998 532.831L-70.1936 610.147ZM10.1022 532.831L-70.1936 609.661L-150.489 532.831L-70.194 456.044L10.1022 532.831Z" fill="url(#paint18_linear)"/>
<path d="M26.3185 353.045L40.6868 339.297L26.3185 325.549L11.9502 339.297L26.3185 353.045ZM40.1786 339.164L26.3185 352.426L12.4585 339.164L26.3185 325.902L40.1786 339.164Z" fill="#FFA200"/>
<path d="M26.3185 353.045L40.6868 339.297L26.3185 325.549L11.9502 339.297L26.3185 353.045ZM40.1786 339.164L26.3185 352.426L12.4585 339.164L26.3185 325.902L40.1786 339.164Z" fill="url(#paint19_linear)"/>
<path d="M-65.4343 396.985L-51.0661 383.149L-65.4343 369.401L-79.8025 383.149L-65.4343 396.985ZM-51.5743 383.105L-65.4343 396.367L-79.2943 383.105L-65.4343 369.843L-51.5743 383.105Z" fill="#FFA200"/>
<path d="M-65.4343 396.985L-51.0661 383.149L-65.4343 369.401L-79.8025 383.149L-65.4343 396.985ZM-51.5743 383.105L-65.4343 396.367L-79.2943 383.105L-65.4343 369.843L-51.5743 383.105Z" fill="url(#paint20_linear)"/>
<path d="M17.8646 456.044L62.032 413.783L18.233 371.522L-26.3027 413.783L17.8646 456.044ZM61.6624 413.695L17.8646 455.602L-25.9331 413.695L17.8646 371.787L61.6624 413.695Z" fill="#FFA200"/>
<path d="M17.8646 456.044L62.032 413.783L18.233 371.522L-26.3027 413.783L17.8646 456.044ZM61.6624 413.695L17.8646 455.602L-25.9331 413.695L17.8646 371.787L61.6624 413.695Z" fill="url(#paint21_linear)"/>
<path d="M-158.25 371.744L-114.083 329.483L-158.25 287.001L-202.556 329.394L-158.25 371.744ZM-114.452 329.394L-158.25 371.302L-202.048 329.394L-158.25 287.487L-114.452 329.394Z" fill="#FFA200"/>
<path d="M-158.25 371.744L-114.083 329.483L-158.25 287.001L-202.556 329.394L-158.25 371.744ZM-114.452 329.394L-158.25 371.302L-202.048 329.394L-158.25 287.487L-114.452 329.394Z" fill="url(#paint22_linear)"/>
<path d="M-215.632 399.24L-230 385.492L-215.632 371.744L-201.264 385.492L-215.632 399.24ZM-229.492 385.359L-215.632 398.621L-201.772 385.359L-215.632 372.098L-229.492 385.359Z" fill="#FFA200"/>
<path d="M-215.632 399.24L-230 385.492L-215.632 371.744L-201.264 385.492L-215.632 399.24ZM-229.492 385.359L-215.632 398.621L-201.772 385.359L-215.632 372.098L-229.492 385.359Z" fill="url(#paint23_linear)"/>
</g>
<defs>
<linearGradient id="paint0_linear" x1="400.9" y1="284.762" x2="638.022" y2="543.209" gradientUnits="userSpaceOnUse">
<stop stop-color="white"/>
<stop offset="1" stop-color="white" stop-opacity="0"/>
</linearGradient>
<linearGradient id="paint1_linear" x1="400.9" y1="284.762" x2="638.022" y2="543.209" gradientUnits="userSpaceOnUse">
<stop stop-color="white"/>
<stop offset="1" stop-color="white" stop-opacity="0"/>
</linearGradient>
<linearGradient id="paint2_linear" x1="400.9" y1="284.762" x2="638.022" y2="543.209" gradientUnits="userSpaceOnUse">
<stop stop-color="white"/>
<stop offset="1" stop-color="white" stop-opacity="0"/>
</linearGradient>
<linearGradient id="paint3_linear" x1="400.9" y1="284.762" x2="638.022" y2="543.209" gradientUnits="userSpaceOnUse">
<stop stop-color="white"/>
<stop offset="1" stop-color="white" stop-opacity="0"/>
</linearGradient>
<linearGradient id="paint4_linear" x1="400.9" y1="284.762" x2="638.022" y2="543.209" gradientUnits="userSpaceOnUse">
<stop stop-color="white"/>
<stop offset="1" stop-color="white" stop-opacity="0"/>
</linearGradient>
<linearGradient id="paint5_linear" x1="400.9" y1="284.762" x2="638.022" y2="543.209" gradientUnits="userSpaceOnUse">
<stop stop-color="white"/>
<stop offset="1" stop-color="white" stop-opacity="0"/>
</linearGradient>
<linearGradient id="paint6_linear" x1="400.9" y1="284.762" x2="638.022" y2="543.209" gradientUnits="userSpaceOnUse">
<stop stop-color="white"/>
<stop offset="1" stop-color="white" stop-opacity="0"/>
</linearGradient>
<linearGradient id="paint7_linear" x1="400.9" y1="284.762" x2="638.022" y2="543.209" gradientUnits="userSpaceOnUse">
<stop stop-color="white"/>
<stop offset="1" stop-color="white" stop-opacity="0"/>
</linearGradient>
<linearGradient id="paint8_linear" x1="400.9" y1="284.762" x2="638.022" y2="543.209" gradientUnits="userSpaceOnUse">
<stop stop-color="white"/>
<stop offset="1" stop-color="white" stop-opacity="0"/>
</linearGradient>
<linearGradient id="paint9_linear" x1="400.9" y1="284.762" x2="638.022" y2="543.209" gradientUnits="userSpaceOnUse">
<stop stop-color="white"/>
<stop offset="1" stop-color="white" stop-opacity="0"/>
</linearGradient>
<linearGradient id="paint10_linear" x1="400.9" y1="284.762" x2="638.022" y2="543.209" gradientUnits="userSpaceOnUse">
<stop stop-color="white"/>
<stop offset="1" stop-color="white" stop-opacity="0"/>
</linearGradient>
<linearGradient id="paint11_linear" x1="400.9" y1="284.762" x2="638.022" y2="543.209" gradientUnits="userSpaceOnUse">
<stop stop-color="white"/>
<stop offset="1" stop-color="white" stop-opacity="0"/>
</linearGradient>
<linearGradient id="paint12_linear" x1="124.1" y1="546.385" x2="-113.022" y2="287.939" gradientUnits="userSpaceOnUse">
<stop stop-color="white"/>
<stop offset="1" stop-color="white" stop-opacity="0"/>
</linearGradient>
<linearGradient id="paint13_linear" x1="124.1" y1="546.385" x2="-113.022" y2="287.939" gradientUnits="userSpaceOnUse">
<stop stop-color="white"/>
<stop offset="1" stop-color="white" stop-opacity="0"/>
</linearGradient>
<linearGradient id="paint14_linear" x1="124.1" y1="546.385" x2="-113.022" y2="287.939" gradientUnits="userSpaceOnUse">
<stop stop-color="white"/>
<stop offset="1" stop-color="white" stop-opacity="0"/>
</linearGradient>
<linearGradient id="paint15_linear" x1="124.1" y1="546.385" x2="-113.022" y2="287.939" gradientUnits="userSpaceOnUse">
<stop stop-color="white"/>
<stop offset="1" stop-color="white" stop-opacity="0"/>
</linearGradient>
<linearGradient id="paint16_linear" x1="124.1" y1="546.385" x2="-113.022" y2="287.939" gradientUnits="userSpaceOnUse">
<stop stop-color="white"/>
<stop offset="1" stop-color="white" stop-opacity="0"/>
</linearGradient>
<linearGradient id="paint17_linear" x1="124.1" y1="546.385" x2="-113.022" y2="287.939" gradientUnits="userSpaceOnUse">
<stop stop-color="white"/>
<stop offset="1" stop-color="white" stop-opacity="0"/>
</linearGradient>
<linearGradient id="paint18_linear" x1="124.1" y1="546.385" x2="-113.022" y2="287.939" gradientUnits="userSpaceOnUse">
<stop stop-color="white"/>
<stop offset="1" stop-color="white" stop-opacity="0"/>
</linearGradient>
<linearGradient id="paint19_linear" x1="124.1" y1="546.385" x2="-113.022" y2="287.939" gradientUnits="userSpaceOnUse">
<stop stop-color="white"/>
<stop offset="1" stop-color="white" stop-opacity="0"/>
</linearGradient>
<linearGradient id="paint20_linear" x1="124.1" y1="546.385" x2="-113.022" y2="287.939" gradientUnits="userSpaceOnUse">
<stop stop-color="white"/>
<stop offset="1" stop-color="white" stop-opacity="0"/>
</linearGradient>
<linearGradient id="paint21_linear" x1="124.1" y1="546.385" x2="-113.022" y2="287.939" gradientUnits="userSpaceOnUse">
<stop stop-color="white"/>
<stop offset="1" stop-color="white" stop-opacity="0"/>
</linearGradient>
<linearGradient id="paint22_linear" x1="124.1" y1="546.385" x2="-113.022" y2="287.939" gradientUnits="userSpaceOnUse">
<stop stop-color="white"/>
<stop offset="1" stop-color="white" stop-opacity="0"/>
</linearGradient>
<linearGradient id="paint23_linear" x1="124.1" y1="546.385" x2="-113.022" y2="287.939" gradientUnits="userSpaceOnUse">
<stop stop-color="white"/>
<stop offset="1" stop-color="white" stop-opacity="0"/>
</linearGradient>
</defs>
</svg>
