<svg width="393" height="393" viewBox="0 0 393 393" fill="none" xmlns="http://www.w3.org/2000/svg">
<path d="M170.2 165.78L264.378 256.706L170.2 347.633L76.1691 256.706L170.2 165.78ZM263.689 256.706L170.2 166.35L76.7103 256.706L170.2 347.062L263.689 256.706Z" fill="#FFA200"/>
<path d="M170.2 165.78L264.378 256.706L170.2 347.633L76.1691 256.706L170.2 165.78ZM263.689 256.706L170.2 166.35L76.7103 256.706L170.2 347.062L263.689 256.706Z" fill="url(#paint0_linear)"/>
<path d="M217.094 120.459L264.38 166.065L217.34 211.528L170.3 166.065L217.094 120.459ZM263.74 166.065L217.094 120.982L170.447 166.065L217.094 211.147L263.74 166.065Z" fill="#FFA200"/>
<path d="M217.094 120.459L264.38 166.065L217.34 211.528L170.3 166.065L217.094 120.459ZM263.74 166.065L217.094 120.982L170.447 166.065L217.094 211.147L263.74 166.065Z" fill="url(#paint1_linear)"/>
<path d="M240.466 97.9174L263.986 120.649L240.466 143.381L216.946 120.649L240.466 97.9174ZM263.543 120.744L240.466 98.4405L217.389 120.744L240.466 143.048L263.543 120.744Z" fill="#FFA200"/>
<path d="M240.466 97.9174L263.986 120.649L240.466 143.381L216.946 120.649L240.466 97.9174ZM263.543 120.744L240.466 98.4405L217.389 120.744L240.466 143.048L263.543 120.744Z" fill="url(#paint2_linear)"/>
<path d="M263.838 120.459L287.358 143.19L263.838 166.16L240.22 143.333L263.838 120.459ZM286.915 143.286L263.838 120.982L240.712 143.333L263.789 165.637L286.915 143.286Z" fill="#FFA200"/>
<path d="M263.838 120.459L287.358 143.19L263.838 166.16L240.22 143.333L263.838 120.459ZM286.915 143.286L263.838 120.982L240.712 143.333L263.789 165.637L286.915 143.286Z" fill="url(#paint3_linear)"/>
<path d="M76.5626 211.29L100.083 234.021L76.5626 256.753L52.7966 234.116L76.5626 211.29ZM99.6398 234.116L76.5626 211.813L53.4855 234.116L76.5626 256.42L99.6398 234.116Z" fill="#FFA200"/>
<path d="M76.5626 211.29L100.083 234.021L76.5626 256.753L52.7966 234.116L76.5626 211.29ZM99.6398 234.116L76.5626 211.813L53.4855 234.116L76.5626 256.42L99.6398 234.116Z" fill="url(#paint4_linear)"/>
<path d="M99.9362 188.51L123.456 211.242L99.9362 233.973L76.4162 211.242L99.9362 188.51ZM123.013 211.337L99.9362 189.033L76.859 211.337L99.9362 233.641L123.013 211.337Z" fill="#FFA200"/>
<path d="M99.9362 188.51L123.456 211.242L99.9362 233.973L76.4162 211.242L99.9362 188.51ZM123.013 211.337L99.9362 189.033L76.859 211.337L99.9362 233.641L123.013 211.337Z" fill="url(#paint5_linear)"/>
<path d="M310.879 165.921L334.399 188.653L310.879 211.385L287.359 188.653L310.879 165.921ZM333.956 188.748L310.879 166.445L287.801 188.748L310.879 211.052L333.956 188.748Z" fill="#FFA200"/>
<path d="M310.879 165.921L334.399 188.653L310.879 211.385L287.359 188.653L310.879 165.921ZM333.956 188.748L310.879 166.445L287.801 188.748L310.879 211.052L333.956 188.748Z" fill="url(#paint6_linear)"/>
<path d="M310.877 211.099L324.704 224.463L310.877 237.826L297.051 224.463L310.877 211.099ZM324.31 224.605L310.877 211.622L297.445 224.605L310.877 237.588L324.31 224.605Z" fill="#FFA200"/>
<path d="M310.877 211.099L324.704 224.463L310.877 237.826L297.051 224.463L310.877 211.099ZM324.31 224.605L310.877 211.622L297.445 224.605L310.877 237.588L324.31 224.605Z" fill="url(#paint7_linear)"/>
<path d="M379.173 169.726L393 183.089L379.173 196.452L365.248 183.232L379.173 169.726ZM392.606 183.232L379.173 170.249L365.74 183.232L379.173 196.215L392.606 183.232Z" fill="#FFA200"/>
<path d="M379.173 169.726L393 183.089L379.173 196.452L365.248 183.232L379.173 169.726ZM392.606 183.232L379.173 170.249L365.74 183.232L379.173 196.215L392.606 183.232Z" fill="url(#paint8_linear)"/>
<path d="M123.308 120.459L170.348 165.922L123.308 211.385L76.2675 165.922L123.308 120.459ZM169.954 166.065L123.308 120.982L76.6612 166.065L123.308 211.147L169.954 166.065Z" fill="#FFA200"/>
<path d="M123.308 120.459L170.348 165.922L123.308 211.385L76.2675 165.922L123.308 120.459ZM169.954 166.065L123.308 120.982L76.6612 166.065L123.308 211.147L169.954 166.065Z" fill="url(#paint9_linear)"/>
<path d="M76.4167 75.1382L123.457 120.601L76.4167 166.302L29.2292 120.744L76.4167 75.1382ZM123.063 120.697L76.4167 75.6613L29.7704 120.744L76.4167 165.827L123.063 120.697Z" fill="#FFA200"/>
<path d="M76.4167 75.1382L123.457 120.601L76.4167 166.302L29.2292 120.744L76.4167 75.1382ZM123.063 120.697L76.4167 75.6613L29.7704 120.744L76.4167 165.827L123.063 120.697Z" fill="url(#paint10_linear)"/>
<path d="M53.0434 143.191L100.083 188.654L53.0434 234.117L5.905 188.797L53.0434 143.191ZM99.6898 188.797L53.0434 143.714L6.44623 188.797L53.0926 233.879L99.6898 188.797Z" fill="#FFA200"/>
<path d="M53.0434 143.191L100.083 188.654L53.0434 234.117L5.905 188.797L53.0434 143.191ZM99.6898 188.797L53.0434 143.714L6.44623 188.797L53.0926 233.879L99.6898 188.797Z" fill="url(#paint11_linear)"/>
<path d="M170.2 0L256.26 83.1749L170.2 166.302L84.1407 83.1749L170.2 0ZM255.719 83.1749L170.2 0.523113L84.682 83.1749L170.2 165.78L255.719 83.1749Z" fill="#FFA200"/>
<path d="M170.2 0L256.26 83.1749L170.2 166.302L84.1407 83.1749L170.2 0ZM255.719 83.1749L170.2 0.523113L84.682 83.1749L170.2 165.78L255.719 83.1749Z" fill="url(#paint12_linear)"/>
<path d="M272.99 276.584L288.292 291.373L272.99 306.163L257.687 291.373L272.99 276.584ZM287.751 291.516L272.99 277.249L258.228 291.516L272.99 305.783L287.751 291.516Z" fill="#FFA200"/>
<path d="M272.99 276.584L288.292 291.373L272.99 306.163L257.687 291.373L272.99 276.584ZM287.751 291.516L272.99 277.249L258.228 291.516L272.99 305.783L287.751 291.516Z" fill="url(#paint13_linear)"/>
<path d="M175.269 229.313L190.572 244.198L175.269 258.988L159.966 244.198L175.269 229.313ZM190.031 244.246L175.269 229.979L160.508 244.246L175.269 258.513L190.031 244.246Z" fill="#FFA200"/>
<path d="M175.269 229.313L190.572 244.198L175.269 258.988L159.966 244.198L175.269 229.313ZM190.031 244.246L175.269 229.979L160.508 244.246L175.269 258.513L190.031 244.246Z" fill="url(#paint14_linear)"/>
<path d="M263.986 165.78L311.026 211.243L264.378 256.706L216.946 211.243L263.986 165.78ZM310.632 211.338L263.986 166.255L217.34 211.338L263.986 256.421L310.632 211.338Z" fill="#FFA200"/>
<path d="M263.986 165.78L311.026 211.243L264.378 256.706L216.946 211.243L263.986 165.78ZM310.632 211.338L263.986 166.255L217.34 211.338L263.986 256.421L310.632 211.338Z" fill="url(#paint15_linear)"/>
<path d="M76.4167 256.468L123.457 301.931L76.4167 347.632L29.2292 302.026L76.4167 256.468ZM123.063 302.026L76.4167 256.943L29.7704 302.026L76.4167 347.109L123.063 302.026Z" fill="#FFA200"/>
<path d="M76.4167 256.468L123.457 301.931L76.4167 347.632L29.2292 302.026L76.4167 256.468ZM123.063 302.026L76.4167 256.943L29.7704 302.026L76.4167 347.109L123.063 302.026Z" fill="url(#paint16_linear)"/>
<path d="M123.307 301.788L170.2 347.633L123.307 393L76.1691 347.347L123.307 301.788ZM169.954 347.394L123.307 302.311L76.6611 347.347L123.307 392.429L169.954 347.394Z" fill="#FFA200"/>
<path d="M123.307 301.788L170.2 347.633L123.307 393L76.1691 347.347L123.307 301.788ZM169.954 347.394L123.307 302.311L76.6611 347.347L123.307 392.429L169.954 347.394Z" fill="url(#paint17_linear)"/>
<path d="M15.3027 226.888L0 241.678L15.3027 256.468L30.6055 241.678L15.3027 226.888ZM0.541199 241.82L15.3027 227.554L30.0642 241.82L15.3027 256.087L0.541199 241.82Z" fill="#FFA200"/>
<path d="M15.3027 226.888L0 241.678L15.3027 256.468L30.6055 241.678L15.3027 226.888ZM0.541199 241.82L15.3027 227.554L30.0642 241.82L15.3027 256.087L0.541199 241.82Z" fill="url(#paint18_linear)"/>
<defs>
<linearGradient id="paint0_linear" x1="377.131" y1="68.5934" x2="121.835" y2="344.073" gradientUnits="userSpaceOnUse">
<stop stop-color="white"/>
<stop offset="1" stop-color="white" stop-opacity="0"/>
</linearGradient>
<linearGradient id="paint1_linear" x1="377.131" y1="68.5934" x2="121.835" y2="344.073" gradientUnits="userSpaceOnUse">
<stop stop-color="white"/>
<stop offset="1" stop-color="white" stop-opacity="0"/>
</linearGradient>
<linearGradient id="paint2_linear" x1="377.131" y1="68.5934" x2="121.835" y2="344.073" gradientUnits="userSpaceOnUse">
<stop stop-color="white"/>
<stop offset="1" stop-color="white" stop-opacity="0"/>
</linearGradient>
<linearGradient id="paint3_linear" x1="377.131" y1="68.5934" x2="121.835" y2="344.073" gradientUnits="userSpaceOnUse">
<stop stop-color="white"/>
<stop offset="1" stop-color="white" stop-opacity="0"/>
</linearGradient>
<linearGradient id="paint4_linear" x1="377.131" y1="68.5934" x2="121.835" y2="344.073" gradientUnits="userSpaceOnUse">
<stop stop-color="white"/>
<stop offset="1" stop-color="white" stop-opacity="0"/>
</linearGradient>
<linearGradient id="paint5_linear" x1="377.131" y1="68.5934" x2="121.835" y2="344.073" gradientUnits="userSpaceOnUse">
<stop stop-color="white"/>
<stop offset="1" stop-color="white" stop-opacity="0"/>
</linearGradient>
<linearGradient id="paint6_linear" x1="377.131" y1="68.5934" x2="121.835" y2="344.073" gradientUnits="userSpaceOnUse">
<stop stop-color="white"/>
<stop offset="1" stop-color="white" stop-opacity="0"/>
</linearGradient>
<linearGradient id="paint7_linear" x1="377.131" y1="68.5934" x2="121.835" y2="344.073" gradientUnits="userSpaceOnUse">
<stop stop-color="white"/>
<stop offset="1" stop-color="white" stop-opacity="0"/>
</linearGradient>
<linearGradient id="paint8_linear" x1="377.131" y1="68.5934" x2="121.835" y2="344.073" gradientUnits="userSpaceOnUse">
<stop stop-color="white"/>
<stop offset="1" stop-color="white" stop-opacity="0"/>
</linearGradient>
<linearGradient id="paint9_linear" x1="377.131" y1="68.5934" x2="121.835" y2="344.073" gradientUnits="userSpaceOnUse">
<stop stop-color="white"/>
<stop offset="1" stop-color="white" stop-opacity="0"/>
</linearGradient>
<linearGradient id="paint10_linear" x1="377.131" y1="68.5934" x2="121.835" y2="344.073" gradientUnits="userSpaceOnUse">
<stop stop-color="white"/>
<stop offset="1" stop-color="white" stop-opacity="0"/>
</linearGradient>
<linearGradient id="paint11_linear" x1="377.131" y1="68.5934" x2="121.835" y2="344.073" gradientUnits="userSpaceOnUse">
<stop stop-color="white"/>
<stop offset="1" stop-color="white" stop-opacity="0"/>
</linearGradient>
<linearGradient id="paint12_linear" x1="377.131" y1="68.5934" x2="121.835" y2="344.073" gradientUnits="userSpaceOnUse">
<stop stop-color="white"/>
<stop offset="1" stop-color="white" stop-opacity="0"/>
</linearGradient>
<linearGradient id="paint13_linear" x1="377.131" y1="68.5934" x2="121.835" y2="344.073" gradientUnits="userSpaceOnUse">
<stop stop-color="white"/>
<stop offset="1" stop-color="white" stop-opacity="0"/>
</linearGradient>
<linearGradient id="paint14_linear" x1="377.131" y1="68.5934" x2="121.835" y2="344.073" gradientUnits="userSpaceOnUse">
<stop stop-color="white"/>
<stop offset="1" stop-color="white" stop-opacity="0"/>
</linearGradient>
<linearGradient id="paint15_linear" x1="377.131" y1="68.5934" x2="121.835" y2="344.073" gradientUnits="userSpaceOnUse">
<stop stop-color="white"/>
<stop offset="1" stop-color="white" stop-opacity="0"/>
</linearGradient>
<linearGradient id="paint16_linear" x1="377.131" y1="68.5934" x2="121.835" y2="344.073" gradientUnits="userSpaceOnUse">
<stop stop-color="white"/>
<stop offset="1" stop-color="white" stop-opacity="0"/>
</linearGradient>
<linearGradient id="paint17_linear" x1="377.131" y1="68.5934" x2="121.835" y2="344.073" gradientUnits="userSpaceOnUse">
<stop stop-color="white"/>
<stop offset="1" stop-color="white" stop-opacity="0"/>
</linearGradient>
<linearGradient id="paint18_linear" x1="377.131" y1="68.5934" x2="121.835" y2="344.073" gradientUnits="userSpaceOnUse">
<stop stop-color="white"/>
<stop offset="1" stop-color="white" stop-opacity="0"/>
</linearGradient>
</defs>
</svg>
