<svg width="39" height="38" viewBox="0 0 39 38" fill="none" xmlns="http://www.w3.org/2000/svg">
<g clip-path="url(#clip0)">
<path d="M13.8377 18.6075C16.9697 18.6075 19.524 16.7344 19.524 14.4397C19.524 12.1447 16.9773 10.2716 13.8377 10.2716C10.698 10.2716 8.15137 12.1447 8.15137 14.4397C8.15137 16.7344 10.7056 18.6075 13.8377 18.6075ZM13.8377 11.7521C16.1181 11.7521 18.0035 12.9812 18.0035 14.4394C18.0035 15.898 16.0953 17.1268 13.8377 17.1268C11.5797 17.1268 9.67156 15.898 9.67156 14.4394C9.67156 12.9812 11.5797 11.7447 13.8377 11.7447V11.7521Z" fill="#A62868"/>
<path d="M37.9435 22.139H26.723V14.4321C26.723 9.36841 20.938 5.24498 13.7999 5.24498C6.66145 5.24498 0.876465 9.36841 0.876465 14.4321V23.5381C0.876465 28.202 5.77975 32.0517 12.0969 32.6365H12.2263C12.7506 32.6811 13.2828 32.7181 13.8227 32.7181H37.9435C38.3632 32.7181 38.7037 32.3865 38.7037 31.9777V22.8791C38.7037 22.4706 38.3632 22.139 37.9435 22.139ZM13.8378 6.73282C20.1092 6.73282 25.2408 10.1901 25.2408 14.4397C25.2408 18.6891 20.1399 22.1464 13.8378 22.1464C7.53582 22.1464 2.43489 18.6891 2.43489 14.4395C2.43489 10.1901 7.57378 6.73282 13.8378 6.73282ZM25.2408 18.7557V22.139H20.8315C22.5526 21.3794 24.0541 20.2171 25.2026 18.7557H25.2408ZM37.1833 31.2374H35.6628V27.4912C35.6628 27.0828 35.3223 26.7509 34.9029 26.7509C34.4832 26.7509 34.1426 27.0825 34.1426 27.4912V31.2448H31.1017V29.2088C31.1017 28.8001 30.7612 28.4684 30.3415 28.4684C29.9218 28.4684 29.5812 28.8001 29.5812 29.2088V31.2448H26.5406V29.2088C26.5406 28.8001 26.2 28.4684 25.7803 28.4684C25.3606 28.4684 25.0201 28.8001 25.0201 29.2088V31.2448H21.9792V27.4912C21.9792 27.0828 21.6386 26.7509 21.2189 26.7509C20.7995 26.7509 20.4587 27.0825 20.4587 27.4912V31.2448H17.5474V29.2088C17.5474 28.8001 17.2066 28.4684 16.7871 28.4684C16.3674 28.4684 16.0269 28.8001 16.0269 29.2088V31.2448H13.8373C13.5485 31.2448 13.2674 31.2448 12.986 31.2448V29.2088C12.986 28.8001 12.6454 28.4684 12.2257 28.4684C11.806 28.4684 11.4655 28.8001 11.4655 29.2088V31.0671C6.33474 30.3267 2.47285 27.2322 2.47285 23.5307V18.7557C4.64699 21.6503 8.92696 23.6194 13.8758 23.6194H37.1833V31.2374Z" fill="#A62868"/>
</g>
<defs>
<clipPath id="clip0">
<rect width="37.8" height="36.8116" fill="white" transform="translate(0.945801 0.536499)"/>
</clipPath>
</defs>
</svg>
