<svg width="35" height="34" viewBox="0 0 35 34" fill="none" xmlns="http://www.w3.org/2000/svg">
<g clip-path="url(#clip0)">
<path d="M28.941 22.8074L29.6126 19.9419L31.4945 17.6438C31.5886 17.529 31.6238 17.3787 31.5902 17.2354L30.9184 14.3699L31.5901 11.5043C31.6237 11.3609 31.5885 11.2106 31.4943 11.0958L29.6125 8.79781L28.9409 5.9322C28.9073 5.78888 28.8086 5.66839 28.6726 5.60465L25.9533 4.32927L24.0713 2.03129C23.9773 1.91637 23.8346 1.84949 23.6838 1.84949H20.6656L17.9463 0.574111C17.8103 0.510371 17.652 0.510371 17.516 0.574111L14.7967 1.84943H11.7785C11.6276 1.84943 11.4849 1.91631 11.3908 2.03122L9.50899 4.3292L6.78978 5.60458C6.65381 5.66832 6.5551 5.78881 6.52152 5.93213L5.84988 8.79775L3.96804 11.0957C3.87395 11.2106 3.83872 11.3609 3.8723 11.5042L4.54394 14.3698L3.8723 17.2354C3.83872 17.3787 3.87395 17.529 3.96804 17.6438L5.84988 19.9419L6.52152 22.8074C6.5551 22.9508 6.65381 23.0712 6.78978 23.135L9.22809 24.2785L5.87438 29.1924C5.64609 29.5268 5.93173 29.9828 6.34084 29.9396L10.0364 29.549L11.0974 33.0184C11.2148 33.4022 11.7572 33.4823 11.9855 33.1479L15.9025 27.4087L17.5162 28.1654C17.651 28.2286 17.8116 28.2286 17.9464 28.1654L19.5601 27.4087L23.4771 33.1479C23.7052 33.4824 24.2478 33.4022 24.3652 33.0184L25.4262 29.549L29.1217 29.9396C29.5308 29.983 29.8164 29.5268 29.5882 29.1924L26.2344 24.2785L28.6727 23.1349C28.8087 23.0712 28.9074 22.9508 28.941 22.8074ZM11.7455 31.7549L10.8687 28.8878C10.8004 28.6644 10.5785 28.5198 10.34 28.5457L7.28607 28.8685L9.95609 24.9564L11.3908 26.7085C11.4849 26.8234 11.6276 26.8903 11.7785 26.8903H14.7967L15.0004 26.9858L11.7455 31.7549ZM28.1762 28.8683L25.1223 28.5456C24.884 28.52 24.6619 28.6644 24.5936 28.8878L23.7168 31.7549L20.4619 26.9857L20.6656 26.8901H23.6838C23.8346 26.8901 23.9773 26.8233 24.0713 26.7083L25.5061 24.9563L28.1762 28.8683ZM28.0274 22.3659L25.4212 23.5882C25.354 23.6196 25.2952 23.6655 25.2488 23.7222L23.4452 25.9246H20.5526C20.4781 25.9246 20.4045 25.941 20.3374 25.9725L17.7313 27.1947L15.1251 25.9725C15.058 25.941 14.9845 25.9246 14.91 25.9246H12.0174L10.2139 23.7222C10.1675 23.6655 10.1085 23.6196 10.0414 23.5882L7.43528 22.3659L6.79162 19.6197C6.77503 19.5489 6.7423 19.4828 6.69588 19.4261L4.8924 17.2236L5.53606 14.4772C5.55258 14.4065 5.55258 14.3331 5.53606 14.2623L4.8924 11.516L6.69588 9.31357C6.74237 9.25688 6.77503 9.19071 6.79162 9.11998L7.43528 6.37363L10.0414 5.15135C10.1085 5.11993 10.1675 5.07408 10.2139 5.01739L12.0174 2.81496H14.91C14.9845 2.81496 15.058 2.7986 15.1251 2.76712L17.7313 1.5449L20.3374 2.76712C20.4045 2.7986 20.478 2.81496 20.5526 2.81496H23.4452L25.2488 5.01739C25.2952 5.07408 25.3541 5.11993 25.4212 5.15135L28.0274 6.37363L28.671 9.11998C28.6875 9.19071 28.7203 9.25682 28.7668 9.31357L30.5702 11.516L29.9266 14.2623C29.91 14.333 29.91 14.4065 29.9266 14.4772L30.5702 17.2236L28.7667 19.4261C28.7203 19.4828 28.6875 19.5489 28.671 19.6197L28.0274 22.3659Z" fill="#3CB54B" stroke="#3CB54B" stroke-width="0.5"/>
<path d="M23.5794 9.90793C23.4639 9.77755 23.2617 9.76298 23.1277 9.8755C22.9939 9.98803 22.9789 10.1849 23.0945 10.3153C24.1127 11.4647 24.6734 12.9349 24.6734 14.455C24.6734 17.9513 21.7527 20.7957 18.1625 20.7957C14.5723 20.7957 11.6516 17.9513 11.6516 14.455C11.6516 10.9587 14.5723 8.11432 18.1625 8.11432C19.437 8.11432 20.6711 8.47277 21.7315 9.1509C21.8793 9.24549 22.0778 9.20544 22.1749 9.06148C22.272 8.91748 22.2309 8.7242 22.0831 8.62965C20.918 7.88455 19.5623 7.49065 18.1626 7.49065C14.2193 7.49065 11.0112 10.6149 11.0112 14.455C11.0112 18.2951 14.2193 21.4193 18.1626 21.4193C22.1058 21.4193 25.3139 18.2951 25.3139 14.455C25.3139 12.7854 24.6979 11.1706 23.5794 9.90793Z" fill="#3CB54B" stroke="#3CB54B" stroke-width="0.5"/>
</g>
<defs>
<clipPath id="clip0">
<rect width="33.7135" height="32.8319" fill="white" transform="translate(0.794922 0.526306)"/>
</clipPath>
</defs>
</svg>
