<svg width="35" height="34" viewBox="0 0 35 34" fill="none" xmlns="http://www.w3.org/2000/svg">
<g clip-path="url(#clip0)">
<path d="M34.2411 25.458C33.9581 24.5535 33.4491 23.7316 32.7597 23.066C31.6617 21.9907 30.1675 21.388 28.6104 21.3922C27.8146 21.3926 27.027 21.5498 26.2952 21.8543L20.5234 16.2334L28.1871 8.82635L30.002 8.77638C30.2216 8.7699 30.4224 8.65436 30.5343 8.47036L33.1316 4.21721C33.2826 3.97176 33.2429 3.65777 33.0354 3.45527L30.7908 1.26936C30.5829 1.06732 30.2605 1.02868 30.0084 1.17568L25.6411 3.70508C25.4521 3.81407 25.3335 4.00963 25.3268 4.22346L25.2755 5.98467L17.6311 13.4167L12.3851 8.30798C12.9359 5.19782 10.7934 2.2417 7.59978 1.70529C6.12003 1.45672 4.59867 1.77009 3.34899 2.5809C3.05559 2.77412 2.97855 3.16235 3.17695 3.44808C3.23275 3.52842 3.30698 3.59501 3.39388 3.64263L6.30545 5.22273C6.94676 5.57872 7.07502 6.64044 6.55556 7.53979C6.0361 8.43913 5.04206 8.90129 4.39433 8.55155L1.6944 7.12759C1.38408 6.9613 0.99408 7.07153 0.82341 7.37373C0.76457 7.4778 0.737474 7.59607 0.74533 7.71466C0.948226 10.8645 3.73482 13.2578 6.96929 13.0602C7.63754 13.0194 8.29368 12.8675 8.90926 12.6111L13.6806 17.2577L11.6156 19.2687L11.1475 18.8191C10.6292 18.3361 9.81232 18.3361 9.29405 18.8191L8.65274 19.4436C8.16414 19.9069 8.13319 20.6614 8.58219 21.1611L0.995443 28.537C0.483674 29.0139 0.465797 29.8046 0.955521 30.303C0.968508 30.3163 0.981815 30.3293 0.995443 30.3419L3.16309 32.4529C3.65281 32.9512 4.46479 32.9687 4.97656 32.4917C4.99019 32.4791 5.0035 32.4661 5.01649 32.4529L12.6097 25.0645C13.1228 25.5018 13.8976 25.4716 14.3733 24.9958L15.0146 24.3713C15.5264 23.8943 15.5442 23.1036 15.0545 22.6052C15.0415 22.5919 15.0282 22.579 15.0146 22.5663L14.5464 22.1104L16.5986 20.0681L22.8194 26.1262C22.282 29.2386 24.4371 32.1859 27.6331 32.7093C29.5261 33.0193 31.4551 32.4081 32.7982 31.0726C33.0338 30.815 33.0103 30.4203 32.7458 30.1908C32.6775 30.1316 32.5969 30.0872 32.5096 30.0609L28.899 29.1178C28.5452 29.007 28.2651 28.7412 28.1423 28.3996C27.9547 27.9286 27.9322 27.4104 28.0782 26.9256C28.3475 25.9451 29.2005 25.2456 29.9187 25.433L33.4909 26.3698C33.5483 26.3779 33.6066 26.3779 33.664 26.3698C34.0182 26.374 34.3088 26.0978 34.313 25.7529C34.3142 25.6503 34.2896 25.549 34.2411 25.458ZM26.3465 6.67792C26.462 6.56472 26.5285 6.41272 26.5325 6.25322L26.5838 4.58569L30.2201 2.48098L31.7592 3.97988L29.6429 7.5148L27.8985 7.57726C27.7347 7.58116 27.5787 7.64596 27.4624 7.75838L19.6384 15.3716L18.5353 14.2974L26.3465 6.67792ZM4.10574 31.566L1.90603 29.4363L9.53126 22.0292L10.6343 23.1034L11.6861 24.1652L4.10574 31.566ZM13.4882 24.0715L12.6416 23.2408L12.3146 22.9223L9.62104 20.2805L10.2624 19.6559L14.1102 23.4532L13.4882 24.0715ZM13.61 21.2236L12.507 20.1493L14.572 18.1383L15.6751 19.2125L13.61 21.2236ZM30.2329 24.2276C30.0426 24.1778 29.8463 24.1526 29.6493 24.1527C28.2512 24.2626 27.0971 25.2615 26.8211 26.6009C26.6023 27.353 26.6451 28.1545 26.943 28.8805C27.2178 29.5791 27.814 30.1111 28.5527 30.3169L30.9383 30.9415C28.7628 32.2039 25.9484 31.5099 24.652 29.3913C24.0432 28.3964 23.8552 27.21 24.1276 26.0825C24.1764 25.8728 24.111 25.6534 23.9544 25.5017L9.49919 11.412C9.29397 11.2242 8.98702 11.1888 8.74244 11.3245C8.08021 11.6648 7.34277 11.8428 6.59404 11.8429C4.66456 11.8445 2.94111 10.6681 2.2844 8.90129L3.7466 9.69446C4.08746 9.88034 4.47185 9.97715 4.86249 9.97551C6.04988 9.90892 7.1119 9.23371 7.65221 8.2018C8.5244 6.68416 8.1845 4.87923 6.90187 4.17974L5.03565 3.14924C7.42053 2.31961 10.0444 3.5299 10.8963 5.85234C11.1919 6.65848 11.2435 7.53034 11.0448 8.36418C10.9959 8.57388 11.0614 8.79332 11.2179 8.94501L25.7052 23.0472C25.9032 23.2403 26.207 23.2859 26.4556 23.1596C27.1179 22.8196 27.8552 22.6417 28.604 22.6413C30.2279 22.64 31.7311 23.4765 32.5545 24.8397L30.2329 24.2276Z" fill="#FFA200"/>
</g>
<defs>
<clipPath id="clip0">
<rect width="33.7135" height="32.8319" fill="white" transform="translate(0.599609 0.546692)"/>
</clipPath>
</defs>
</svg>
