<svg width="1300" height="744" viewBox="0 0 1300 744" fill="none" xmlns="http://www.w3.org/2000/svg">
<mask id="mask0" mask-type="alpha" maskUnits="userSpaceOnUse" x="0" y="0" width="1300" height="744">
<rect width="1300" height="744" fill="#FBF5F3"/>
</mask>
<g mask="url(#mask0)">
<path d="M39.1998 214.78L133.378 305.706L39.1998 396.633L-54.8309 305.706L39.1998 214.78ZM132.689 305.706L39.1998 215.35L-54.2897 305.706L39.1998 396.062L132.689 305.706Z" fill="#FFA200"/>
<path d="M39.1998 214.78L133.378 305.706L39.1998 396.633L-54.8309 305.706L39.1998 214.78ZM132.689 305.706L39.1998 215.35L-54.2897 305.706L39.1998 396.062L132.689 305.706Z" fill="url(#paint0_linear)"/>
<path d="M86.0938 169.459L133.38 215.065L86.3398 260.528L39.2999 215.065L86.0938 169.459ZM132.74 215.065L86.0938 169.982L39.4475 215.065L86.0938 260.147L132.74 215.065Z" fill="#FFA200"/>
<path d="M86.0938 169.459L133.38 215.065L86.3398 260.528L39.2999 215.065L86.0938 169.459ZM132.74 215.065L86.0938 169.982L39.4475 215.065L86.0938 260.147L132.74 215.065Z" fill="url(#paint1_linear)"/>
<path d="M109.466 146.917L132.986 169.649L109.466 192.381L85.9459 169.649L109.466 146.917ZM132.543 169.744L109.466 147.441L86.3887 169.744L109.466 192.048L132.543 169.744Z" fill="#FFA200"/>
<path d="M109.466 146.917L132.986 169.649L109.466 192.381L85.9459 169.649L109.466 146.917ZM132.543 169.744L109.466 147.441L86.3887 169.744L109.466 192.048L132.543 169.744Z" fill="url(#paint2_linear)"/>
<path d="M132.838 169.459L156.358 192.19L132.838 215.16L109.22 192.333L132.838 169.459ZM155.915 192.286L132.838 169.982L109.712 192.333L132.789 214.637L155.915 192.286Z" fill="#FFA200"/>
<path d="M132.838 169.459L156.358 192.19L132.838 215.16L109.22 192.333L132.838 169.459ZM155.915 192.286L132.838 169.982L109.712 192.333L132.789 214.637L155.915 192.286Z" fill="url(#paint3_linear)"/>
<path d="M-54.4374 260.29L-30.9174 283.021L-54.4374 305.753L-78.2034 283.116L-54.4374 260.29ZM-31.3602 283.116L-54.4374 260.813L-77.5145 283.116L-54.4374 305.42L-31.3602 283.116Z" fill="#FFA200"/>
<path d="M-54.4374 260.29L-30.9174 283.021L-54.4374 305.753L-78.2034 283.116L-54.4374 260.29ZM-31.3602 283.116L-54.4374 260.813L-77.5145 283.116L-54.4374 305.42L-31.3602 283.116Z" fill="url(#paint4_linear)"/>
<path d="M-31.0638 237.51L-7.54379 260.242L-31.0638 282.973L-54.5838 260.242L-31.0638 237.51ZM-7.98663 260.337L-31.0638 238.033L-54.141 260.337L-31.0638 282.641L-7.98663 260.337Z" fill="#FFA200"/>
<path d="M-31.0638 237.51L-7.54379 260.242L-31.0638 282.973L-54.5838 260.242L-31.0638 237.51ZM-7.98663 260.337L-31.0638 238.033L-54.141 260.337L-31.0638 282.641L-7.98663 260.337Z" fill="url(#paint5_linear)"/>
<path d="M179.879 214.921L203.399 237.653L179.879 260.385L156.359 237.653L179.879 214.921ZM202.956 237.748L179.879 215.445L156.801 237.748L179.879 260.052L202.956 237.748Z" fill="#FFA200"/>
<path d="M179.879 214.921L203.399 237.653L179.879 260.385L156.359 237.653L179.879 214.921ZM202.956 237.748L179.879 215.445L156.801 237.748L179.879 260.052L202.956 237.748Z" fill="url(#paint6_linear)"/>
<path d="M179.877 260.099L193.704 273.463L179.877 286.826L166.051 273.463L179.877 260.099ZM193.31 273.605L179.877 260.622L166.445 273.605L179.877 286.588L193.31 273.605Z" fill="#FFA200"/>
<path d="M179.877 260.099L193.704 273.463L179.877 286.826L166.051 273.463L179.877 260.099ZM193.31 273.605L179.877 260.622L166.445 273.605L179.877 286.588L193.31 273.605Z" fill="url(#paint7_linear)"/>
<path d="M248.173 218.726L262 232.089L248.173 245.452L234.248 232.232L248.173 218.726ZM261.606 232.232L248.173 219.249L234.74 232.232L248.173 245.215L261.606 232.232Z" fill="#FFA200"/>
<path d="M248.173 218.726L262 232.089L248.173 245.452L234.248 232.232L248.173 218.726ZM261.606 232.232L248.173 219.249L234.74 232.232L248.173 245.215L261.606 232.232Z" fill="url(#paint8_linear)"/>
<path d="M-7.69247 169.459L39.3475 214.922L-7.69247 260.385L-54.7325 214.922L-7.69247 169.459ZM38.9539 215.065L-7.69247 169.982L-54.3388 215.065L-7.69247 260.147L38.9539 215.065Z" fill="#FFA200"/>
<path d="M-7.69247 169.459L39.3475 214.922L-7.69247 260.385L-54.7325 214.922L-7.69247 169.459ZM38.9539 215.065L-7.69247 169.982L-54.3388 215.065L-7.69247 260.147L38.9539 215.065Z" fill="url(#paint9_linear)"/>
<path d="M-54.5833 124.138L-7.54324 169.601L-54.5833 215.302L-101.771 169.744L-54.5833 124.138ZM-7.93689 169.697L-54.5833 124.661L-101.23 169.744L-54.5833 214.827L-7.93689 169.697Z" fill="#FFA200"/>
<path d="M-54.5833 124.138L-7.54324 169.601L-54.5833 215.302L-101.771 169.744L-54.5833 124.138ZM-7.93689 169.697L-54.5833 124.661L-101.23 169.744L-54.5833 214.827L-7.93689 169.697Z" fill="url(#paint10_linear)"/>
<path d="M-77.9566 192.191L-30.9166 237.654L-77.9566 283.117L-125.095 237.797L-77.9566 192.191ZM-31.3102 237.797L-77.9566 192.714L-124.554 237.797L-77.9074 282.879L-31.3102 237.797Z" fill="#FFA200"/>
<path d="M-77.9566 192.191L-30.9166 237.654L-77.9566 283.117L-125.095 237.797L-77.9566 192.191ZM-31.3102 237.797L-77.9566 192.714L-124.554 237.797L-77.9074 282.879L-31.3102 237.797Z" fill="url(#paint11_linear)"/>
<path d="M39.2003 49L125.26 132.175L39.2003 215.302L-46.8593 132.175L39.2003 49ZM124.719 132.175L39.2003 49.5231L-46.318 132.175L39.1998 214.78L124.719 132.175Z" fill="#FFA200"/>
<path d="M39.2003 49L125.26 132.175L39.2003 215.302L-46.8593 132.175L39.2003 49ZM124.719 132.175L39.2003 49.5231L-46.318 132.175L39.1998 214.78L124.719 132.175Z" fill="url(#paint12_linear)"/>
<path d="M141.99 325.584L157.292 340.373L141.99 355.163L126.687 340.373L141.99 325.584ZM156.751 340.516L141.99 326.249L127.228 340.516L141.99 354.783L156.751 340.516Z" fill="#FFA200"/>
<path d="M141.99 325.584L157.292 340.373L141.99 355.163L126.687 340.373L141.99 325.584ZM156.751 340.516L141.99 326.249L127.228 340.516L141.99 354.783L156.751 340.516Z" fill="url(#paint13_linear)"/>
<path d="M44.2691 278.313L59.5719 293.198L44.2691 307.988L28.9664 293.198L44.2691 278.313ZM59.0306 293.246L44.2691 278.979L29.5076 293.246L44.2691 307.513L59.0306 293.246Z" fill="#FFA200"/>
<path d="M44.2691 278.313L59.5719 293.198L44.2691 307.988L28.9664 293.198L44.2691 278.313ZM59.0306 293.246L44.2691 278.979L29.5076 293.246L44.2691 307.513L59.0306 293.246Z" fill="url(#paint14_linear)"/>
<path d="M132.986 214.78L180.026 260.243L133.378 305.706L85.9459 260.243L132.986 214.78ZM179.632 260.338L132.986 215.255L86.3395 260.338L132.986 305.421L179.632 260.338Z" fill="#FFA200"/>
<path d="M132.986 214.78L180.026 260.243L133.378 305.706L85.9459 260.243L132.986 214.78ZM179.632 260.338L132.986 215.255L86.3395 260.338L132.986 305.421L179.632 260.338Z" fill="url(#paint15_linear)"/>
<path d="M-54.5833 305.468L-7.54324 350.931L-54.5833 396.632L-101.771 351.026L-54.5833 305.468ZM-7.93689 351.026L-54.5833 305.943L-101.23 351.026L-54.5833 396.109L-7.93689 351.026Z" fill="#FFA200"/>
<path d="M-54.5833 305.468L-7.54324 350.931L-54.5833 396.632L-101.771 351.026L-54.5833 305.468ZM-7.93689 351.026L-54.5833 305.943L-101.23 351.026L-54.5833 396.109L-7.93689 351.026Z" fill="url(#paint16_linear)"/>
<path d="M-7.69254 350.788L39.1998 396.633L-7.69254 442L-54.8309 396.347L-7.69254 350.788ZM38.9538 396.394L-7.69254 351.311L-54.3389 396.347L-7.69254 441.429L38.9538 396.394Z" fill="#FFA200"/>
<path d="M-7.69254 350.788L39.1998 396.633L-7.69254 442L-54.8309 396.347L-7.69254 350.788ZM38.9538 396.394L-7.69254 351.311L-54.3389 396.347L-7.69254 441.429L38.9538 396.394Z" fill="url(#paint17_linear)"/>
<path d="M-115.697 275.888L-131 290.678L-115.697 305.468L-100.395 290.678L-115.697 275.888ZM-130.459 290.82L-115.697 276.554L-100.936 290.82L-115.697 305.087L-130.459 290.82Z" fill="#FFA200"/>
<path d="M-115.697 275.888L-131 290.678L-115.697 305.468L-100.395 290.678L-115.697 275.888ZM-130.459 290.82L-115.697 276.554L-100.936 290.82L-115.697 305.087L-130.459 290.82Z" fill="url(#paint18_linear)"/>
<path d="M1159.8 690.22L1065.62 599.294L1159.8 508.367L1253.83 599.294L1159.8 690.22ZM1066.31 599.294L1159.8 689.65L1253.29 599.294L1159.8 508.938L1066.31 599.294Z" fill="#FFA200"/>
<path d="M1159.8 690.22L1065.62 599.294L1159.8 508.367L1253.83 599.294L1159.8 690.22ZM1066.31 599.294L1159.8 689.65L1253.29 599.294L1159.8 508.938L1066.31 599.294Z" fill="url(#paint19_linear)"/>
<path d="M1112.91 735.541L1065.62 689.935L1112.66 644.472L1159.7 689.935L1112.91 735.541ZM1066.26 689.935L1112.91 735.018L1159.55 689.935L1112.91 644.853L1066.26 689.935Z" fill="#FFA200"/>
<path d="M1112.91 735.541L1065.62 689.935L1112.66 644.472L1159.7 689.935L1112.91 735.541ZM1066.26 689.935L1112.91 735.018L1159.55 689.935L1112.91 644.853L1066.26 689.935Z" fill="url(#paint20_linear)"/>
<path d="M1089.53 758.083L1066.01 735.351L1089.53 712.619L1113.05 735.351L1089.53 758.083ZM1066.46 735.256L1089.53 757.56L1112.61 735.256L1089.53 712.952L1066.46 735.256Z" fill="#FFA200"/>
<path d="M1089.53 758.083L1066.01 735.351L1089.53 712.619L1113.05 735.351L1089.53 758.083ZM1066.46 735.256L1089.53 757.56L1112.61 735.256L1089.53 712.952L1066.46 735.256Z" fill="url(#paint21_linear)"/>
<path d="M1066.16 735.541L1042.64 712.81L1066.16 689.84L1089.78 712.667L1066.16 735.541ZM1043.08 712.714L1066.16 735.018L1089.29 712.667L1066.21 690.363L1043.08 712.714Z" fill="#FFA200"/>
<path d="M1066.16 735.541L1042.64 712.81L1066.16 689.84L1089.78 712.667L1066.16 735.541ZM1043.08 712.714L1066.16 735.018L1089.29 712.667L1066.21 690.363L1043.08 712.714Z" fill="url(#paint22_linear)"/>
<path d="M1253.44 644.71L1229.92 621.979L1253.44 599.247L1277.2 621.884L1253.44 644.71ZM1230.36 621.884L1253.44 644.187L1276.51 621.884L1253.44 599.58L1230.36 621.884Z" fill="#FFA200"/>
<path d="M1253.44 644.71L1229.92 621.979L1253.44 599.247L1277.2 621.884L1253.44 644.71ZM1230.36 621.884L1253.44 644.187L1276.51 621.884L1253.44 599.58L1230.36 621.884Z" fill="url(#paint23_linear)"/>
<path d="M1230.06 667.49L1206.54 644.758L1230.06 622.027L1253.58 644.758L1230.06 667.49ZM1206.99 644.663L1230.06 666.967L1253.14 644.663L1230.06 622.359L1206.99 644.663Z" fill="#FFA200"/>
<path d="M1230.06 667.49L1206.54 644.758L1230.06 622.027L1253.58 644.758L1230.06 667.49ZM1206.99 644.663L1230.06 666.967L1253.14 644.663L1230.06 622.359L1206.99 644.663Z" fill="url(#paint24_linear)"/>
<path d="M1019.12 690.079L995.601 667.347L1019.12 644.615L1042.64 667.347L1019.12 690.079ZM996.044 667.252L1019.12 689.555L1042.2 667.252L1019.12 644.948L996.044 667.252Z" fill="#FFA200"/>
<path d="M1019.12 690.079L995.601 667.347L1019.12 644.615L1042.64 667.347L1019.12 690.079ZM996.044 667.252L1019.12 689.555L1042.2 667.252L1019.12 644.948L996.044 667.252Z" fill="url(#paint25_linear)"/>
<path d="M1019.12 644.901L1005.3 631.538L1019.12 618.174L1032.95 631.538L1019.12 644.901ZM1005.69 631.395L1019.12 644.378L1032.56 631.395L1019.12 618.412L1005.69 631.395Z" fill="#FFA200"/>
<path d="M1019.12 644.901L1005.3 631.538L1019.12 618.174L1032.95 631.538L1019.12 644.901ZM1005.69 631.395L1019.12 644.378L1032.56 631.395L1019.12 618.412L1005.69 631.395Z" fill="url(#paint26_linear)"/>
<path d="M950.827 686.274L937 672.911L950.827 659.548L964.752 672.768L950.827 686.274ZM937.394 672.768L950.827 685.751L964.26 672.768L950.827 659.785L937.394 672.768Z" fill="#FFA200"/>
<path d="M950.827 686.274L937 672.911L950.827 659.548L964.752 672.768L950.827 686.274ZM937.394 672.768L950.827 685.751L964.26 672.768L950.827 659.785L937.394 672.768Z" fill="url(#paint27_linear)"/>
<path d="M1206.69 735.541L1159.65 690.078L1206.69 644.615L1253.73 690.078L1206.69 735.541ZM1160.05 689.935L1206.69 735.018L1253.34 689.935L1206.69 644.853L1160.05 689.935Z" fill="#FFA200"/>
<path d="M1206.69 735.541L1159.65 690.078L1206.69 644.615L1253.73 690.078L1206.69 735.541ZM1160.05 689.935L1206.69 735.018L1253.34 689.935L1206.69 644.853L1160.05 689.935Z" fill="url(#paint28_linear)"/>
<path d="M1253.58 780.862L1206.54 735.399L1253.58 689.698L1300.77 735.256L1253.58 780.862ZM1206.94 735.304L1253.58 780.339L1300.23 735.256L1253.58 690.173L1206.94 735.304Z" fill="#FFA200"/>
<path d="M1253.58 780.862L1206.54 735.399L1253.58 689.698L1300.77 735.256L1253.58 780.862ZM1206.94 735.304L1253.58 780.339L1300.23 735.256L1253.58 690.173L1206.94 735.304Z" fill="url(#paint29_linear)"/>
<path d="M1276.96 712.809L1229.92 667.346L1276.96 621.883L1324.1 667.204L1276.96 712.809ZM1230.31 667.203L1276.96 712.286L1323.55 667.204L1276.91 622.121L1230.31 667.203Z" fill="#FFA200"/>
<path d="M1276.96 712.809L1229.92 667.346L1276.96 621.883L1324.1 667.204L1276.96 712.809ZM1230.31 667.203L1276.96 712.286L1323.55 667.204L1276.91 622.121L1230.31 667.203Z" fill="url(#paint30_linear)"/>
<path d="M1159.8 856L1073.74 772.825L1159.8 689.698L1245.86 772.825L1159.8 856ZM1074.28 772.825L1159.8 855.477L1245.32 772.825L1159.8 690.22L1074.28 772.825Z" fill="#FFA200"/>
<path d="M1159.8 856L1073.74 772.825L1159.8 689.698L1245.86 772.825L1159.8 856ZM1074.28 772.825L1159.8 855.477L1245.32 772.825L1159.8 690.22L1074.28 772.825Z" fill="url(#paint31_linear)"/>
<path d="M1057.01 579.416L1041.71 564.627L1057.01 549.837L1072.31 564.627L1057.01 579.416ZM1042.25 564.484L1057.01 578.751L1071.77 564.484L1057.01 550.217L1042.25 564.484Z" fill="#FFA200"/>
<path d="M1057.01 579.416L1041.71 564.627L1057.01 549.837L1072.31 564.627L1057.01 579.416ZM1042.25 564.484L1057.01 578.751L1071.77 564.484L1057.01 550.217L1042.25 564.484Z" fill="url(#paint32_linear)"/>
<path d="M1154.73 626.687L1139.43 611.802L1154.73 597.012L1170.03 611.802L1154.73 626.687ZM1139.97 611.754L1154.73 626.021L1169.49 611.754L1154.73 597.487L1139.97 611.754Z" fill="#FFA200"/>
<path d="M1154.73 626.687L1139.43 611.802L1154.73 597.012L1170.03 611.802L1154.73 626.687ZM1139.97 611.754L1154.73 626.021L1169.49 611.754L1154.73 597.487L1139.97 611.754Z" fill="url(#paint33_linear)"/>
<path d="M1066.01 690.22L1018.97 644.757L1065.62 599.294L1113.05 644.757L1066.01 690.22ZM1019.37 644.662L1066.01 689.745L1112.66 644.662L1066.01 599.579L1019.37 644.662Z" fill="#FFA200"/>
<path d="M1066.01 690.22L1018.97 644.757L1065.62 599.294L1113.05 644.757L1066.01 690.22ZM1019.37 644.662L1066.01 689.745L1112.66 644.662L1066.01 599.579L1019.37 644.662Z" fill="url(#paint34_linear)"/>
<path d="M1253.58 599.532L1206.54 554.069L1253.58 508.368L1300.77 553.974L1253.58 599.532ZM1206.94 553.974L1253.58 599.057L1300.23 553.974L1253.58 508.891L1206.94 553.974Z" fill="#FFA200"/>
<path d="M1253.58 599.532L1206.54 554.069L1253.58 508.368L1300.77 553.974L1253.58 599.532ZM1206.94 553.974L1253.58 599.057L1300.23 553.974L1253.58 508.891L1206.94 553.974Z" fill="url(#paint35_linear)"/>
<path d="M1206.69 554.212L1159.8 508.367L1206.69 463L1253.83 508.653L1206.69 554.212ZM1160.05 508.606L1206.69 553.689L1253.34 508.653L1206.69 463.571L1160.05 508.606Z" fill="#FFA200"/>
<path d="M1206.69 554.212L1159.8 508.367L1206.69 463L1253.83 508.653L1206.69 554.212ZM1160.05 508.606L1206.69 553.689L1253.34 508.653L1206.69 463.571L1160.05 508.606Z" fill="url(#paint36_linear)"/>
<path d="M1314.7 629.112L1330 614.322L1314.7 599.533L1299.39 614.322L1314.7 629.112ZM1329.46 614.18L1314.7 628.446L1299.94 614.18L1314.7 599.913L1329.46 614.18Z" fill="#FFA200"/>
<path d="M1314.7 629.112L1330 614.322L1314.7 599.533L1299.39 614.322L1314.7 629.112ZM1329.46 614.18L1314.7 628.446L1299.94 614.18L1314.7 599.913L1329.46 614.18Z" fill="url(#paint37_linear)"/>
</g>
<defs>
<linearGradient id="paint0_linear" x1="246.131" y1="117.593" x2="-9.16529" y2="393.073" gradientUnits="userSpaceOnUse">
<stop stop-color="white"/>
<stop offset="1" stop-color="white" stop-opacity="0"/>
</linearGradient>
<linearGradient id="paint1_linear" x1="246.131" y1="117.593" x2="-9.16529" y2="393.073" gradientUnits="userSpaceOnUse">
<stop stop-color="white"/>
<stop offset="1" stop-color="white" stop-opacity="0"/>
</linearGradient>
<linearGradient id="paint2_linear" x1="246.131" y1="117.593" x2="-9.16529" y2="393.073" gradientUnits="userSpaceOnUse">
<stop stop-color="white"/>
<stop offset="1" stop-color="white" stop-opacity="0"/>
</linearGradient>
<linearGradient id="paint3_linear" x1="246.131" y1="117.593" x2="-9.16529" y2="393.073" gradientUnits="userSpaceOnUse">
<stop stop-color="white"/>
<stop offset="1" stop-color="white" stop-opacity="0"/>
</linearGradient>
<linearGradient id="paint4_linear" x1="246.131" y1="117.593" x2="-9.16529" y2="393.073" gradientUnits="userSpaceOnUse">
<stop stop-color="white"/>
<stop offset="1" stop-color="white" stop-opacity="0"/>
</linearGradient>
<linearGradient id="paint5_linear" x1="246.131" y1="117.593" x2="-9.16529" y2="393.073" gradientUnits="userSpaceOnUse">
<stop stop-color="white"/>
<stop offset="1" stop-color="white" stop-opacity="0"/>
</linearGradient>
<linearGradient id="paint6_linear" x1="246.131" y1="117.593" x2="-9.16529" y2="393.073" gradientUnits="userSpaceOnUse">
<stop stop-color="white"/>
<stop offset="1" stop-color="white" stop-opacity="0"/>
</linearGradient>
<linearGradient id="paint7_linear" x1="246.131" y1="117.593" x2="-9.16529" y2="393.073" gradientUnits="userSpaceOnUse">
<stop stop-color="white"/>
<stop offset="1" stop-color="white" stop-opacity="0"/>
</linearGradient>
<linearGradient id="paint8_linear" x1="246.131" y1="117.593" x2="-9.16529" y2="393.073" gradientUnits="userSpaceOnUse">
<stop stop-color="white"/>
<stop offset="1" stop-color="white" stop-opacity="0"/>
</linearGradient>
<linearGradient id="paint9_linear" x1="246.131" y1="117.593" x2="-9.16529" y2="393.073" gradientUnits="userSpaceOnUse">
<stop stop-color="white"/>
<stop offset="1" stop-color="white" stop-opacity="0"/>
</linearGradient>
<linearGradient id="paint10_linear" x1="246.131" y1="117.593" x2="-9.16529" y2="393.073" gradientUnits="userSpaceOnUse">
<stop stop-color="white"/>
<stop offset="1" stop-color="white" stop-opacity="0"/>
</linearGradient>
<linearGradient id="paint11_linear" x1="246.131" y1="117.593" x2="-9.16529" y2="393.073" gradientUnits="userSpaceOnUse">
<stop stop-color="white"/>
<stop offset="1" stop-color="white" stop-opacity="0"/>
</linearGradient>
<linearGradient id="paint12_linear" x1="246.131" y1="117.593" x2="-9.16529" y2="393.073" gradientUnits="userSpaceOnUse">
<stop stop-color="white"/>
<stop offset="1" stop-color="white" stop-opacity="0"/>
</linearGradient>
<linearGradient id="paint13_linear" x1="246.131" y1="117.593" x2="-9.16529" y2="393.073" gradientUnits="userSpaceOnUse">
<stop stop-color="white"/>
<stop offset="1" stop-color="white" stop-opacity="0"/>
</linearGradient>
<linearGradient id="paint14_linear" x1="246.131" y1="117.593" x2="-9.16529" y2="393.073" gradientUnits="userSpaceOnUse">
<stop stop-color="white"/>
<stop offset="1" stop-color="white" stop-opacity="0"/>
</linearGradient>
<linearGradient id="paint15_linear" x1="246.131" y1="117.593" x2="-9.16529" y2="393.073" gradientUnits="userSpaceOnUse">
<stop stop-color="white"/>
<stop offset="1" stop-color="white" stop-opacity="0"/>
</linearGradient>
<linearGradient id="paint16_linear" x1="246.131" y1="117.593" x2="-9.16529" y2="393.073" gradientUnits="userSpaceOnUse">
<stop stop-color="white"/>
<stop offset="1" stop-color="white" stop-opacity="0"/>
</linearGradient>
<linearGradient id="paint17_linear" x1="246.131" y1="117.593" x2="-9.16529" y2="393.073" gradientUnits="userSpaceOnUse">
<stop stop-color="white"/>
<stop offset="1" stop-color="white" stop-opacity="0"/>
</linearGradient>
<linearGradient id="paint18_linear" x1="246.131" y1="117.593" x2="-9.16529" y2="393.073" gradientUnits="userSpaceOnUse">
<stop stop-color="white"/>
<stop offset="1" stop-color="white" stop-opacity="0"/>
</linearGradient>
<linearGradient id="paint19_linear" x1="952.869" y1="787.407" x2="1208.17" y2="511.927" gradientUnits="userSpaceOnUse">
<stop stop-color="white"/>
<stop offset="1" stop-color="white" stop-opacity="0"/>
</linearGradient>
<linearGradient id="paint20_linear" x1="952.869" y1="787.407" x2="1208.17" y2="511.927" gradientUnits="userSpaceOnUse">
<stop stop-color="white"/>
<stop offset="1" stop-color="white" stop-opacity="0"/>
</linearGradient>
<linearGradient id="paint21_linear" x1="952.869" y1="787.407" x2="1208.17" y2="511.927" gradientUnits="userSpaceOnUse">
<stop stop-color="white"/>
<stop offset="1" stop-color="white" stop-opacity="0"/>
</linearGradient>
<linearGradient id="paint22_linear" x1="952.869" y1="787.407" x2="1208.17" y2="511.927" gradientUnits="userSpaceOnUse">
<stop stop-color="white"/>
<stop offset="1" stop-color="white" stop-opacity="0"/>
</linearGradient>
<linearGradient id="paint23_linear" x1="952.869" y1="787.407" x2="1208.17" y2="511.927" gradientUnits="userSpaceOnUse">
<stop stop-color="white"/>
<stop offset="1" stop-color="white" stop-opacity="0"/>
</linearGradient>
<linearGradient id="paint24_linear" x1="952.869" y1="787.407" x2="1208.17" y2="511.927" gradientUnits="userSpaceOnUse">
<stop stop-color="white"/>
<stop offset="1" stop-color="white" stop-opacity="0"/>
</linearGradient>
<linearGradient id="paint25_linear" x1="952.869" y1="787.407" x2="1208.17" y2="511.927" gradientUnits="userSpaceOnUse">
<stop stop-color="white"/>
<stop offset="1" stop-color="white" stop-opacity="0"/>
</linearGradient>
<linearGradient id="paint26_linear" x1="952.869" y1="787.407" x2="1208.17" y2="511.927" gradientUnits="userSpaceOnUse">
<stop stop-color="white"/>
<stop offset="1" stop-color="white" stop-opacity="0"/>
</linearGradient>
<linearGradient id="paint27_linear" x1="952.869" y1="787.407" x2="1208.17" y2="511.927" gradientUnits="userSpaceOnUse">
<stop stop-color="white"/>
<stop offset="1" stop-color="white" stop-opacity="0"/>
</linearGradient>
<linearGradient id="paint28_linear" x1="952.869" y1="787.407" x2="1208.17" y2="511.927" gradientUnits="userSpaceOnUse">
<stop stop-color="white"/>
<stop offset="1" stop-color="white" stop-opacity="0"/>
</linearGradient>
<linearGradient id="paint29_linear" x1="952.869" y1="787.407" x2="1208.17" y2="511.927" gradientUnits="userSpaceOnUse">
<stop stop-color="white"/>
<stop offset="1" stop-color="white" stop-opacity="0"/>
</linearGradient>
<linearGradient id="paint30_linear" x1="952.869" y1="787.407" x2="1208.17" y2="511.927" gradientUnits="userSpaceOnUse">
<stop stop-color="white"/>
<stop offset="1" stop-color="white" stop-opacity="0"/>
</linearGradient>
<linearGradient id="paint31_linear" x1="952.869" y1="787.407" x2="1208.17" y2="511.927" gradientUnits="userSpaceOnUse">
<stop stop-color="white"/>
<stop offset="1" stop-color="white" stop-opacity="0"/>
</linearGradient>
<linearGradient id="paint32_linear" x1="952.869" y1="787.407" x2="1208.17" y2="511.927" gradientUnits="userSpaceOnUse">
<stop stop-color="white"/>
<stop offset="1" stop-color="white" stop-opacity="0"/>
</linearGradient>
<linearGradient id="paint33_linear" x1="952.869" y1="787.407" x2="1208.17" y2="511.927" gradientUnits="userSpaceOnUse">
<stop stop-color="white"/>
<stop offset="1" stop-color="white" stop-opacity="0"/>
</linearGradient>
<linearGradient id="paint34_linear" x1="952.869" y1="787.407" x2="1208.17" y2="511.927" gradientUnits="userSpaceOnUse">
<stop stop-color="white"/>
<stop offset="1" stop-color="white" stop-opacity="0"/>
</linearGradient>
<linearGradient id="paint35_linear" x1="952.869" y1="787.407" x2="1208.17" y2="511.927" gradientUnits="userSpaceOnUse">
<stop stop-color="white"/>
<stop offset="1" stop-color="white" stop-opacity="0"/>
</linearGradient>
<linearGradient id="paint36_linear" x1="952.869" y1="787.407" x2="1208.17" y2="511.927" gradientUnits="userSpaceOnUse">
<stop stop-color="white"/>
<stop offset="1" stop-color="white" stop-opacity="0"/>
</linearGradient>
<linearGradient id="paint37_linear" x1="952.869" y1="787.407" x2="1208.17" y2="511.927" gradientUnits="userSpaceOnUse">
<stop stop-color="white"/>
<stop offset="1" stop-color="white" stop-opacity="0"/>
</linearGradient>
</defs>
</svg>
