<svg width="560" height="502" viewBox="0 0 560 502" fill="none" xmlns="http://www.w3.org/2000/svg">
<path d="M317.476 239.395L183.278 370.697L317.476 502L451.464 370.697L317.476 239.395ZM184.259 370.697L317.476 240.219L450.693 370.697L317.476 501.176L184.259 370.697Z" fill="#FFA200"/>
<path d="M317.476 239.395L183.278 370.697L317.476 502L451.464 370.697L317.476 239.395ZM184.259 370.697L317.476 240.219L450.693 370.697L317.476 501.176L184.259 370.697Z" fill="url(#paint0_linear)"/>
<path d="M250.655 173.949L183.276 239.806L250.305 305.458L317.334 239.806L250.655 173.949ZM184.187 239.806L250.655 174.704L317.123 239.806L250.655 304.908L184.187 239.806Z" fill="#FFA200"/>
<path d="M250.655 173.949L183.276 239.806L250.305 305.458L317.334 239.806L250.655 173.949ZM184.187 239.806L250.655 174.704L317.123 239.806L250.655 304.908L184.187 239.806Z" fill="url(#paint1_linear)"/>
<path d="M117.018 239.599L83.5032 272.425L117.018 305.251L150.532 272.425L117.018 239.599ZM84.1343 272.562L117.018 240.355L149.901 272.562L117.018 304.77L84.1343 272.562Z" fill="#FFA200"/>
<path d="M117.018 239.599L83.5032 272.425L117.018 305.251L150.532 272.425L117.018 239.599ZM84.1343 272.562L117.018 240.355L149.901 272.562L117.018 304.77L84.1343 272.562Z" fill="url(#paint2_linear)"/>
<path d="M117.019 304.839L97.3174 324.136L117.019 343.433L136.721 324.136L117.019 304.839ZM97.8783 324.342L117.019 305.594L136.161 324.342L117.019 343.09L97.8783 324.342Z" fill="#FFA200"/>
<path d="M117.019 304.839L97.3174 324.136L117.019 343.433L136.721 324.136L117.019 304.839ZM97.8783 324.342L117.019 305.594L136.161 324.342L117.019 343.09L97.8783 324.342Z" fill="url(#paint3_linear)"/>
<path d="M19.702 245.094L-2.34094e-06 264.391L19.702 283.688L39.5443 264.597L19.702 245.094ZM0.560923 264.597L19.702 245.849L38.8432 264.597L19.702 283.344L0.560923 264.597Z" fill="#FFA200"/>
<path d="M19.702 245.094L-2.34094e-06 264.391L19.702 283.688L39.5443 264.597L19.702 245.094ZM0.560923 264.597L19.702 245.849L38.8432 264.597L19.702 283.344L0.560923 264.597Z" fill="url(#paint4_linear)"/>
<path d="M384.295 173.949L317.266 239.6L384.295 305.252L451.324 239.6L384.295 173.949ZM317.827 239.806L384.295 174.704L450.763 239.806L384.295 304.908L317.827 239.806Z" fill="#FFA200"/>
<path d="M384.295 173.949L317.266 239.6L384.295 305.252L451.324 239.6L384.295 173.949ZM317.827 239.806L384.295 174.704L450.763 239.806L384.295 304.908L317.827 239.806Z" fill="url(#paint5_linear)"/>
<path d="M317.475 0L194.846 120.109L317.475 240.149L440.105 120.109L317.475 0ZM195.617 120.109L317.475 0.755403L439.334 120.109L317.476 239.395L195.617 120.109Z" fill="#FFA200"/>
<path d="M317.475 0L194.846 120.109L317.475 240.149L440.105 120.109L317.475 0ZM195.617 120.109L317.475 0.755403L439.334 120.109L317.476 239.395L195.617 120.109Z" fill="url(#paint6_linear)"/>
<path d="M310.253 331.141L288.447 352.635L310.253 373.993L332.058 352.635L310.253 331.141ZM289.218 352.704L310.253 332.102L331.287 352.704L310.253 373.306L289.218 352.704Z" fill="#FFA200"/>
<path d="M310.253 331.141L288.447 352.635L310.253 373.993L332.058 352.635L310.253 331.141ZM289.218 352.704L310.253 332.102L331.287 352.704L310.253 373.306L289.218 352.704Z" fill="url(#paint7_linear)"/>
<path d="M183.837 239.395L116.808 305.046L183.278 370.697L250.866 305.046L183.837 239.395ZM117.369 305.183L183.837 240.081L250.305 305.183L183.837 370.285L117.369 305.183Z" fill="#FFA200"/>
<path d="M183.837 239.395L116.808 305.046L183.278 370.697L250.866 305.046L183.837 239.395ZM117.369 305.183L183.837 240.081L250.305 305.183L183.837 370.285L117.369 305.183Z" fill="url(#paint8_linear)"/>
<path d="M451.111 370.353L384.082 436.004L451.111 501.999L518.35 436.142L451.111 370.353ZM384.643 436.142L451.111 371.04L517.579 436.142L451.111 501.243L384.643 436.142Z" fill="#FFA200"/>
<path d="M451.111 370.353L384.082 436.004L451.111 501.999L518.35 436.142L451.111 370.353ZM384.643 436.142L451.111 371.04L517.579 436.142L451.111 501.243L384.643 436.142Z" fill="url(#paint9_linear)"/>
<path d="M538.195 327.638L560 348.996L538.195 370.353L516.389 348.996L538.195 327.638ZM559.229 349.202L538.195 328.6L517.16 349.202L538.195 369.803L559.229 349.202Z" fill="#FFA200"/>
<path d="M538.195 327.638L560 348.996L538.195 370.353L516.389 348.996L538.195 327.638ZM559.229 349.202L538.195 328.6L517.16 349.202L538.195 369.803L559.229 349.202Z" fill="url(#paint10_linear)"/>
<defs>
<linearGradient id="paint0_linear" x1="22.6123" y1="99.0526" x2="391.614" y2="491.956" gradientUnits="userSpaceOnUse">
<stop stop-color="white"/>
<stop offset="1" stop-color="white" stop-opacity="0"/>
</linearGradient>
<linearGradient id="paint1_linear" x1="22.6123" y1="99.0526" x2="391.614" y2="491.956" gradientUnits="userSpaceOnUse">
<stop stop-color="white"/>
<stop offset="1" stop-color="white" stop-opacity="0"/>
</linearGradient>
<linearGradient id="paint2_linear" x1="22.6123" y1="99.0526" x2="391.614" y2="491.956" gradientUnits="userSpaceOnUse">
<stop stop-color="white"/>
<stop offset="1" stop-color="white" stop-opacity="0"/>
</linearGradient>
<linearGradient id="paint3_linear" x1="22.6123" y1="99.0526" x2="391.614" y2="491.956" gradientUnits="userSpaceOnUse">
<stop stop-color="white"/>
<stop offset="1" stop-color="white" stop-opacity="0"/>
</linearGradient>
<linearGradient id="paint4_linear" x1="22.6123" y1="99.0526" x2="391.614" y2="491.956" gradientUnits="userSpaceOnUse">
<stop stop-color="white"/>
<stop offset="1" stop-color="white" stop-opacity="0"/>
</linearGradient>
<linearGradient id="paint5_linear" x1="22.6123" y1="99.0526" x2="391.614" y2="491.956" gradientUnits="userSpaceOnUse">
<stop stop-color="white"/>
<stop offset="1" stop-color="white" stop-opacity="0"/>
</linearGradient>
<linearGradient id="paint6_linear" x1="22.6123" y1="99.0526" x2="391.614" y2="491.956" gradientUnits="userSpaceOnUse">
<stop stop-color="white"/>
<stop offset="1" stop-color="white" stop-opacity="0"/>
</linearGradient>
<linearGradient id="paint7_linear" x1="22.6123" y1="99.0526" x2="391.614" y2="491.956" gradientUnits="userSpaceOnUse">
<stop stop-color="white"/>
<stop offset="1" stop-color="white" stop-opacity="0"/>
</linearGradient>
<linearGradient id="paint8_linear" x1="22.6123" y1="99.0526" x2="391.614" y2="491.956" gradientUnits="userSpaceOnUse">
<stop stop-color="white"/>
<stop offset="1" stop-color="white" stop-opacity="0"/>
</linearGradient>
<linearGradient id="paint9_linear" x1="22.6123" y1="99.0526" x2="391.614" y2="491.956" gradientUnits="userSpaceOnUse">
<stop stop-color="white"/>
<stop offset="1" stop-color="white" stop-opacity="0"/>
</linearGradient>
<linearGradient id="paint10_linear" x1="22.6123" y1="99.0526" x2="391.614" y2="491.956" gradientUnits="userSpaceOnUse">
<stop stop-color="white"/>
<stop offset="1" stop-color="white" stop-opacity="0"/>
</linearGradient>
</defs>
</svg>
