<svg width="193" height="99" viewBox="0 0 193 99" fill="none" xmlns="http://www.w3.org/2000/svg">
<path d="M-29.8002 20.7796L64.3783 111.706L-29.8002 202.633L-123.831 111.706L-29.8002 20.7796ZM63.6894 111.706L-29.8002 21.3503L-123.29 111.706L-29.8002 202.062L63.6894 111.706Z" fill="#FFA200"/>
<path d="M-29.8002 20.7796L64.3783 111.706L-29.8002 202.633L-123.831 111.706L-29.8002 20.7796ZM63.6894 111.706L-29.8002 21.3503L-123.29 111.706L-29.8002 202.062L63.6894 111.706Z" fill="url(#paint0_linear)"/>
<path d="M17.0938 -24.5412L64.3799 21.0647L17.3398 66.528L-29.7001 21.0647L17.0938 -24.5412ZM63.7402 21.0647L17.0938 -24.0181L-29.5525 21.0647L17.0938 66.1475L63.7402 21.0647Z" fill="#FFA200"/>
<path d="M17.0938 -24.5412L64.3799 21.0647L17.3398 66.528L-29.7001 21.0647L17.0938 -24.5412ZM63.7402 21.0647L17.0938 -24.0181L-29.5525 21.0647L17.0938 66.1475L63.7402 21.0647Z" fill="url(#paint1_linear)"/>
<path d="M40.4659 -47.0826L63.9859 -24.351L40.4659 -1.61937L16.9459 -24.351L40.4659 -47.0826ZM63.543 -24.2559L40.4659 -46.5595L17.3887 -24.2559L40.4659 -1.95226L63.543 -24.2559Z" fill="#FFA200"/>
<path d="M40.4659 -47.0826L63.9859 -24.351L40.4659 -1.61937L16.9459 -24.351L40.4659 -47.0826ZM63.543 -24.2559L40.4659 -46.5595L17.3887 -24.2559L40.4659 -1.95226L63.543 -24.2559Z" fill="url(#paint2_linear)"/>
<path d="M63.8383 -24.5412L87.3583 -1.80957L63.8383 21.1598L40.2198 -1.66692L63.8383 -24.5412ZM86.9154 -1.71446L63.8383 -24.0181L40.7119 -1.66692L63.7891 20.6367L86.9154 -1.71446Z" fill="#FFA200"/>
<path d="M63.8383 -24.5412L87.3583 -1.80957L63.8383 21.1598L40.2198 -1.66692L63.8383 -24.5412ZM86.9154 -1.71446L63.8383 -24.0181L40.7119 -1.66692L63.7891 20.6367L86.9154 -1.71446Z" fill="url(#paint3_linear)"/>
<path d="M-123.437 66.2897L-99.9174 89.0213L-123.437 111.753L-147.203 89.1164L-123.437 66.2897ZM-100.36 89.1164L-123.437 66.8128L-146.515 89.1164L-123.437 111.42L-100.36 89.1164Z" fill="#FFA200"/>
<path d="M-123.437 66.2897L-99.9174 89.0213L-123.437 111.753L-147.203 89.1164L-123.437 66.2897ZM-100.36 89.1164L-123.437 66.8128L-146.515 89.1164L-123.437 111.42L-100.36 89.1164Z" fill="url(#paint4_linear)"/>
<path d="M-100.064 43.5102L-76.5438 66.2418L-100.064 88.9735L-123.584 66.2418L-100.064 43.5102ZM-76.9866 66.3369L-100.064 44.0333L-123.141 66.3369L-100.064 88.6406L-76.9866 66.3369Z" fill="#FFA200"/>
<path d="M-100.064 43.5102L-76.5438 66.2418L-100.064 88.9735L-123.584 66.2418L-100.064 43.5102ZM-76.9866 66.3369L-100.064 44.0333L-123.141 66.3369L-100.064 88.6406L-76.9866 66.3369Z" fill="url(#paint5_linear)"/>
<path d="M110.879 20.9214L134.399 43.653L110.879 66.3847L87.3586 43.653L110.879 20.9214ZM133.956 43.7482L110.879 21.4445L87.8015 43.7482L110.879 66.0518L133.956 43.7482Z" fill="#FFA200"/>
<path d="M110.879 20.9214L134.399 43.653L110.879 66.3847L87.3586 43.653L110.879 20.9214ZM133.956 43.7482L110.879 21.4445L87.8015 43.7482L110.879 66.0518L133.956 43.7482Z" fill="url(#paint6_linear)"/>
<path d="M110.877 66.0994L124.704 79.4625L110.877 92.8257L97.0509 79.4625L110.877 66.0994ZM124.31 79.6052L110.877 66.6225L97.4445 79.6052L110.877 92.5879L124.31 79.6052Z" fill="#FFA200"/>
<path d="M110.877 66.0994L124.704 79.4625L110.877 92.8257L97.0509 79.4625L110.877 66.0994ZM124.31 79.6052L110.877 66.6225L97.4445 79.6052L110.877 92.5879L124.31 79.6052Z" fill="url(#paint7_linear)"/>
<path d="M179.173 24.7261L193 38.0892L179.173 51.4524L165.248 38.2319L179.173 24.7261ZM192.606 38.2319L179.173 25.2492L165.74 38.2319L179.173 51.2146L192.606 38.2319Z" fill="#FFA200"/>
<path d="M179.173 24.7261L193 38.0892L179.173 51.4524L165.248 38.2319L179.173 24.7261ZM192.606 38.2319L179.173 25.2492L165.74 38.2319L179.173 51.2146L192.606 38.2319Z" fill="url(#paint8_linear)"/>
<path d="M-76.6925 -24.5412L-29.6525 20.922L-76.6925 66.3853L-123.732 20.922L-76.6925 -24.5412ZM-30.0461 21.0647L-76.6925 -24.0181L-123.339 21.0647L-76.6925 66.1475L-30.0461 21.0647Z" fill="#FFA200"/>
<path d="M-76.6925 -24.5412L-29.6525 20.922L-76.6925 66.3853L-123.732 20.922L-76.6925 -24.5412ZM-30.0461 21.0647L-76.6925 -24.0181L-123.339 21.0647L-76.6925 66.1475L-30.0461 21.0647Z" fill="url(#paint9_linear)"/>
<path d="M-123.583 -69.8618L-76.5432 -24.3986L-123.583 21.3024L-170.771 -24.2559L-123.583 -69.8618ZM-76.9369 -24.3035L-123.583 -69.3387L-170.23 -24.2559L-123.583 20.8269L-76.9369 -24.3035Z" fill="#FFA200"/>
<path d="M-123.583 -69.8618L-76.5432 -24.3986L-123.583 21.3024L-170.771 -24.2559L-123.583 -69.8618ZM-76.9369 -24.3035L-123.583 -69.3387L-170.23 -24.2559L-123.583 20.8269L-76.9369 -24.3035Z" fill="url(#paint10_linear)"/>
<path d="M-146.957 -1.80933L-99.9166 43.6539L-146.957 89.1171L-194.095 43.7966L-146.957 -1.80933ZM-100.31 43.7966L-146.957 -1.28621L-193.554 43.7966L-146.907 88.8793L-100.31 43.7966Z" fill="#FFA200"/>
<path d="M-146.957 -1.80933L-99.9166 43.6539L-146.957 89.1171L-194.095 43.7966L-146.957 -1.80933ZM-100.31 43.7966L-146.957 -1.28621L-193.554 43.7966L-146.907 88.8793L-100.31 43.7966Z" fill="url(#paint11_linear)"/>
<path d="M-29.7997 -145L56.2598 -61.8251L-29.7997 21.3022L-115.859 -61.8251L-29.7997 -145ZM55.7186 -61.8251L-29.7997 -144.477L-115.318 -61.8251L-29.8002 20.7796L55.7186 -61.8251Z" fill="#FFA200"/>
<path d="M-29.7997 -145L56.2598 -61.8251L-29.7997 21.3022L-115.859 -61.8251L-29.7997 -145ZM55.7186 -61.8251L-29.7997 -144.477L-115.318 -61.8251L-29.8002 20.7796L55.7186 -61.8251Z" fill="url(#paint12_linear)"/>
<path d="M72.9896 131.584L88.2924 146.373L72.9896 161.163L57.6868 146.373L72.9896 131.584ZM87.7511 146.516L72.9896 132.249L58.2281 146.516L72.9896 160.783L87.7511 146.516Z" fill="#FFA200"/>
<path d="M72.9896 131.584L88.2924 146.373L72.9896 161.163L57.6868 146.373L72.9896 131.584ZM87.7511 146.516L72.9896 132.249L58.2281 146.516L72.9896 160.783L87.7511 146.516Z" fill="url(#paint13_linear)"/>
<path d="M-24.7309 84.3134L-9.4281 99.1983L-24.7309 113.988L-40.0336 99.1983L-24.7309 84.3134ZM-9.96936 99.2458L-24.7309 84.9791L-39.4924 99.2458L-24.7309 113.513L-9.96936 99.2458Z" fill="#FFA200"/>
<path d="M-24.7309 84.3134L-9.4281 99.1983L-24.7309 113.988L-40.0336 99.1983L-24.7309 84.3134ZM-9.96936 99.2458L-24.7309 84.9791L-39.4924 99.2458L-24.7309 113.513L-9.96936 99.2458Z" fill="url(#paint14_linear)"/>
<path d="M63.9859 20.7796L111.026 66.2429L64.3783 111.706L16.9459 66.2429L63.9859 20.7796ZM110.632 66.338L63.9859 21.2552L17.3395 66.338L63.9859 111.421L110.632 66.338Z" fill="#FFA200"/>
<path d="M63.9859 20.7796L111.026 66.2429L64.3783 111.706L16.9459 66.2429L63.9859 20.7796ZM110.632 66.338L63.9859 21.2552L17.3395 66.338L63.9859 111.421L110.632 66.338Z" fill="url(#paint15_linear)"/>
<path d="M-123.583 111.468L-76.5432 156.931L-123.583 202.632L-170.771 157.026L-123.583 111.468ZM-76.9369 157.026L-123.583 111.943L-170.23 157.026L-123.583 202.109L-76.9369 157.026Z" fill="#FFA200"/>
<path d="M-123.583 111.468L-76.5432 156.931L-123.583 202.632L-170.771 157.026L-123.583 111.468ZM-76.9369 157.026L-123.583 111.943L-170.23 157.026L-123.583 202.109L-76.9369 157.026Z" fill="url(#paint16_linear)"/>
<path d="M-76.6925 156.788L-29.8002 202.633L-76.6925 248L-123.831 202.347L-76.6925 156.788ZM-30.0462 202.394L-76.6925 157.311L-123.339 202.347L-76.6925 247.429L-30.0462 202.394Z" fill="#FFA200"/>
<path d="M-76.6925 156.788L-29.8002 202.633L-76.6925 248L-123.831 202.347L-76.6925 156.788ZM-30.0462 202.394L-76.6925 157.311L-123.339 202.347L-76.6925 247.429L-30.0462 202.394Z" fill="url(#paint17_linear)"/>
<path d="M-184.697 81.8879L-200 96.6777L-184.697 111.468L-169.395 96.6777L-184.697 81.8879ZM-199.459 96.8204L-184.697 82.5537L-169.936 96.8204L-184.697 111.087L-199.459 96.8204Z" fill="#FFA200"/>
<path d="M-184.697 81.8879L-200 96.6777L-184.697 111.468L-169.395 96.6777L-184.697 81.8879ZM-199.459 96.8204L-184.697 82.5537L-169.936 96.8204L-184.697 111.087L-199.459 96.8204Z" fill="url(#paint18_linear)"/>
<defs>
<linearGradient id="paint0_linear" x1="177.131" y1="-76.4066" x2="-78.1653" y2="199.073" gradientUnits="userSpaceOnUse">
<stop stop-color="white"/>
<stop offset="1" stop-color="white" stop-opacity="0"/>
</linearGradient>
<linearGradient id="paint1_linear" x1="177.131" y1="-76.4066" x2="-78.1653" y2="199.073" gradientUnits="userSpaceOnUse">
<stop stop-color="white"/>
<stop offset="1" stop-color="white" stop-opacity="0"/>
</linearGradient>
<linearGradient id="paint2_linear" x1="177.131" y1="-76.4066" x2="-78.1653" y2="199.073" gradientUnits="userSpaceOnUse">
<stop stop-color="white"/>
<stop offset="1" stop-color="white" stop-opacity="0"/>
</linearGradient>
<linearGradient id="paint3_linear" x1="177.131" y1="-76.4066" x2="-78.1653" y2="199.073" gradientUnits="userSpaceOnUse">
<stop stop-color="white"/>
<stop offset="1" stop-color="white" stop-opacity="0"/>
</linearGradient>
<linearGradient id="paint4_linear" x1="177.131" y1="-76.4066" x2="-78.1653" y2="199.073" gradientUnits="userSpaceOnUse">
<stop stop-color="white"/>
<stop offset="1" stop-color="white" stop-opacity="0"/>
</linearGradient>
<linearGradient id="paint5_linear" x1="177.131" y1="-76.4066" x2="-78.1653" y2="199.073" gradientUnits="userSpaceOnUse">
<stop stop-color="white"/>
<stop offset="1" stop-color="white" stop-opacity="0"/>
</linearGradient>
<linearGradient id="paint6_linear" x1="177.131" y1="-76.4066" x2="-78.1653" y2="199.073" gradientUnits="userSpaceOnUse">
<stop stop-color="white"/>
<stop offset="1" stop-color="white" stop-opacity="0"/>
</linearGradient>
<linearGradient id="paint7_linear" x1="177.131" y1="-76.4066" x2="-78.1653" y2="199.073" gradientUnits="userSpaceOnUse">
<stop stop-color="white"/>
<stop offset="1" stop-color="white" stop-opacity="0"/>
</linearGradient>
<linearGradient id="paint8_linear" x1="177.131" y1="-76.4066" x2="-78.1653" y2="199.073" gradientUnits="userSpaceOnUse">
<stop stop-color="white"/>
<stop offset="1" stop-color="white" stop-opacity="0"/>
</linearGradient>
<linearGradient id="paint9_linear" x1="177.131" y1="-76.4066" x2="-78.1653" y2="199.073" gradientUnits="userSpaceOnUse">
<stop stop-color="white"/>
<stop offset="1" stop-color="white" stop-opacity="0"/>
</linearGradient>
<linearGradient id="paint10_linear" x1="177.131" y1="-76.4066" x2="-78.1653" y2="199.073" gradientUnits="userSpaceOnUse">
<stop stop-color="white"/>
<stop offset="1" stop-color="white" stop-opacity="0"/>
</linearGradient>
<linearGradient id="paint11_linear" x1="177.131" y1="-76.4066" x2="-78.1653" y2="199.073" gradientUnits="userSpaceOnUse">
<stop stop-color="white"/>
<stop offset="1" stop-color="white" stop-opacity="0"/>
</linearGradient>
<linearGradient id="paint12_linear" x1="177.131" y1="-76.4066" x2="-78.1653" y2="199.073" gradientUnits="userSpaceOnUse">
<stop stop-color="white"/>
<stop offset="1" stop-color="white" stop-opacity="0"/>
</linearGradient>
<linearGradient id="paint13_linear" x1="177.131" y1="-76.4066" x2="-78.1653" y2="199.073" gradientUnits="userSpaceOnUse">
<stop stop-color="white"/>
<stop offset="1" stop-color="white" stop-opacity="0"/>
</linearGradient>
<linearGradient id="paint14_linear" x1="177.131" y1="-76.4066" x2="-78.1653" y2="199.073" gradientUnits="userSpaceOnUse">
<stop stop-color="white"/>
<stop offset="1" stop-color="white" stop-opacity="0"/>
</linearGradient>
<linearGradient id="paint15_linear" x1="177.131" y1="-76.4066" x2="-78.1653" y2="199.073" gradientUnits="userSpaceOnUse">
<stop stop-color="white"/>
<stop offset="1" stop-color="white" stop-opacity="0"/>
</linearGradient>
<linearGradient id="paint16_linear" x1="177.131" y1="-76.4066" x2="-78.1653" y2="199.073" gradientUnits="userSpaceOnUse">
<stop stop-color="white"/>
<stop offset="1" stop-color="white" stop-opacity="0"/>
</linearGradient>
<linearGradient id="paint17_linear" x1="177.131" y1="-76.4066" x2="-78.1653" y2="199.073" gradientUnits="userSpaceOnUse">
<stop stop-color="white"/>
<stop offset="1" stop-color="white" stop-opacity="0"/>
</linearGradient>
<linearGradient id="paint18_linear" x1="177.131" y1="-76.4066" x2="-78.1653" y2="199.073" gradientUnits="userSpaceOnUse">
<stop stop-color="white"/>
<stop offset="1" stop-color="white" stop-opacity="0"/>
</linearGradient>
</defs>
</svg>
