<svg width="23" height="23" viewBox="0 0 23 23" fill="none" xmlns="http://www.w3.org/2000/svg">
<g clip-path="url(#clip0)">
<path d="M18.0169 12.9297C19.0737 12.9297 19.9336 13.7895 19.9336 14.8464C19.9336 15.9032 19.0738 16.7631 18.0169 16.7631C16.9601 16.7631 16.1002 15.9032 16.1002 14.8464C16.1002 13.7895 16.96 12.9297 18.0169 12.9297ZM18.0169 15.9964C18.6509 15.9964 19.1669 15.4804 19.1669 14.8464C19.1669 14.2123 18.6509 13.6964 18.0169 13.6964C17.3829 13.6964 16.8669 14.2123 16.8669 14.8464C16.8669 15.4804 17.3829 15.9964 18.0169 15.9964Z" fill="#FFA200"/>
<path d="M0.383318 12.9297V10.6297C0.383318 10.4649 0.48875 10.3181 0.645527 10.266L2.80829 9.54492C3.62286 8.16532 4.74258 6.85239 7.21701 6.41885C7.2216 6.41808 7.22622 6.41732 7.2308 6.41656C11.8005 5.78482 15.2313 6.8156 17.434 9.48131C19.0735 9.50507 20.7472 9.84778 21.7315 10.478C22.2414 10.8046 22.5438 11.3731 22.5722 11.978L22.6167 12.9298C22.8283 12.9298 23 13.1015 23 13.3131V14.8464C23 15.058 22.8283 15.2297 22.6167 15.2297H21.0834C20.8706 15.2297 20.7004 15.0549 20.7 14.8422C20.7 14.8403 20.6996 14.8384 20.6996 14.836C20.6939 13.3591 19.4952 12.1631 18.0167 12.1631C16.5347 12.1631 15.3334 13.3644 15.3334 14.8464C15.3609 15.0791 15.1773 15.2297 14.95 15.2297H8.05004C7.83729 15.2297 7.66709 15.0549 7.66673 14.8421C7.66673 14.8402 7.66637 14.8383 7.66637 14.836C7.66062 13.359 6.46192 12.163 4.98341 12.163C3.50144 12.163 2.30009 13.3644 2.30009 14.8463C2.32767 15.079 2.14408 15.2296 1.91677 15.2296H0.383453C0.171871 15.2296 0.000133514 15.0579 0.000133514 14.8463V13.313C0 13.1015 0.171736 12.9297 0.383318 12.9297ZM10.7333 9.2881C10.7333 9.39389 10.8192 9.47978 10.925 9.47978H15.924C16.1011 9.47978 16.1816 9.26204 16.0509 9.14282C14.7208 7.93033 13.0291 7.23688 10.9445 7.05252C10.8322 7.04254 10.7333 7.13302 10.7333 7.24572V9.2881ZM6.12797 9.28998C6.12914 9.39501 6.21463 9.47973 6.31965 9.47973H9.775C9.88079 9.47973 9.96668 9.39389 9.96668 9.28805V7.19505C9.96668 7.08886 9.88196 7.00148 9.77617 7.00148C9.01182 7.00072 8.20296 7.05629 7.34315 7.17515C6.93374 7.24721 6.56884 7.34613 6.23686 7.46764C6.16059 7.49563 6.11189 7.56961 6.11265 7.65088L6.12797 9.28998ZM4.12733 9.47973H5.16961C5.27616 9.47973 5.36241 9.39272 5.36129 9.28617L5.35132 8.24735C5.34979 8.08904 5.16925 8.00315 5.04158 8.09668C4.62718 8.3995 4.28258 8.76022 3.97554 9.16964C3.87972 9.29726 3.9679 9.47973 4.12733 9.47973Z" fill="#FFA200"/>
<path d="M4.98371 12.9297C6.04054 12.9297 6.90039 13.7895 6.90039 14.8464C6.90039 15.9032 6.04059 16.7631 4.98371 16.7631C3.92688 16.7631 3.06703 15.9032 3.06703 14.8464C3.06707 13.7895 3.92688 12.9297 4.98371 12.9297ZM4.98371 15.9964C5.61774 15.9964 6.13371 15.4804 6.13371 14.8464C6.13371 14.2123 5.61774 13.6964 4.98371 13.6964C4.34968 13.6964 3.83371 14.2123 3.83371 14.8464C3.83371 15.4804 4.34968 15.9964 4.98371 15.9964Z" fill="#FFA200"/>
</g>
<defs>
<clipPath id="clip0">
<rect width="23" height="23" fill="white" transform="matrix(-1 0 0 1 23 0)"/>
</clipPath>
</defs>
</svg>
