<svg width="19" height="19" viewBox="0 0 19 19" fill="none" xmlns="http://www.w3.org/2000/svg">
<g clip-path="url(#clip0)">
<path d="M17.3134 4.64592C17.1583 3.12925 16.9112 1.94836 16.5202 1.4842C14.9082 -0.424286 3.61613 -0.563951 2.33404 1.4842C2.02042 1.986 1.80047 3.1627 1.65286 4.64843C1.17657 4.70446 0.805664 5.10548 0.805664 5.5964V7.45429C0.805664 7.86744 1.06743 8.21577 1.43291 8.35167C1.34635 11.278 1.4166 14.331 1.54623 15.8493C1.54623 17.0214 2.33363 16.827 2.33363 16.827H3.07168V18.0923C3.07168 18.5941 3.58895 19.0002 4.22622 19.0002C4.86434 19.0002 5.3816 18.5941 5.3816 18.0923V16.827H13.9681V18.0923C13.9681 18.5941 14.485 19.0002 15.1231 19.0002C15.7604 19.0002 16.2776 18.5941 16.2776 18.0923V16.827H16.5202C16.5202 16.827 17.4468 16.9541 17.5062 16.4021C17.5062 14.8879 17.6015 11.5322 17.5229 8.36463C17.9114 8.24295 18.1949 7.885 18.1949 7.45429V5.5964C18.1953 5.09377 17.8064 4.68607 17.3134 4.64592ZM5.09182 1.75643H13.7624V3.0682H5.09182V1.75643ZM5.21559 15.3329C4.53483 15.3329 3.98327 14.7809 3.98327 14.1001C3.98327 13.4198 4.53483 12.8682 5.21559 12.8682C5.89636 12.8682 6.44833 13.4198 6.44833 14.1001C6.44833 14.7809 5.89678 15.3329 5.21559 15.3329ZM13.716 15.3329C13.0356 15.3329 12.4828 14.7809 12.4828 14.1001C12.4828 13.4198 13.0352 12.8682 13.716 12.8682C14.3967 12.8682 14.9483 13.4198 14.9483 14.1001C14.9487 14.7809 14.3967 15.3329 13.716 15.3329ZM15.2828 9.93859H3.57138V3.7958H15.2828V9.93859Z" fill="#FFA200"/>
</g>
<defs>
<clipPath id="clip0">
<rect width="19" height="19" fill="white"/>
</clipPath>
</defs>
</svg>
