<svg width="17" height="22" viewBox="0 0 17 22" fill="none" xmlns="http://www.w3.org/2000/svg">
<path d="M16.8881 20.6039L13.7308 14.7309C14.6261 14.5864 15.2858 13.7681 15.2858 12.8534V4.18815C15.2858 1.87746 13.448 0 11.186 0H5.81392C3.55197 0 1.66702 1.87746 1.66702 4.23632V12.8534C1.66702 13.8162 2.32675 14.5864 3.22211 14.7309L0.111929 20.6039C-0.123691 21.0853 0.0176807 21.663 0.48892 21.9037C0.630292 22 0.771663 22 0.913035 22C1.2429 22 1.57277 21.8074 1.71414 21.5186L1.99689 21.0372H15.0031L15.2858 21.5186C15.4743 21.8556 15.757 22 16.0869 22C16.2283 22 16.3696 21.9519 16.5111 21.9037C16.9823 21.663 17.1237 21.0853 16.8881 20.6039ZM12.4584 16.2713H4.54158L5.34268 14.779H11.6573L12.4584 16.2713ZM12.3171 13.046C11.5631 13.046 10.9504 12.4201 10.9504 11.6499C10.9504 10.8796 11.563 10.2538 12.3171 10.2538C13.071 10.2538 13.6837 10.8796 13.6837 11.6499C13.6836 12.372 13.071 13.046 12.3171 13.046ZM3.31635 4.76586C3.31635 3.27352 4.49445 2.07002 5.90817 2.07002H11.0447C12.4584 2.07002 13.6836 3.27352 13.6836 4.76586V7.07659C13.6836 7.60613 13.2595 7.99125 12.7411 7.99125H4.25883C3.74047 7.99125 3.36348 7.55799 3.36348 7.07659L3.31635 4.76586ZM4.68295 10.2057C5.43693 10.2057 6.04954 10.8315 6.04954 11.6018C6.04954 12.372 5.43693 12.9979 4.68295 12.9979C3.92897 12.9979 3.31635 12.372 3.31635 11.6018C3.31635 10.8315 3.929 10.2057 4.68295 10.2057ZM2.7509 19.593L3.78763 17.7155H13.2124L14.2491 19.593H2.7509Z" fill="#FFA200"/>
</svg>
