<svg width="19" height="19" viewBox="0 0 19 19" fill="none" xmlns="http://www.w3.org/2000/svg">
<g clip-path="url(#clip0)">
<path d="M14.9168 9.60741L12.6051 8.27332C12.4568 8.18783 12.2777 7.9602 12.2294 7.79597L11.5134 5.35971C11.4956 5.29877 11.4686 5.24437 11.4355 5.19651C11.3314 5.00508 11.1307 4.875 10.8982 4.875L7.84162 5.00692C7.70766 5.01264 7.5831 5.06336 7.48105 5.14742C7.4606 5.1599 7.43933 5.17196 7.42092 5.18608L5.34401 6.78789C5.1041 6.97298 4.96973 7.3493 5.03845 7.64442L5.86083 11.1826C5.92935 11.478 6.21199 11.7009 6.51775 11.7009C6.53841 11.7009 6.55927 11.6999 6.57993 11.6978L6.88691 11.6671C7.05135 11.6506 7.19983 11.5671 7.29391 11.4379C7.3882 11.3086 7.42235 11.1417 7.38779 10.9802L6.80306 8.24878C6.77238 8.10541 6.8501 7.89332 6.96627 7.80395L7.33625 7.51905L7.52645 11.9048C7.52666 11.9095 7.52809 11.9138 7.5285 11.9185L6.68423 13.7911C6.57788 14.0269 6.31078 14.3535 6.10094 14.5047L4.12158 15.9298C3.80274 16.1592 3.68227 16.6182 3.84712 16.9749L4.1179 17.56C4.22589 17.7934 4.44248 17.9384 4.6834 17.9384C4.82125 17.9384 4.95685 17.8915 5.07547 17.8034L7.68884 15.8574C7.9492 15.6635 8.27029 15.2861 8.4198 14.998L9.72444 12.4852C9.73487 12.465 9.74141 12.4433 9.75 12.4222L9.84102 12.4183L11.9764 18.3057C12.1272 18.7213 12.5292 19.0007 12.9769 19.0007C13.0833 19.0007 13.1884 18.9845 13.2894 18.9524L13.4212 18.9105C13.6821 18.8276 13.8918 18.6483 14.0116 18.4053C14.1313 18.1623 14.1458 17.8866 14.0525 17.6293L11.8038 11.4301C11.7934 11.4015 11.7791 11.3753 11.7666 11.3481L11.6944 9.68452L14.1736 10.9724C14.2607 11.0178 14.3589 11.0417 14.4577 11.0417C14.6871 11.0417 14.8972 10.9176 15.0058 10.7178L15.1532 10.4462C15.3136 10.1514 15.2074 9.77512 14.9168 9.60741Z" fill="#FFA200"/>
<path d="M9.03144 4.43265C9.06355 4.43265 9.09607 4.43204 9.12859 4.4306C9.71986 4.40504 10.2659 4.15041 10.666 3.71417C11.066 3.27792 11.2722 2.71181 11.2466 2.12054C11.1938 0.899345 10.1733 -0.0508595 8.93655 0.00211145C8.34528 0.0276766 7.79921 0.282305 7.39916 0.718548C6.99912 1.155 6.79296 1.72091 6.81853 2.31218C6.87007 3.50126 7.84216 4.43265 9.03144 4.43265Z" fill="#FFA200"/>
</g>
<defs>
<clipPath id="clip0">
<rect width="19" height="19" fill="white"/>
</clipPath>
</defs>
</svg>
