<svg width="5" height="9" viewBox="0 0 5 9" fill="none" xmlns="http://www.w3.org/2000/svg">
<path d="M4.42969 8.32031C4.3776 8.3724 4.31771 8.39844 4.25 8.39844C4.18229 8.39844 4.1224 8.3724 4.07031 8.32031L0.429688 4.67969C0.377604 4.6276 0.351563 4.56771 0.351563 4.5C0.351563 4.43229 0.377604 4.3724 0.429688 4.32031L4.07031 0.679688C4.1224 0.627604 4.18229 0.601563 4.25 0.601563C4.31771 0.601563 4.3776 0.627604 4.42969 0.679688L4.82031 1.07031C4.8724 1.1224 4.89844 1.18229 4.89844 1.25C4.89844 1.31771 4.8724 1.3776 4.82031 1.42969L1.75 4.5L4.82031 7.57031C4.8724 7.6224 4.89844 7.68229 4.89844 7.75C4.89844 7.81771 4.8724 7.8776 4.82031 7.92969L4.42969 8.32031Z" fill="white"/>
</svg>
