<svg width="15" height="15" viewBox="0 0 15 15" fill="none" xmlns="http://www.w3.org/2000/svg">
<path d="M11 7.5C11 7.04037 10.9095 6.58525 10.7336 6.16061C10.5577 5.73597 10.2999 5.35013 9.97487 5.02513C9.64987 4.70012 9.26403 4.44231 8.83939 4.26642C8.41475 4.09053 7.95963 4 7.5 4L7.5 7.5H11Z" fill="black"/>
<path d="M10.159 4.84121C9.48444 4.16661 8.53206 3.7301 7.50031 3.7301C6.46856 3.7301 5.51618 4.14677 4.84158 4.84121C4.16698 5.51582 3.73047 6.4682 3.73047 7.49994C3.73047 8.53169 4.16698 9.48407 4.84158 10.1587C5.51618 10.8333 6.46856 11.2698 7.50031 11.2698C8.53206 11.2698 9.48444 10.8531 10.159 10.1587C10.8336 9.48407 11.2702 8.53169 11.2702 7.49994C11.2702 6.4682 10.8535 5.51582 10.159 4.84121ZM9.44475 9.44439C8.94872 9.94042 8.25428 10.238 7.50031 10.238C6.74634 10.238 6.0519 9.94042 5.55587 9.44439C5.05983 8.94836 4.76221 8.25391 4.76221 7.49994C4.76221 6.74598 5.05983 6.05153 5.55587 5.5555C6.0519 5.05947 6.74634 4.76185 7.50031 4.76185C8.25428 4.76185 8.94872 5.05947 9.44475 5.5555C9.94079 6.05153 10.2384 6.74598 10.2384 7.49994C10.2384 8.25391 9.94079 8.94836 9.44475 9.44439Z" fill="black"/>
<path d="M14.4841 6.98413H12.9563C12.6785 6.98413 12.4404 7.22223 12.4404 7.5C12.4404 7.77778 12.6785 8.01588 12.9563 8.01588H14.4841C14.7619 8.01588 15 7.77778 15 7.5C15 7.22223 14.7619 6.98413 14.4841 6.98413Z" fill="black"/>
<path d="M7.50025 12.4404C7.22247 12.4404 6.98438 12.6785 6.98438 12.9563V14.4841C6.98438 14.7619 7.22247 15 7.50025 15C7.77803 15 8.01612 14.7619 8.01612 14.4841V12.9563C8.01612 12.6785 7.77803 12.4404 7.50025 12.4404Z" fill="black"/>
<path d="M12.7981 12.0833L11.7068 10.9921C11.5283 10.7937 11.191 10.7937 10.9926 10.9921C10.7941 11.1905 10.7941 11.5079 10.9926 11.7064L12.0838 12.7976C12.2822 12.996 12.5997 12.996 12.7981 12.7976C12.9965 12.5992 12.9965 12.2818 12.7981 12.0833Z" fill="black"/>
<path d="M7.50025 0C7.22247 0 6.98438 0.238095 6.98438 0.515873V2.04365C6.98438 2.32143 7.22247 2.55952 7.50025 2.55952C7.77803 2.55952 8.01612 2.32143 8.01612 2.04365V0.515873C8.01612 0.238095 7.77803 0 7.50025 0Z" fill="black"/>
<path d="M12.8176 2.2024C12.6192 2.00399 12.3018 2.00399 12.1034 2.2024L11.0121 3.29367C10.8137 3.49208 10.8137 3.80954 11.0121 4.00795C11.1907 4.20637 11.528 4.20637 11.7264 4.00795L12.8176 2.91668C13.0161 2.71827 13.0161 2.40081 12.8176 2.2024Z" fill="black"/>
<path d="M2.04365 6.98413H0.515873C0.238095 6.98413 0 7.22223 0 7.5C0 7.77778 0.218254 8.01588 0.515873 8.01588H2.04365C2.32143 8.01588 2.55952 7.77778 2.55952 7.5C2.55952 7.22223 2.32143 6.98413 2.04365 6.98413Z" fill="black"/>
<path d="M3.98757 10.9921C3.809 10.7937 3.47169 10.7937 3.27328 10.9921L2.18201 12.0833C1.9836 12.2818 1.9836 12.5992 2.18201 12.7976C2.38043 12.996 2.69789 12.996 2.8963 12.7976L3.98757 11.7064C4.18598 11.5079 4.18598 11.1905 3.98757 10.9921Z" fill="black"/>
<path d="M3.98757 3.29367L2.8963 2.2024C2.69789 2.00399 2.38043 2.00399 2.18201 2.2024C1.9836 2.40081 1.9836 2.71827 2.18201 2.91668L3.27328 4.00795C3.47169 4.20637 3.78915 4.20637 3.98757 4.00795C4.18598 3.80954 4.18598 3.49208 3.98757 3.29367Z" fill="black"/>
</svg>
