<svg width="352" height="188" viewBox="0 0 352 188" fill="none" xmlns="http://www.w3.org/2000/svg">
<path d="M129.2 103.78L223.378 194.706L129.2 285.633L35.1691 194.706L129.2 103.78ZM222.689 194.706L129.2 104.35L35.7103 194.706L129.2 285.062L222.689 194.706Z" fill="#FFA200"/>
<path d="M129.2 103.78L223.378 194.706L129.2 285.633L35.1691 194.706L129.2 103.78ZM222.689 194.706L129.2 104.35L35.7103 194.706L129.2 285.062L222.689 194.706Z" fill="url(#paint0_linear)"/>
<path d="M176.094 58.4588L223.38 104.065L176.34 149.528L129.3 104.065L176.094 58.4588ZM222.74 104.065L176.094 58.9819L129.447 104.065L176.094 149.147L222.74 104.065Z" fill="#FFA200"/>
<path d="M176.094 58.4588L223.38 104.065L176.34 149.528L129.3 104.065L176.094 58.4588ZM222.74 104.065L176.094 58.9819L129.447 104.065L176.094 149.147L222.74 104.065Z" fill="url(#paint1_linear)"/>
<path d="M199.466 35.9174L222.986 58.649L199.466 81.3806L175.946 58.649L199.466 35.9174ZM222.543 58.7441L199.466 36.4405L176.389 58.7441L199.466 81.0477L222.543 58.7441Z" fill="#FFA200"/>
<path d="M199.466 35.9174L222.986 58.649L199.466 81.3806L175.946 58.649L199.466 35.9174ZM222.543 58.7441L199.466 36.4405L176.389 58.7441L199.466 81.0477L222.543 58.7441Z" fill="url(#paint2_linear)"/>
<path d="M222.838 58.4588L246.358 81.1904L222.838 104.16L199.22 81.3331L222.838 58.4588ZM245.915 81.2855L222.838 58.9819L199.712 81.3331L222.789 103.637L245.915 81.2855Z" fill="#FFA200"/>
<path d="M222.838 58.4588L246.358 81.1904L222.838 104.16L199.22 81.3331L222.838 58.4588ZM245.915 81.2855L222.838 58.9819L199.712 81.3331L222.789 103.637L245.915 81.2855Z" fill="url(#paint3_linear)"/>
<path d="M35.5626 149.29L59.0826 172.021L35.5626 194.753L11.7966 172.116L35.5626 149.29ZM58.6398 172.116L35.5626 149.813L12.4855 172.116L35.5626 194.42L58.6398 172.116Z" fill="#FFA200"/>
<path d="M35.5626 149.29L59.0826 172.021L35.5626 194.753L11.7966 172.116L35.5626 149.29ZM58.6398 172.116L35.5626 149.813L12.4855 172.116L35.5626 194.42L58.6398 172.116Z" fill="url(#paint4_linear)"/>
<path d="M58.9362 126.51L82.4562 149.242L58.9362 171.973L35.4162 149.242L58.9362 126.51ZM82.0134 149.337L58.9362 127.033L35.859 149.337L58.9362 171.641L82.0134 149.337Z" fill="#FFA200"/>
<path d="M58.9362 126.51L82.4562 149.242L58.9362 171.973L35.4162 149.242L58.9362 126.51ZM82.0134 149.337L58.9362 127.033L35.859 149.337L58.9362 171.641L82.0134 149.337Z" fill="url(#paint5_linear)"/>
<path d="M269.879 103.921L293.399 126.653L269.879 149.385L246.359 126.653L269.879 103.921ZM292.956 126.748L269.879 104.445L246.801 126.748L269.879 149.052L292.956 126.748Z" fill="#FFA200"/>
<path d="M269.879 103.921L293.399 126.653L269.879 149.385L246.359 126.653L269.879 103.921ZM292.956 126.748L269.879 104.445L246.801 126.748L269.879 149.052L292.956 126.748Z" fill="url(#paint6_linear)"/>
<path d="M269.877 149.099L283.704 162.463L269.877 175.826L256.051 162.463L269.877 149.099ZM283.31 162.605L269.877 149.622L256.445 162.605L269.877 175.588L283.31 162.605Z" fill="#FFA200"/>
<path d="M269.877 149.099L283.704 162.463L269.877 175.826L256.051 162.463L269.877 149.099ZM283.31 162.605L269.877 149.622L256.445 162.605L269.877 175.588L283.31 162.605Z" fill="url(#paint7_linear)"/>
<path d="M338.173 107.726L352 121.089L338.173 134.452L324.248 121.232L338.173 107.726ZM351.606 121.232L338.173 108.249L324.74 121.232L338.173 134.215L351.606 121.232Z" fill="#FFA200"/>
<path d="M338.173 107.726L352 121.089L338.173 134.452L324.248 121.232L338.173 107.726ZM351.606 121.232L338.173 108.249L324.74 121.232L338.173 134.215L351.606 121.232Z" fill="url(#paint8_linear)"/>
<path d="M82.3075 58.4588L129.348 103.922L82.3075 149.385L35.2675 103.922L82.3075 58.4588ZM128.954 104.065L82.3075 58.9819L35.6612 104.065L82.3075 149.147L128.954 104.065Z" fill="#FFA200"/>
<path d="M82.3075 58.4588L129.348 103.922L82.3075 149.385L35.2675 103.922L82.3075 58.4588ZM128.954 104.065L82.3075 58.9819L35.6612 104.065L82.3075 149.147L128.954 104.065Z" fill="url(#paint9_linear)"/>
<path d="M35.4167 13.1382L82.4568 58.6014L35.4167 104.302L-11.7708 58.7441L35.4167 13.1382ZM82.0631 58.6965L35.4167 13.6613L-11.2296 58.7441L35.4167 103.827L82.0631 58.6965Z" fill="#FFA200"/>
<path d="M35.4167 13.1382L82.4568 58.6014L35.4167 104.302L-11.7708 58.7441L35.4167 13.1382ZM82.0631 58.6965L35.4167 13.6613L-11.2296 58.7441L35.4167 103.827L82.0631 58.6965Z" fill="url(#paint10_linear)"/>
<path d="M12.0434 81.1907L59.0834 126.654L12.0434 172.117L-35.095 126.797L12.0434 81.1907ZM58.6898 126.797L12.0434 81.7138L-34.5538 126.797L12.0926 171.879L58.6898 126.797Z" fill="#FFA200"/>
<path d="M12.0434 81.1907L59.0834 126.654L12.0434 172.117L-35.095 126.797L12.0434 81.1907ZM58.6898 126.797L12.0434 81.7138L-34.5538 126.797L12.0926 171.879L58.6898 126.797Z" fill="url(#paint11_linear)"/>
<path d="M129.2 -62L215.26 21.1749L129.2 104.302L43.1407 21.1749L129.2 -62ZM214.719 21.1749L129.2 -61.4769L43.682 21.1749L129.2 103.78L214.719 21.1749Z" fill="#FFA200"/>
<path d="M129.2 -62L215.26 21.1749L129.2 104.302L43.1407 21.1749L129.2 -62ZM214.719 21.1749L129.2 -61.4769L43.682 21.1749L129.2 103.78L214.719 21.1749Z" fill="url(#paint12_linear)"/>
<path d="M231.99 214.584L247.292 229.373L231.99 244.163L216.687 229.373L231.99 214.584ZM246.751 229.516L231.99 215.249L217.228 229.516L231.99 243.783L246.751 229.516Z" fill="#FFA200"/>
<path d="M231.99 214.584L247.292 229.373L231.99 244.163L216.687 229.373L231.99 214.584ZM246.751 229.516L231.99 215.249L217.228 229.516L231.99 243.783L246.751 229.516Z" fill="url(#paint13_linear)"/>
<path d="M134.269 167.313L149.572 182.198L134.269 196.988L118.966 182.198L134.269 167.313ZM149.031 182.246L134.269 167.979L119.508 182.246L134.269 196.513L149.031 182.246Z" fill="#FFA200"/>
<path d="M134.269 167.313L149.572 182.198L134.269 196.988L118.966 182.198L134.269 167.313ZM149.031 182.246L134.269 167.979L119.508 182.246L134.269 196.513L149.031 182.246Z" fill="url(#paint14_linear)"/>
<path d="M222.986 103.78L270.026 149.243L223.378 194.706L175.946 149.243L222.986 103.78ZM269.632 149.338L222.986 104.255L176.34 149.338L222.986 194.421L269.632 149.338Z" fill="#FFA200"/>
<path d="M222.986 103.78L270.026 149.243L223.378 194.706L175.946 149.243L222.986 103.78ZM269.632 149.338L222.986 104.255L176.34 149.338L222.986 194.421L269.632 149.338Z" fill="url(#paint15_linear)"/>
<path d="M35.4167 194.468L82.4568 239.931L35.4167 285.632L-11.7708 240.026L35.4167 194.468ZM82.0631 240.026L35.4167 194.943L-11.2296 240.026L35.4167 285.109L82.0631 240.026Z" fill="#FFA200"/>
<path d="M35.4167 194.468L82.4568 239.931L35.4167 285.632L-11.7708 240.026L35.4167 194.468ZM82.0631 240.026L35.4167 194.943L-11.2296 240.026L35.4167 285.109L82.0631 240.026Z" fill="url(#paint16_linear)"/>
<path d="M82.3075 239.788L129.2 285.633L82.3075 331L35.1691 285.347L82.3075 239.788ZM128.954 285.394L82.3075 240.311L35.6611 285.347L82.3075 330.429L128.954 285.394Z" fill="#FFA200"/>
<path d="M82.3075 239.788L129.2 285.633L82.3075 331L35.1691 285.347L82.3075 239.788ZM128.954 285.394L82.3075 240.311L35.6611 285.347L82.3075 330.429L128.954 285.394Z" fill="url(#paint17_linear)"/>
<path d="M-25.6973 164.888L-41 179.678L-25.6973 194.468L-10.3945 179.678L-25.6973 164.888ZM-40.4588 179.82L-25.6973 165.554L-10.9358 179.82L-25.6973 194.087L-40.4588 179.82Z" fill="#FFA200"/>
<path d="M-25.6973 164.888L-41 179.678L-25.6973 194.468L-10.3945 179.678L-25.6973 164.888ZM-40.4588 179.82L-25.6973 165.554L-10.9358 179.82L-25.6973 194.087L-40.4588 179.82Z" fill="url(#paint18_linear)"/>
<defs>
<linearGradient id="paint0_linear" x1="336.131" y1="6.59343" x2="80.8347" y2="282.073" gradientUnits="userSpaceOnUse">
<stop stop-color="white"/>
<stop offset="1" stop-color="white" stop-opacity="0"/>
</linearGradient>
<linearGradient id="paint1_linear" x1="336.131" y1="6.59343" x2="80.8347" y2="282.073" gradientUnits="userSpaceOnUse">
<stop stop-color="white"/>
<stop offset="1" stop-color="white" stop-opacity="0"/>
</linearGradient>
<linearGradient id="paint2_linear" x1="336.131" y1="6.59343" x2="80.8347" y2="282.073" gradientUnits="userSpaceOnUse">
<stop stop-color="white"/>
<stop offset="1" stop-color="white" stop-opacity="0"/>
</linearGradient>
<linearGradient id="paint3_linear" x1="336.131" y1="6.59343" x2="80.8347" y2="282.073" gradientUnits="userSpaceOnUse">
<stop stop-color="white"/>
<stop offset="1" stop-color="white" stop-opacity="0"/>
</linearGradient>
<linearGradient id="paint4_linear" x1="336.131" y1="6.59343" x2="80.8347" y2="282.073" gradientUnits="userSpaceOnUse">
<stop stop-color="white"/>
<stop offset="1" stop-color="white" stop-opacity="0"/>
</linearGradient>
<linearGradient id="paint5_linear" x1="336.131" y1="6.59343" x2="80.8347" y2="282.073" gradientUnits="userSpaceOnUse">
<stop stop-color="white"/>
<stop offset="1" stop-color="white" stop-opacity="0"/>
</linearGradient>
<linearGradient id="paint6_linear" x1="336.131" y1="6.59343" x2="80.8347" y2="282.073" gradientUnits="userSpaceOnUse">
<stop stop-color="white"/>
<stop offset="1" stop-color="white" stop-opacity="0"/>
</linearGradient>
<linearGradient id="paint7_linear" x1="336.131" y1="6.59343" x2="80.8347" y2="282.073" gradientUnits="userSpaceOnUse">
<stop stop-color="white"/>
<stop offset="1" stop-color="white" stop-opacity="0"/>
</linearGradient>
<linearGradient id="paint8_linear" x1="336.131" y1="6.59343" x2="80.8347" y2="282.073" gradientUnits="userSpaceOnUse">
<stop stop-color="white"/>
<stop offset="1" stop-color="white" stop-opacity="0"/>
</linearGradient>
<linearGradient id="paint9_linear" x1="336.131" y1="6.59343" x2="80.8347" y2="282.073" gradientUnits="userSpaceOnUse">
<stop stop-color="white"/>
<stop offset="1" stop-color="white" stop-opacity="0"/>
</linearGradient>
<linearGradient id="paint10_linear" x1="336.131" y1="6.59343" x2="80.8347" y2="282.073" gradientUnits="userSpaceOnUse">
<stop stop-color="white"/>
<stop offset="1" stop-color="white" stop-opacity="0"/>
</linearGradient>
<linearGradient id="paint11_linear" x1="336.131" y1="6.59343" x2="80.8347" y2="282.073" gradientUnits="userSpaceOnUse">
<stop stop-color="white"/>
<stop offset="1" stop-color="white" stop-opacity="0"/>
</linearGradient>
<linearGradient id="paint12_linear" x1="336.131" y1="6.59343" x2="80.8347" y2="282.073" gradientUnits="userSpaceOnUse">
<stop stop-color="white"/>
<stop offset="1" stop-color="white" stop-opacity="0"/>
</linearGradient>
<linearGradient id="paint13_linear" x1="336.131" y1="6.59343" x2="80.8347" y2="282.073" gradientUnits="userSpaceOnUse">
<stop stop-color="white"/>
<stop offset="1" stop-color="white" stop-opacity="0"/>
</linearGradient>
<linearGradient id="paint14_linear" x1="336.131" y1="6.59343" x2="80.8347" y2="282.073" gradientUnits="userSpaceOnUse">
<stop stop-color="white"/>
<stop offset="1" stop-color="white" stop-opacity="0"/>
</linearGradient>
<linearGradient id="paint15_linear" x1="336.131" y1="6.59343" x2="80.8347" y2="282.073" gradientUnits="userSpaceOnUse">
<stop stop-color="white"/>
<stop offset="1" stop-color="white" stop-opacity="0"/>
</linearGradient>
<linearGradient id="paint16_linear" x1="336.131" y1="6.59343" x2="80.8347" y2="282.073" gradientUnits="userSpaceOnUse">
<stop stop-color="white"/>
<stop offset="1" stop-color="white" stop-opacity="0"/>
</linearGradient>
<linearGradient id="paint17_linear" x1="336.131" y1="6.59343" x2="80.8347" y2="282.073" gradientUnits="userSpaceOnUse">
<stop stop-color="white"/>
<stop offset="1" stop-color="white" stop-opacity="0"/>
</linearGradient>
<linearGradient id="paint18_linear" x1="336.131" y1="6.59343" x2="80.8347" y2="282.073" gradientUnits="userSpaceOnUse">
<stop stop-color="white"/>
<stop offset="1" stop-color="white" stop-opacity="0"/>
</linearGradient>
</defs>
</svg>
