<svg width="352" height="107" viewBox="0 0 352 107" fill="none" xmlns="http://www.w3.org/2000/svg">
<path d="M129.2 22.7796L223.378 113.706L129.2 204.633L35.1691 113.706L129.2 22.7796ZM222.689 113.706L129.2 23.3503L35.7103 113.706L129.2 204.062L222.689 113.706Z" fill="#FFA200"/>
<path d="M129.2 22.7796L223.378 113.706L129.2 204.633L35.1691 113.706L129.2 22.7796ZM222.689 113.706L129.2 23.3503L35.7103 113.706L129.2 204.062L222.689 113.706Z" fill="url(#paint0_linear)"/>
<path d="M176.094 -22.5412L223.38 23.0647L176.34 68.528L129.3 23.0647L176.094 -22.5412ZM222.74 23.0647L176.094 -22.0181L129.447 23.0647L176.094 68.1475L222.74 23.0647Z" fill="#FFA200"/>
<path d="M176.094 -22.5412L223.38 23.0647L176.34 68.528L129.3 23.0647L176.094 -22.5412ZM222.74 23.0647L176.094 -22.0181L129.447 23.0647L176.094 68.1475L222.74 23.0647Z" fill="url(#paint1_linear)"/>
<path d="M199.466 -45.0826L222.986 -22.351L199.466 0.38063L175.946 -22.351L199.466 -45.0826ZM222.543 -22.2559L199.466 -44.5595L176.389 -22.2559L199.466 0.0477448L222.543 -22.2559Z" fill="#FFA200"/>
<path d="M199.466 -45.0826L222.986 -22.351L199.466 0.38063L175.946 -22.351L199.466 -45.0826ZM222.543 -22.2559L199.466 -44.5595L176.389 -22.2559L199.466 0.0477448L222.543 -22.2559Z" fill="url(#paint2_linear)"/>
<path d="M222.838 -22.5412L246.358 0.19043L222.838 23.1598L199.22 0.333084L222.838 -22.5412ZM245.915 0.285538L222.838 -22.0181L199.712 0.333084L222.789 22.6367L245.915 0.285538Z" fill="#FFA200"/>
<path d="M222.838 -22.5412L246.358 0.19043L222.838 23.1598L199.22 0.333084L222.838 -22.5412ZM245.915 0.285538L222.838 -22.0181L199.712 0.333084L222.789 22.6367L245.915 0.285538Z" fill="url(#paint3_linear)"/>
<path d="M35.5626 68.2897L59.0826 91.0213L35.5626 113.753L11.7966 91.1164L35.5626 68.2897ZM58.6398 91.1164L35.5626 68.8128L12.4855 91.1164L35.5626 113.42L58.6398 91.1164Z" fill="#FFA200"/>
<path d="M35.5626 68.2897L59.0826 91.0213L35.5626 113.753L11.7966 91.1164L35.5626 68.2897ZM58.6398 91.1164L35.5626 68.8128L12.4855 91.1164L35.5626 113.42L58.6398 91.1164Z" fill="url(#paint4_linear)"/>
<path d="M58.9362 45.5102L82.4562 68.2418L58.9362 90.9735L35.4162 68.2418L58.9362 45.5102ZM82.0134 68.3369L58.9362 46.0333L35.859 68.3369L58.9362 90.6406L82.0134 68.3369Z" fill="#FFA200"/>
<path d="M58.9362 45.5102L82.4562 68.2418L58.9362 90.9735L35.4162 68.2418L58.9362 45.5102ZM82.0134 68.3369L58.9362 46.0333L35.859 68.3369L58.9362 90.6406L82.0134 68.3369Z" fill="url(#paint5_linear)"/>
<path d="M269.879 22.9214L293.399 45.653L269.879 68.3847L246.359 45.653L269.879 22.9214ZM292.956 45.7482L269.879 23.4445L246.801 45.7482L269.879 68.0518L292.956 45.7482Z" fill="#FFA200"/>
<path d="M269.879 22.9214L293.399 45.653L269.879 68.3847L246.359 45.653L269.879 22.9214ZM292.956 45.7482L269.879 23.4445L246.801 45.7482L269.879 68.0518L292.956 45.7482Z" fill="url(#paint6_linear)"/>
<path d="M269.877 68.0994L283.704 81.4625L269.877 94.8257L256.051 81.4625L269.877 68.0994ZM283.31 81.6052L269.877 68.6225L256.445 81.6052L269.877 94.5879L283.31 81.6052Z" fill="#FFA200"/>
<path d="M269.877 68.0994L283.704 81.4625L269.877 94.8257L256.051 81.4625L269.877 68.0994ZM283.31 81.6052L269.877 68.6225L256.445 81.6052L269.877 94.5879L283.31 81.6052Z" fill="url(#paint7_linear)"/>
<path d="M338.173 26.7261L352 40.0892L338.173 53.4524L324.248 40.2319L338.173 26.7261ZM351.606 40.2319L338.173 27.2492L324.74 40.2319L338.173 53.2146L351.606 40.2319Z" fill="#FFA200"/>
<path d="M338.173 26.7261L352 40.0892L338.173 53.4524L324.248 40.2319L338.173 26.7261ZM351.606 40.2319L338.173 27.2492L324.74 40.2319L338.173 53.2146L351.606 40.2319Z" fill="url(#paint8_linear)"/>
<path d="M82.3075 -22.5412L129.348 22.922L82.3075 68.3853L35.2675 22.922L82.3075 -22.5412ZM128.954 23.0647L82.3075 -22.0181L35.6612 23.0647L82.3075 68.1475L128.954 23.0647Z" fill="#FFA200"/>
<path d="M82.3075 -22.5412L129.348 22.922L82.3075 68.3853L35.2675 22.922L82.3075 -22.5412ZM128.954 23.0647L82.3075 -22.0181L35.6612 23.0647L82.3075 68.1475L128.954 23.0647Z" fill="url(#paint9_linear)"/>
<path d="M35.4167 -67.8618L82.4568 -22.3986L35.4167 23.3024L-11.7708 -22.2559L35.4167 -67.8618ZM82.0631 -22.3035L35.4167 -67.3387L-11.2296 -22.2559L35.4167 22.8269L82.0631 -22.3035Z" fill="#FFA200"/>
<path d="M35.4167 -67.8618L82.4568 -22.3986L35.4167 23.3024L-11.7708 -22.2559L35.4167 -67.8618ZM82.0631 -22.3035L35.4167 -67.3387L-11.2296 -22.2559L35.4167 22.8269L82.0631 -22.3035Z" fill="url(#paint10_linear)"/>
<path d="M12.0434 0.190674L59.0834 45.6539L12.0434 91.1171L-35.095 45.7966L12.0434 0.190674ZM58.6898 45.7966L12.0434 0.713791L-34.5538 45.7966L12.0926 90.8793L58.6898 45.7966Z" fill="#FFA200"/>
<path d="M12.0434 0.190674L59.0834 45.6539L12.0434 91.1171L-35.095 45.7966L12.0434 0.190674ZM58.6898 45.7966L12.0434 0.713791L-34.5538 45.7966L12.0926 90.8793L58.6898 45.7966Z" fill="url(#paint11_linear)"/>
<path d="M129.2 -143L215.26 -59.8251L129.2 23.3022L43.1407 -59.8251L129.2 -143ZM214.719 -59.8251L129.2 -142.477L43.682 -59.8251L129.2 22.7796L214.719 -59.8251Z" fill="#FFA200"/>
<path d="M129.2 -143L215.26 -59.8251L129.2 23.3022L43.1407 -59.8251L129.2 -143ZM214.719 -59.8251L129.2 -142.477L43.682 -59.8251L129.2 22.7796L214.719 -59.8251Z" fill="url(#paint12_linear)"/>
<path d="M231.99 133.584L247.292 148.373L231.99 163.163L216.687 148.373L231.99 133.584ZM246.751 148.516L231.99 134.249L217.228 148.516L231.99 162.783L246.751 148.516Z" fill="#FFA200"/>
<path d="M231.99 133.584L247.292 148.373L231.99 163.163L216.687 148.373L231.99 133.584ZM246.751 148.516L231.99 134.249L217.228 148.516L231.99 162.783L246.751 148.516Z" fill="url(#paint13_linear)"/>
<path d="M134.269 86.3134L149.572 101.198L134.269 115.988L118.966 101.198L134.269 86.3134ZM149.031 101.246L134.269 86.9791L119.508 101.246L134.269 115.513L149.031 101.246Z" fill="#FFA200"/>
<path d="M134.269 86.3134L149.572 101.198L134.269 115.988L118.966 101.198L134.269 86.3134ZM149.031 101.246L134.269 86.9791L119.508 101.246L134.269 115.513L149.031 101.246Z" fill="url(#paint14_linear)"/>
<path d="M222.986 22.7796L270.026 68.2429L223.378 113.706L175.946 68.2429L222.986 22.7796ZM269.632 68.338L222.986 23.2552L176.34 68.338L222.986 113.421L269.632 68.338Z" fill="#FFA200"/>
<path d="M222.986 22.7796L270.026 68.2429L223.378 113.706L175.946 68.2429L222.986 22.7796ZM269.632 68.338L222.986 23.2552L176.34 68.338L222.986 113.421L269.632 68.338Z" fill="url(#paint15_linear)"/>
<path d="M35.4167 113.468L82.4568 158.931L35.4167 204.632L-11.7708 159.026L35.4167 113.468ZM82.0631 159.026L35.4167 113.943L-11.2296 159.026L35.4167 204.109L82.0631 159.026Z" fill="#FFA200"/>
<path d="M35.4167 113.468L82.4568 158.931L35.4167 204.632L-11.7708 159.026L35.4167 113.468ZM82.0631 159.026L35.4167 113.943L-11.2296 159.026L35.4167 204.109L82.0631 159.026Z" fill="url(#paint16_linear)"/>
<path d="M82.3075 158.788L129.2 204.633L82.3075 250L35.1691 204.347L82.3075 158.788ZM128.954 204.394L82.3075 159.311L35.6611 204.347L82.3075 249.429L128.954 204.394Z" fill="#FFA200"/>
<path d="M82.3075 158.788L129.2 204.633L82.3075 250L35.1691 204.347L82.3075 158.788ZM128.954 204.394L82.3075 159.311L35.6611 204.347L82.3075 249.429L128.954 204.394Z" fill="url(#paint17_linear)"/>
<path d="M-25.6973 83.8879L-41 98.6777L-25.6973 113.468L-10.3945 98.6777L-25.6973 83.8879ZM-40.4588 98.8204L-25.6973 84.5537L-10.9358 98.8204L-25.6973 113.087L-40.4588 98.8204Z" fill="#FFA200"/>
<path d="M-25.6973 83.8879L-41 98.6777L-25.6973 113.468L-10.3945 98.6777L-25.6973 83.8879ZM-40.4588 98.8204L-25.6973 84.5537L-10.9358 98.8204L-25.6973 113.087L-40.4588 98.8204Z" fill="url(#paint18_linear)"/>
<defs>
<linearGradient id="paint0_linear" x1="336.131" y1="-74.4066" x2="80.8347" y2="201.073" gradientUnits="userSpaceOnUse">
<stop stop-color="white"/>
<stop offset="1" stop-color="white" stop-opacity="0"/>
</linearGradient>
<linearGradient id="paint1_linear" x1="336.131" y1="-74.4066" x2="80.8347" y2="201.073" gradientUnits="userSpaceOnUse">
<stop stop-color="white"/>
<stop offset="1" stop-color="white" stop-opacity="0"/>
</linearGradient>
<linearGradient id="paint2_linear" x1="336.131" y1="-74.4066" x2="80.8347" y2="201.073" gradientUnits="userSpaceOnUse">
<stop stop-color="white"/>
<stop offset="1" stop-color="white" stop-opacity="0"/>
</linearGradient>
<linearGradient id="paint3_linear" x1="336.131" y1="-74.4066" x2="80.8347" y2="201.073" gradientUnits="userSpaceOnUse">
<stop stop-color="white"/>
<stop offset="1" stop-color="white" stop-opacity="0"/>
</linearGradient>
<linearGradient id="paint4_linear" x1="336.131" y1="-74.4066" x2="80.8347" y2="201.073" gradientUnits="userSpaceOnUse">
<stop stop-color="white"/>
<stop offset="1" stop-color="white" stop-opacity="0"/>
</linearGradient>
<linearGradient id="paint5_linear" x1="336.131" y1="-74.4066" x2="80.8347" y2="201.073" gradientUnits="userSpaceOnUse">
<stop stop-color="white"/>
<stop offset="1" stop-color="white" stop-opacity="0"/>
</linearGradient>
<linearGradient id="paint6_linear" x1="336.131" y1="-74.4066" x2="80.8347" y2="201.073" gradientUnits="userSpaceOnUse">
<stop stop-color="white"/>
<stop offset="1" stop-color="white" stop-opacity="0"/>
</linearGradient>
<linearGradient id="paint7_linear" x1="336.131" y1="-74.4066" x2="80.8347" y2="201.073" gradientUnits="userSpaceOnUse">
<stop stop-color="white"/>
<stop offset="1" stop-color="white" stop-opacity="0"/>
</linearGradient>
<linearGradient id="paint8_linear" x1="336.131" y1="-74.4066" x2="80.8347" y2="201.073" gradientUnits="userSpaceOnUse">
<stop stop-color="white"/>
<stop offset="1" stop-color="white" stop-opacity="0"/>
</linearGradient>
<linearGradient id="paint9_linear" x1="336.131" y1="-74.4066" x2="80.8347" y2="201.073" gradientUnits="userSpaceOnUse">
<stop stop-color="white"/>
<stop offset="1" stop-color="white" stop-opacity="0"/>
</linearGradient>
<linearGradient id="paint10_linear" x1="336.131" y1="-74.4066" x2="80.8347" y2="201.073" gradientUnits="userSpaceOnUse">
<stop stop-color="white"/>
<stop offset="1" stop-color="white" stop-opacity="0"/>
</linearGradient>
<linearGradient id="paint11_linear" x1="336.131" y1="-74.4066" x2="80.8347" y2="201.073" gradientUnits="userSpaceOnUse">
<stop stop-color="white"/>
<stop offset="1" stop-color="white" stop-opacity="0"/>
</linearGradient>
<linearGradient id="paint12_linear" x1="336.131" y1="-74.4066" x2="80.8347" y2="201.073" gradientUnits="userSpaceOnUse">
<stop stop-color="white"/>
<stop offset="1" stop-color="white" stop-opacity="0"/>
</linearGradient>
<linearGradient id="paint13_linear" x1="336.131" y1="-74.4066" x2="80.8347" y2="201.073" gradientUnits="userSpaceOnUse">
<stop stop-color="white"/>
<stop offset="1" stop-color="white" stop-opacity="0"/>
</linearGradient>
<linearGradient id="paint14_linear" x1="336.131" y1="-74.4066" x2="80.8347" y2="201.073" gradientUnits="userSpaceOnUse">
<stop stop-color="white"/>
<stop offset="1" stop-color="white" stop-opacity="0"/>
</linearGradient>
<linearGradient id="paint15_linear" x1="336.131" y1="-74.4066" x2="80.8347" y2="201.073" gradientUnits="userSpaceOnUse">
<stop stop-color="white"/>
<stop offset="1" stop-color="white" stop-opacity="0"/>
</linearGradient>
<linearGradient id="paint16_linear" x1="336.131" y1="-74.4066" x2="80.8347" y2="201.073" gradientUnits="userSpaceOnUse">
<stop stop-color="white"/>
<stop offset="1" stop-color="white" stop-opacity="0"/>
</linearGradient>
<linearGradient id="paint17_linear" x1="336.131" y1="-74.4066" x2="80.8347" y2="201.073" gradientUnits="userSpaceOnUse">
<stop stop-color="white"/>
<stop offset="1" stop-color="white" stop-opacity="0"/>
</linearGradient>
<linearGradient id="paint18_linear" x1="336.131" y1="-74.4066" x2="80.8347" y2="201.073" gradientUnits="userSpaceOnUse">
<stop stop-color="white"/>
<stop offset="1" stop-color="white" stop-opacity="0"/>
</linearGradient>
</defs>
</svg>
