<svg width="873" height="75" viewBox="0 0 873 75" fill="none" xmlns="http://www.w3.org/2000/svg">
<mask id="mask0" mask-type="alpha" maskUnits="userSpaceOnUse" x="0" y="0" width="873" height="75">
<rect width="873" height="75" fill="#FBF5F3"/>
</mask>
<g mask="url(#mask0)">
<path d="M434.2 -55.2204L528.378 35.7061L434.2 126.633L340.169 35.7061L434.2 -55.2204ZM527.689 35.7061L434.2 -54.6497L340.71 35.7061L434.2 126.062L527.689 35.7061Z" fill="#FFA200"/>
<path d="M434.2 -55.2204L528.378 35.7061L434.2 126.633L340.169 35.7061L434.2 -55.2204ZM527.689 35.7061L434.2 -54.6497L340.71 35.7061L434.2 126.062L527.689 35.7061Z" fill="url(#paint0_linear)"/>
<path d="M481.094 -100.541L528.38 -54.9353L481.34 -9.47205L434.3 -54.9353L481.094 -100.541ZM527.74 -54.9353L481.094 -100.018L434.447 -54.9353L481.094 -9.85251L527.74 -54.9353Z" fill="#FFA200"/>
<path d="M481.094 -100.541L528.38 -54.9353L481.34 -9.47205L434.3 -54.9353L481.094 -100.541ZM527.74 -54.9353L481.094 -100.018L434.447 -54.9353L481.094 -9.85251L527.74 -54.9353Z" fill="url(#paint1_linear)"/>
<path d="M504.466 -123.083L527.986 -100.351L504.466 -77.6194L480.946 -100.351L504.466 -123.083ZM527.543 -100.256L504.466 -122.559L481.389 -100.256L504.466 -77.9523L527.543 -100.256Z" fill="#FFA200"/>
<path d="M504.466 -123.083L527.986 -100.351L504.466 -77.6194L480.946 -100.351L504.466 -123.083ZM527.543 -100.256L504.466 -122.559L481.389 -100.256L504.466 -77.9523L527.543 -100.256Z" fill="url(#paint2_linear)"/>
<path d="M527.838 -100.541L551.358 -77.8096L527.838 -54.8402L504.22 -77.6669L527.838 -100.541ZM550.915 -77.7145L527.838 -100.018L504.712 -77.6669L527.789 -55.3633L550.915 -77.7145Z" fill="#FFA200"/>
<path d="M527.838 -100.541L551.358 -77.8096L527.838 -54.8402L504.22 -77.6669L527.838 -100.541ZM550.915 -77.7145L527.838 -100.018L504.712 -77.6669L527.789 -55.3633L550.915 -77.7145Z" fill="url(#paint3_linear)"/>
<path d="M340.563 -9.71034L364.083 13.0213L340.563 35.7529L316.797 13.1164L340.563 -9.71034ZM363.64 13.1164L340.563 -9.18724L317.485 13.1164L340.563 35.42L363.64 13.1164Z" fill="#FFA200"/>
<path d="M340.563 -9.71034L364.083 13.0213L340.563 35.7529L316.797 13.1164L340.563 -9.71034ZM363.64 13.1164L340.563 -9.18724L317.485 13.1164L340.563 35.42L363.64 13.1164Z" fill="url(#paint4_linear)"/>
<path d="M363.936 -32.4898L387.456 -9.75816L363.936 12.9735L340.416 -9.75816L363.936 -32.4898ZM387.013 -9.66306L363.936 -31.9667L340.859 -9.66306L363.936 12.6406L387.013 -9.66306Z" fill="#FFA200"/>
<path d="M363.936 -32.4898L387.456 -9.75816L363.936 12.9735L340.416 -9.75816L363.936 -32.4898ZM387.013 -9.66306L363.936 -31.9667L340.859 -9.66306L363.936 12.6406L387.013 -9.66306Z" fill="url(#paint5_linear)"/>
<path d="M574.879 -55.0786L598.399 -32.347L574.879 -9.61533L551.359 -32.347L574.879 -55.0786ZM597.956 -32.2518L574.879 -54.5555L551.801 -32.2518L574.879 -9.94821L597.956 -32.2518Z" fill="#FFA200"/>
<path d="M574.879 -55.0786L598.399 -32.347L574.879 -9.61533L551.359 -32.347L574.879 -55.0786ZM597.956 -32.2518L574.879 -54.5555L551.801 -32.2518L574.879 -9.94821L597.956 -32.2518Z" fill="url(#paint6_linear)"/>
<path d="M574.877 -9.90063L588.704 3.46251L574.877 16.8257L561.051 3.46251L574.877 -9.90063ZM588.31 3.60518L574.877 -9.37753L561.445 3.60518L574.877 16.5879L588.31 3.60518Z" fill="#FFA200"/>
<path d="M574.877 -9.90063L588.704 3.46251L574.877 16.8257L561.051 3.46251L574.877 -9.90063ZM588.31 3.60518L574.877 -9.37753L561.445 3.60518L574.877 16.5879L588.31 3.60518Z" fill="url(#paint7_linear)"/>
<path d="M643.173 -51.2739L657 -37.9108L643.173 -24.5476L629.248 -37.7681L643.173 -51.2739ZM656.606 -37.7681L643.173 -50.7508L629.74 -37.7681L643.173 -24.7854L656.606 -37.7681Z" fill="#FFA200"/>
<path d="M643.173 -51.2739L657 -37.9108L643.173 -24.5476L629.248 -37.7681L643.173 -51.2739ZM656.606 -37.7681L643.173 -50.7508L629.74 -37.7681L643.173 -24.7854L656.606 -37.7681Z" fill="url(#paint8_linear)"/>
<path d="M387.308 -100.541L434.348 -55.078L387.308 -9.61472L340.268 -55.078L387.308 -100.541ZM433.954 -54.9353L387.308 -100.018L340.661 -54.9353L387.308 -9.85251L433.954 -54.9353Z" fill="#FFA200"/>
<path d="M387.308 -100.541L434.348 -55.078L387.308 -9.61472L340.268 -55.078L387.308 -100.541ZM433.954 -54.9353L387.308 -100.018L340.661 -54.9353L387.308 -9.85251L433.954 -54.9353Z" fill="url(#paint9_linear)"/>
<path d="M340.417 -145.862L387.457 -100.399L340.417 -54.6976L293.229 -100.256L340.417 -145.862ZM387.063 -100.303L340.417 -145.339L293.77 -100.256L340.417 -55.1731L387.063 -100.303Z" fill="#FFA200"/>
<path d="M340.417 -145.862L387.457 -100.399L340.417 -54.6976L293.229 -100.256L340.417 -145.862ZM387.063 -100.303L340.417 -145.339L293.77 -100.256L340.417 -55.1731L387.063 -100.303Z" fill="url(#paint10_linear)"/>
<path d="M317.043 -77.8093L364.083 -32.3461L317.043 13.1171L269.905 -32.2034L317.043 -77.8093ZM363.69 -32.2034L317.043 -77.2862L270.446 -32.2034L317.093 12.8793L363.69 -32.2034Z" fill="#FFA200"/>
<path d="M317.043 -77.8093L364.083 -32.3461L317.043 13.1171L269.905 -32.2034L317.043 -77.8093ZM363.69 -32.2034L317.043 -77.2862L270.446 -32.2034L317.093 12.8793L363.69 -32.2034Z" fill="url(#paint11_linear)"/>
<path d="M434.2 -221L520.26 -137.825L434.2 -54.6978L348.141 -137.825L434.2 -221ZM519.719 -137.825L434.2 -220.477L348.682 -137.825L434.2 -55.2204L519.719 -137.825Z" fill="#FFA200"/>
<path d="M434.2 -221L520.26 -137.825L434.2 -54.6978L348.141 -137.825L434.2 -221ZM519.719 -137.825L434.2 -220.477L348.682 -137.825L434.2 -55.2204L519.719 -137.825Z" fill="url(#paint12_linear)"/>
<path d="M536.99 55.5836L552.292 70.3734L536.99 85.1631L521.687 70.3734L536.99 55.5836ZM551.751 70.516L536.99 56.2493L522.228 70.516L536.99 84.7827L551.751 70.516Z" fill="#FFA200"/>
<path d="M536.99 55.5836L552.292 70.3734L536.99 85.1631L521.687 70.3734L536.99 55.5836ZM551.751 70.516L536.99 56.2493L522.228 70.516L536.99 84.7827L551.751 70.516Z" fill="url(#paint13_linear)"/>
<path d="M439.269 8.31335L454.572 23.1983L439.269 37.9881L423.966 23.1983L439.269 8.31335ZM454.031 23.2458L439.269 8.97913L424.508 23.2458L439.269 37.5126L454.031 23.2458Z" fill="#FFA200"/>
<path d="M439.269 8.31335L454.572 23.1983L439.269 37.9881L423.966 23.1983L439.269 8.31335ZM454.031 23.2458L439.269 8.97913L424.508 23.2458L439.269 37.5126L454.031 23.2458Z" fill="url(#paint14_linear)"/>
<path d="M527.986 -55.2204L575.026 -9.75714L528.378 35.7061L480.946 -9.75714L527.986 -55.2204ZM574.632 -9.66202L527.986 -54.7448L481.34 -9.66202L527.986 35.4207L574.632 -9.66202Z" fill="#FFA200"/>
<path d="M527.986 -55.2204L575.026 -9.75714L528.378 35.7061L480.946 -9.75714L527.986 -55.2204ZM574.632 -9.66202L527.986 -54.7448L481.34 -9.66202L527.986 35.4207L574.632 -9.66202Z" fill="url(#paint15_linear)"/>
<path d="M340.417 35.4676L387.457 80.9308L340.417 126.632L293.229 81.0259L340.417 35.4676ZM387.063 81.0259L340.417 35.9431L293.77 81.0259L340.417 126.109L387.063 81.0259Z" fill="#FFA200"/>
<path d="M340.417 35.4676L387.457 80.9308L340.417 126.632L293.229 81.0259L340.417 35.4676ZM387.063 81.0259L340.417 35.9431L293.77 81.0259L340.417 126.109L387.063 81.0259Z" fill="url(#paint16_linear)"/>
<path d="M387.307 80.7882L434.2 126.633L387.307 172L340.169 126.347L387.307 80.7882ZM433.954 126.394L387.307 81.3113L340.661 126.347L387.307 171.429L433.954 126.394Z" fill="#FFA200"/>
<path d="M387.307 80.7882L434.2 126.633L387.307 172L340.169 126.347L387.307 80.7882ZM433.954 126.394L387.307 81.3113L340.661 126.347L387.307 171.429L433.954 126.394Z" fill="url(#paint17_linear)"/>
<path d="M279.303 5.88794L264 20.6777L279.303 35.4676L294.605 20.6777L279.303 5.88794ZM264.541 20.8204L279.303 6.55371L294.064 20.8204L279.303 35.0871L264.541 20.8204Z" fill="#FFA200"/>
<path d="M279.303 5.88794L264 20.6777L279.303 35.4676L294.605 20.6777L279.303 5.88794ZM264.541 20.8204L279.303 6.55371L294.064 20.8204L279.303 35.0871L264.541 20.8204Z" fill="url(#paint18_linear)"/>
</g>
<defs>
<linearGradient id="paint0_linear" x1="641.131" y1="-152.407" x2="385.835" y2="123.073" gradientUnits="userSpaceOnUse">
<stop stop-color="white"/>
<stop offset="1" stop-color="white" stop-opacity="0"/>
</linearGradient>
<linearGradient id="paint1_linear" x1="641.131" y1="-152.407" x2="385.835" y2="123.073" gradientUnits="userSpaceOnUse">
<stop stop-color="white"/>
<stop offset="1" stop-color="white" stop-opacity="0"/>
</linearGradient>
<linearGradient id="paint2_linear" x1="641.131" y1="-152.407" x2="385.835" y2="123.073" gradientUnits="userSpaceOnUse">
<stop stop-color="white"/>
<stop offset="1" stop-color="white" stop-opacity="0"/>
</linearGradient>
<linearGradient id="paint3_linear" x1="641.131" y1="-152.407" x2="385.835" y2="123.073" gradientUnits="userSpaceOnUse">
<stop stop-color="white"/>
<stop offset="1" stop-color="white" stop-opacity="0"/>
</linearGradient>
<linearGradient id="paint4_linear" x1="641.131" y1="-152.407" x2="385.835" y2="123.073" gradientUnits="userSpaceOnUse">
<stop stop-color="white"/>
<stop offset="1" stop-color="white" stop-opacity="0"/>
</linearGradient>
<linearGradient id="paint5_linear" x1="641.131" y1="-152.407" x2="385.835" y2="123.073" gradientUnits="userSpaceOnUse">
<stop stop-color="white"/>
<stop offset="1" stop-color="white" stop-opacity="0"/>
</linearGradient>
<linearGradient id="paint6_linear" x1="641.131" y1="-152.407" x2="385.835" y2="123.073" gradientUnits="userSpaceOnUse">
<stop stop-color="white"/>
<stop offset="1" stop-color="white" stop-opacity="0"/>
</linearGradient>
<linearGradient id="paint7_linear" x1="641.131" y1="-152.407" x2="385.835" y2="123.073" gradientUnits="userSpaceOnUse">
<stop stop-color="white"/>
<stop offset="1" stop-color="white" stop-opacity="0"/>
</linearGradient>
<linearGradient id="paint8_linear" x1="641.131" y1="-152.407" x2="385.835" y2="123.073" gradientUnits="userSpaceOnUse">
<stop stop-color="white"/>
<stop offset="1" stop-color="white" stop-opacity="0"/>
</linearGradient>
<linearGradient id="paint9_linear" x1="641.131" y1="-152.407" x2="385.835" y2="123.073" gradientUnits="userSpaceOnUse">
<stop stop-color="white"/>
<stop offset="1" stop-color="white" stop-opacity="0"/>
</linearGradient>
<linearGradient id="paint10_linear" x1="641.131" y1="-152.407" x2="385.835" y2="123.073" gradientUnits="userSpaceOnUse">
<stop stop-color="white"/>
<stop offset="1" stop-color="white" stop-opacity="0"/>
</linearGradient>
<linearGradient id="paint11_linear" x1="641.131" y1="-152.407" x2="385.835" y2="123.073" gradientUnits="userSpaceOnUse">
<stop stop-color="white"/>
<stop offset="1" stop-color="white" stop-opacity="0"/>
</linearGradient>
<linearGradient id="paint12_linear" x1="641.131" y1="-152.407" x2="385.835" y2="123.073" gradientUnits="userSpaceOnUse">
<stop stop-color="white"/>
<stop offset="1" stop-color="white" stop-opacity="0"/>
</linearGradient>
<linearGradient id="paint13_linear" x1="641.131" y1="-152.407" x2="385.835" y2="123.073" gradientUnits="userSpaceOnUse">
<stop stop-color="white"/>
<stop offset="1" stop-color="white" stop-opacity="0"/>
</linearGradient>
<linearGradient id="paint14_linear" x1="641.131" y1="-152.407" x2="385.835" y2="123.073" gradientUnits="userSpaceOnUse">
<stop stop-color="white"/>
<stop offset="1" stop-color="white" stop-opacity="0"/>
</linearGradient>
<linearGradient id="paint15_linear" x1="641.131" y1="-152.407" x2="385.835" y2="123.073" gradientUnits="userSpaceOnUse">
<stop stop-color="white"/>
<stop offset="1" stop-color="white" stop-opacity="0"/>
</linearGradient>
<linearGradient id="paint16_linear" x1="641.131" y1="-152.407" x2="385.835" y2="123.073" gradientUnits="userSpaceOnUse">
<stop stop-color="white"/>
<stop offset="1" stop-color="white" stop-opacity="0"/>
</linearGradient>
<linearGradient id="paint17_linear" x1="641.131" y1="-152.407" x2="385.835" y2="123.073" gradientUnits="userSpaceOnUse">
<stop stop-color="white"/>
<stop offset="1" stop-color="white" stop-opacity="0"/>
</linearGradient>
<linearGradient id="paint18_linear" x1="641.131" y1="-152.407" x2="385.835" y2="123.073" gradientUnits="userSpaceOnUse">
<stop stop-color="white"/>
<stop offset="1" stop-color="white" stop-opacity="0"/>
</linearGradient>
</defs>
</svg>
