<svg width="19" height="21" viewBox="0 0 19 21" fill="none" xmlns="http://www.w3.org/2000/svg">
<path d="M5.41503 13.8269H16.6805C17.9579 13.8269 19 12.7566 19 11.4445V6.57614C19 6.57182 19 6.56319 19 6.55888C19 6.54593 19 6.5373 19 6.52435C19 6.51572 19 6.50708 18.9958 6.49845C18.9958 6.48982 18.9916 6.47687 18.9916 6.46824C18.9916 6.45961 18.9874 6.45098 18.9874 6.44235C18.9832 6.43371 18.9832 6.42508 18.979 6.41213C18.9748 6.4035 18.9748 6.39487 18.9706 6.38624C18.9664 6.37761 18.9664 6.36897 18.9622 6.36034C18.958 6.35171 18.9538 6.34308 18.9496 6.33013C18.9454 6.3215 18.9412 6.31287 18.937 6.30855C18.9328 6.29992 18.9286 6.29129 18.9244 6.28266C18.9202 6.27402 18.916 6.26971 18.9118 6.26108C18.9076 6.25244 18.8992 6.24381 18.895 6.23518C18.8907 6.22655 18.8865 6.22223 18.8781 6.2136C18.8739 6.20497 18.8655 6.20065 18.8613 6.19202C18.8571 6.18339 18.8487 6.17907 18.8445 6.17044C18.8403 6.16181 18.8319 6.15749 18.8277 6.15318C18.8193 6.14455 18.8151 6.14023 18.8067 6.1316C18.7983 6.12728 18.7941 6.11865 18.7857 6.11433C18.7773 6.11002 18.7689 6.10139 18.7605 6.09707C18.7521 6.09275 18.7479 6.08844 18.7395 6.08412C18.7311 6.07981 18.7227 6.07549 18.7143 6.06686C18.7059 6.06254 18.6975 6.05823 18.6891 6.05391C18.6807 6.04959 18.6722 6.04528 18.6638 6.04096C18.6554 6.03665 18.647 6.03233 18.6386 6.02802C18.6302 6.0237 18.6218 6.0237 18.6134 6.01938C18.605 6.01507 18.5924 6.01075 18.584 6.01075C18.5756 6.01075 18.5672 6.00644 18.563 6.00644C18.5504 6.00212 18.542 6.00212 18.5294 6.00212C18.5252 6.00212 18.521 5.9978 18.5126 5.9978L4.23427 3.97363V1.92787C4.23427 1.9063 4.23427 1.88472 4.23007 1.86745C4.23007 1.86314 4.23007 1.85882 4.22587 1.85019C4.22587 1.83724 4.22167 1.82429 4.22167 1.81134C4.21747 1.7984 4.21747 1.78977 4.21326 1.77682C4.21326 1.76819 4.20906 1.76387 4.20906 1.75524C4.20486 1.74229 4.20066 1.72934 4.19646 1.71639C4.19646 1.71208 4.19225 1.70345 4.19225 1.69913C4.18805 1.68618 4.18385 1.67755 4.17545 1.6646C4.17124 1.66029 4.17124 1.65165 4.16704 1.64734C4.16284 1.63871 4.15864 1.63008 4.15023 1.62144C4.14603 1.61281 4.14183 1.6085 4.13763 1.59986C4.13343 1.59123 4.12922 1.58692 4.12502 1.57828C4.12082 1.56965 4.11242 1.56102 4.10821 1.55239C4.10401 1.54807 4.09981 1.54376 4.09561 1.53944C4.0872 1.53081 4.0788 1.52218 4.0704 1.51355C4.0662 1.50923 4.06199 1.50491 4.05779 1.5006C4.04939 1.49197 4.04098 1.48333 4.02838 1.4747C4.02418 1.47039 4.01577 1.46607 4.01157 1.46175C4.00317 1.45312 3.99476 1.44881 3.98636 1.44017C3.97375 1.43154 3.96115 1.42291 3.95274 1.41859C3.94854 1.41428 3.94434 1.41428 3.94014 1.40996C3.92333 1.40133 3.90232 1.3927 3.88551 1.38407L0.788658 0.0461266C0.498722 -0.0790356 0.166766 0.0590744 0.0449086 0.356874C-0.0769486 0.654674 0.0575145 0.995633 0.347451 1.12079L3.09554 2.31199V4.95335V5.37199V8.58305V11.4531V15.0785C3.09554 16.287 3.97795 17.2883 5.11669 17.4394C4.91079 17.7933 4.78893 18.2076 4.78893 18.6478C4.78893 19.9469 5.81842 21 7.07901 21C8.3396 21 9.36908 19.9426 9.36908 18.6478C9.36908 18.2162 9.25563 17.8062 9.05394 17.4609H14.1551C13.9534 17.8105 13.84 18.2162 13.84 18.6478C13.84 19.9469 14.8695 21 16.1301 21C17.3906 21 18.4201 19.9426 18.4201 18.6478C18.4201 17.353 17.3906 16.2956 16.1301 16.2956H5.41503C4.75952 16.2956 4.23007 15.7475 4.23007 15.0785V13.4989C4.57463 13.7061 4.98222 13.8269 5.41503 13.8269ZM8.23875 18.6435C8.23875 19.2995 7.71771 19.8304 7.08321 19.8304C6.44871 19.8304 5.92767 19.2952 5.92767 18.6435C5.92767 17.9918 6.44871 17.4566 7.08321 17.4566C7.71771 17.4566 8.23875 17.9875 8.23875 18.6435ZM17.2898 18.6435C17.2898 19.2995 16.7688 19.8304 16.1343 19.8304C15.4998 19.8304 14.9787 19.2952 14.9787 18.6435C14.9787 17.9918 15.4998 17.4566 16.1343 17.4566C16.7688 17.4566 17.2898 17.9875 17.2898 18.6435ZM16.6805 12.6616H5.41503C4.75952 12.6616 4.23007 12.1135 4.23007 11.4445V8.57442V5.36336V5.14756L17.8655 7.07679V11.4402C17.8655 12.1178 17.3318 12.6616 16.6805 12.6616Z" fill="white"/>
</svg>
