<svg width="39" height="39" viewBox="0 0 39 39" fill="none" xmlns="http://www.w3.org/2000/svg">
<g clip-path="url(#clip0)">
<path d="M11.7079 25.6785H33.1969C35.6336 25.6785 37.6214 23.6907 37.6214 21.2541V12.2128C37.6214 12.2048 37.6214 12.1888 37.6214 12.1808C37.6214 12.1567 37.6214 12.1407 37.6214 12.1166C37.6214 12.1006 37.6214 12.0846 37.6134 12.0685C37.6134 12.0525 37.6053 12.0285 37.6053 12.0124C37.6053 11.9964 37.5973 11.9804 37.5973 11.9643C37.5893 11.9483 37.5893 11.9323 37.5813 11.9082C37.5733 11.8922 37.5733 11.8762 37.5653 11.8601C37.5573 11.8441 37.5573 11.8281 37.5492 11.8121C37.5412 11.796 37.5332 11.78 37.5252 11.756C37.5172 11.7399 37.5092 11.7239 37.5011 11.7159C37.4931 11.6998 37.4851 11.6838 37.4771 11.6678C37.4691 11.6518 37.4611 11.6437 37.4531 11.6277C37.445 11.6117 37.429 11.5956 37.421 11.5796C37.413 11.5636 37.405 11.5556 37.3889 11.5395C37.3809 11.5235 37.3649 11.5155 37.3569 11.4995C37.3489 11.4834 37.3328 11.4754 37.3248 11.4594C37.3168 11.4434 37.3008 11.4353 37.2928 11.4273C37.2767 11.4113 37.2687 11.4033 37.2527 11.3872C37.2366 11.3792 37.2286 11.3632 37.2126 11.3552C37.1966 11.3472 37.1805 11.3311 37.1645 11.3231C37.1485 11.3151 37.1405 11.3071 37.1244 11.2991C37.1084 11.2911 37.0924 11.283 37.0763 11.267C37.0603 11.259 37.0443 11.251 37.0282 11.243C37.0122 11.235 36.9962 11.2269 36.9802 11.2189C36.9641 11.2109 36.9481 11.2029 36.9321 11.1949C36.916 11.1869 36.9 11.1869 36.884 11.1788C36.8679 11.1708 36.8439 11.1628 36.8279 11.1628C36.8118 11.1628 36.7958 11.1548 36.7878 11.1548C36.7637 11.1468 36.7477 11.1468 36.7237 11.1468C36.7156 11.1468 36.7076 11.1388 36.6916 11.1388L9.45559 7.37959V3.58034C9.45559 3.54026 9.45559 3.50018 9.44757 3.46812C9.44757 3.46011 9.44757 3.45209 9.43956 3.43606C9.43956 3.41202 9.43154 3.38797 9.43154 3.36392C9.42353 3.33988 9.42353 3.32385 9.41551 3.2998C9.41551 3.28377 9.4075 3.27576 9.4075 3.25972C9.39948 3.23568 9.39147 3.21163 9.38345 3.18759C9.38345 3.17957 9.37543 3.16354 9.37543 3.15553C9.36742 3.13148 9.3594 3.11545 9.34337 3.0914C9.33536 3.08339 9.33536 3.06736 9.32734 3.05934C9.31933 3.04331 9.31131 3.02728 9.29528 3.01125C9.28727 2.99522 9.27925 2.9872 9.27124 2.97117C9.26322 2.95514 9.25521 2.94713 9.24719 2.9311C9.23917 2.91507 9.22314 2.89904 9.21513 2.88301C9.20711 2.87499 9.1991 2.86697 9.19108 2.85896C9.17505 2.84293 9.15902 2.8269 9.14299 2.81087C9.13498 2.80285 9.12696 2.79484 9.11894 2.78682C9.10291 2.77079 9.08688 2.75476 9.06284 2.73873C9.05482 2.73071 9.03879 2.7227 9.03078 2.71468C9.01475 2.69865 8.99871 2.69064 8.98268 2.67461C8.95864 2.65858 8.93459 2.64255 8.91856 2.63453C8.91055 2.62652 8.90253 2.62652 8.89452 2.6185C8.86245 2.60247 8.82238 2.58644 8.79032 2.57041L2.88304 0.0856636C2.32998 -0.14678 1.69677 0.10971 1.46433 0.662766C1.23188 1.21582 1.48837 1.84903 2.04143 2.08148L7.28344 4.2937V9.19907V9.97655V15.9399V21.2701V28.003C7.28344 30.2473 8.96665 32.1068 11.1388 32.3874C10.7461 33.0446 10.5136 33.8141 10.5136 34.6316C10.5136 37.0442 12.4774 39 14.882 39C17.2865 39 19.2503 37.0362 19.2503 34.6316C19.2503 33.8301 19.0339 33.0687 18.6491 32.4274H28.3797C27.995 33.0767 27.7786 33.8301 27.7786 34.6316C27.7786 37.0442 29.7423 39 32.1469 39C34.5515 39 36.5153 37.0362 36.5153 34.6316C36.5153 32.227 34.5515 30.2633 32.1469 30.2633H11.7079C10.4575 30.2633 9.44757 29.2453 9.44757 28.003V25.0694C10.1048 25.4541 10.8823 25.6785 11.7079 25.6785ZM17.0942 34.6236C17.0942 35.8419 16.1003 36.8278 14.89 36.8278C13.6797 36.8278 12.6858 35.8339 12.6858 34.6236C12.6858 33.4133 13.6797 32.4194 14.89 32.4194C16.1003 32.4194 17.0942 33.4053 17.0942 34.6236ZM34.3591 34.6236C34.3591 35.8419 33.3653 36.8278 32.1549 36.8278C30.9446 36.8278 29.9507 35.8339 29.9507 34.6236C29.9507 33.4133 30.9446 32.4194 32.1549 32.4194C33.3653 32.4194 34.3591 33.4053 34.3591 34.6236ZM33.1969 23.5144H11.7079C10.4575 23.5144 9.44757 22.4965 9.44757 21.2541V15.9239V9.96052V9.55976L35.4572 13.1426V21.2461C35.4572 22.5045 34.4393 23.5144 33.1969 23.5144Z" fill="black"/>
</g>
<defs>
<clipPath id="clip0">
<rect width="39" height="39" fill="white" transform="matrix(1 0 0 -1 0 39)"/>
</clipPath>
</defs>
</svg>
