<svg width="14" height="14" viewBox="0 0 14 14" fill="none" xmlns="http://www.w3.org/2000/svg">
<path d="M7 0C3.13401 0 0 3.13401 0 7C0 10.866 3.13401 14 7 14C10.866 14 14 10.866 14 7C13.995 3.13607 10.8639 0.00495496 7 0ZM7.3003 13.3844V12.1532C7.3003 11.9873 7.16584 11.8529 7 11.8529C6.83416 11.8529 6.6997 11.9873 6.6997 12.1532V13.3844C3.40687 13.2272 0.772823 10.5931 0.615616 7.3003H1.84685C2.01269 7.3003 2.14715 7.16584 2.14715 7C2.14715 6.83416 2.01269 6.6997 1.84685 6.6997H0.615616C0.772823 3.40687 3.40687 0.772823 6.6997 0.615616V1.84685C6.6997 2.01269 6.83416 2.14715 7 2.14715C7.16584 2.14715 7.3003 2.01269 7.3003 1.84685V0.615616C10.5931 0.772823 13.2272 3.40687 13.3844 6.6997H12.1532C11.9873 6.6997 11.8529 6.83416 11.8529 7C11.8529 7.16584 11.9873 7.3003 12.1532 7.3003H12.1562H13.3874C13.2301 10.5942 10.5943 13.2287 7.3003 13.3844Z" fill="white"/>
<path d="M10.1682 9.79262L7.30031 6.87671V3.84669C7.30031 3.68085 7.16585 3.54639 7.00001 3.54639C6.83417 3.54639 6.69971 3.68085 6.69971 3.84669V6.99984C6.70004 7.07863 6.73131 7.15411 6.78679 7.21005L9.73875 10.213C9.85485 10.3316 10.0451 10.3337 10.1637 10.2175C10.2823 10.1014 10.2843 9.9112 10.1682 9.79262Z" fill="white"/>
</svg>
