<svg width="24" height="24" viewBox="0 0 24 24" fill="none" xmlns="http://www.w3.org/2000/svg">
<path d="M11.9998 0C5.37257 0 0 5.37273 0 11.9998C0 18.6269 5.37257 24 11.9998 24C18.627 24 24 18.6269 24 11.9998C24 5.37273 18.627 0 11.9998 0ZM17.1876 14.2822H12.1002C12.083 14.2822 12.067 14.278 12.05 14.2774C12.0329 14.2782 12.017 14.2822 11.9997 14.2822C11.5414 14.2822 11.1698 13.9106 11.1698 13.4522V4.98C11.1698 4.52168 11.5414 4.15007 11.9997 4.15007C12.458 4.15007 12.8297 4.52168 12.8297 4.98V12.6223H17.1873C17.6457 12.6223 18.0173 12.9939 18.0173 13.4522C18.0173 13.9106 17.646 14.2822 17.1876 14.2822Z" fill="#FFA200"/>
</svg>
