<svg width="13" height="14" viewBox="0 0 13 14" fill="none" xmlns="http://www.w3.org/2000/svg">
<path d="M6.15479 1C2.84108 1 0.154785 3.68629 0.154785 7C0.154785 10.3137 2.84108 13 6.15479 13C9.46849 13 12.1548 10.3137 12.1548 7C12.1505 3.68806 9.46672 1.00425 6.15479 1ZM6.41219 12.4723V11.417C6.41219 11.2748 6.29693 11.1596 6.15479 11.1596C6.01264 11.1596 5.89739 11.2748 5.89739 11.417V12.4723C3.07496 12.3376 0.817205 10.0798 0.682456 7.2574H1.7378C1.87995 7.2574 1.9952 7.14215 1.9952 7C1.9952 6.85785 1.87995 6.7426 1.7378 6.7426H0.682456C0.817205 3.92017 3.07496 1.66242 5.89739 1.52767V2.58301C5.89739 2.72516 6.01264 2.84041 6.15479 2.84041C6.29693 2.84041 6.41219 2.72516 6.41219 2.58301V1.52767C9.23461 1.66242 11.4924 3.92017 11.6271 6.7426H10.5718C10.4296 6.7426 10.3144 6.85785 10.3144 7C10.3144 7.14215 10.4296 7.2574 10.5718 7.2574H10.5743H11.6297C11.4948 10.0808 9.23561 12.3389 6.41219 12.4723Z" fill="black" stroke="black" stroke-width="0.25"/>
<path d="M8.87031 9.3938L6.41214 6.89445V4.29729C6.41214 4.15514 6.29689 4.03989 6.15474 4.03989C6.01259 4.03989 5.89734 4.15514 5.89734 4.29729V6.99999C5.89763 7.06752 5.92443 7.13222 5.97199 7.18017L8.50223 9.75416C8.60175 9.8558 8.76481 9.85754 8.86645 9.75803C8.96809 9.65851 8.96983 9.49545 8.87031 9.3938Z" fill="black" stroke="black" stroke-width="0.25"/>
</svg>
