<svg width="20" height="20" viewBox="0 0 20 20" fill="none" xmlns="http://www.w3.org/2000/svg">
<path d="M10 1C5.02944 1 1 5.02944 1 10C1 14.9706 5.02944 19 10 19C14.9706 19 19 14.9706 19 10C18.9936 5.03209 14.9679 1.00637 10 1ZM10.3861 18.2085V16.6255C10.3861 16.4123 10.2132 16.2394 10 16.2394C9.78678 16.2394 9.6139 16.4123 9.6139 16.6255V18.2085C5.38026 18.0064 1.99363 14.6197 1.79151 10.3861H3.37452C3.58774 10.3861 3.76062 10.2132 3.76062 10C3.76062 9.78678 3.58774 9.6139 3.37452 9.6139H1.79151C1.99363 5.38026 5.38026 1.99363 9.6139 1.79151V3.37452C9.6139 3.58774 9.78678 3.76062 10 3.76062C10.2132 3.76062 10.3861 3.58774 10.3861 3.37452V1.79151C14.6197 1.99363 18.0064 5.38026 18.2085 9.6139H16.6255C16.4123 9.6139 16.2394 9.78678 16.2394 10C16.2394 10.2132 16.4123 10.3861 16.6255 10.3861H16.6293H18.2124C18.0101 14.6211 14.6212 18.0083 10.3861 18.2085Z" fill="#FFA200" stroke="#FFA200" stroke-width="0.25"/>
<path d="M14.0727 13.5914L10.3855 9.84239V5.94665C10.3855 5.73342 10.2126 5.56055 9.99938 5.56055C9.78616 5.56055 9.61328 5.73342 9.61328 5.94665V10.0007C9.61372 10.102 9.65392 10.1991 9.72525 10.271L13.5206 14.132C13.6699 14.2844 13.9145 14.287 14.067 14.1378C14.2194 13.9885 14.222 13.7439 14.0727 13.5914Z" fill="#FFA200" stroke="#FFA200" stroke-width="0.25"/>
</svg>
