<svg width="15" height="15" viewBox="0 0 15 15" fill="none" xmlns="http://www.w3.org/2000/svg">
<path d="M10.3594 5.17197L9.18522 5.12891L8.93066 12.0806L10.1048 12.1235L10.3594 5.17197Z" fill="black"/>
<path d="M8.08703 5.15039H6.91211V12.1021H8.08703V5.15039Z" fill="black"/>
<path d="M6.07032 12.0806L5.81576 5.12891L4.6416 5.172L4.89619 12.1237L6.07032 12.0806Z" fill="black"/>
<path d="M0.508789 2.25195V3.42688H1.73308L2.70433 14.464C2.73096 14.7673 2.98496 15 3.28944 15H11.69C11.9945 15 12.2487 14.7672 12.2751 14.4638L13.2464 3.42688H14.4905V2.25195H0.508789ZM11.1519 13.8251H3.82739L2.91251 3.42688H12.067L11.1519 13.8251Z" fill="black"/>
<path d="M9.41878 0H5.58066C5.04078 0 4.60156 0.439219 4.60156 0.979102V2.83942H5.77648V1.17492H9.22296V2.83942H10.3979V0.979102C10.3979 0.439219 9.95866 0 9.41878 0Z" fill="black"/>
</svg>
