<svg width="8" height="16" viewBox="0 0 8 16" fill="none" xmlns="http://www.w3.org/2000/svg">
<path opacity="0.2" d="M6.14715 7.26813C5.54128 6.92115 4.89715 6.65679 4.2594 6.38252C3.8895 6.2239 3.53554 6.03884 3.22304 5.78109C2.60761 5.27219 2.72559 4.44606 3.44626 4.11891C3.65034 4.02639 3.86399 3.99665 4.08082 3.98343C4.91628 3.93716 5.71029 4.09578 6.46603 4.4725C6.8423 4.66086 6.96667 4.60137 7.09422 4.19492C7.22815 3.76533 7.33975 3.32913 7.46412 2.89624C7.54702 2.60544 7.44498 2.41378 7.18031 2.29151C6.69562 2.0701 6.19817 1.91149 5.67521 1.82557C4.99281 1.71652 4.99281 1.71322 4.98963 1.00274C4.98644 0.0014687 4.98644 0.00146868 4.01705 0.00146868C3.87674 0.00146868 3.73644 -0.00183585 3.59613 0.00146868C3.14332 0.0146868 3.06679 0.0973 3.05404 0.569848C3.04766 0.781338 3.05404 0.992828 3.05085 1.20762C3.04766 1.83548 3.04447 1.82557 2.46412 2.04367C1.06105 2.57239 0.193707 3.56375 0.101233 5.14993C0.0183248 6.55435 0.726233 7.50275 1.83912 8.1934C2.5247 8.61968 3.28363 8.87083 4.01067 9.20459C4.29447 9.33346 4.56552 9.48217 4.80149 9.68705C5.49983 10.2852 5.37228 11.2798 4.5432 11.6565C4.09996 11.8581 3.63121 11.9077 3.1497 11.8449C2.40672 11.7491 1.69562 11.5475 1.02598 11.1873C0.633758 10.9758 0.518962 11.032 0.385034 11.4715C0.270238 11.8515 0.168197 12.2348 0.0661565 12.6182C-0.0709609 13.1337 -0.0199408 13.2559 0.455187 13.4972C1.06105 13.8012 1.70838 13.9565 2.36845 14.0655C2.88503 14.1515 2.90098 14.1746 2.90736 14.7298C2.91054 14.9809 2.91054 15.2354 2.91373 15.4865C2.91692 15.8037 3.06361 15.9888 3.37929 15.9954C3.73644 16.002 4.09677 16.002 4.45391 15.9921C4.74728 15.9855 4.89715 15.8203 4.89715 15.5129C4.89715 15.1693 4.91309 14.8223 4.90034 14.4786C4.8844 14.1283 5.03108 13.9499 5.35633 13.8574C6.1057 13.6459 6.74345 13.2295 7.23452 12.6083C8.59932 10.8899 8.07955 8.37515 6.14715 7.26813Z" fill="black"/>
</svg>
