<svg width="9" height="5" viewBox="0 0 9 5" fill="none" xmlns="http://www.w3.org/2000/svg">
<path d="M8.32031 0.570312C8.3724 0.622396 8.39844 0.682291 8.39844 0.75C8.39844 0.817708 8.3724 0.877604 8.32031 0.929687L4.67969 4.57031C4.6276 4.6224 4.56771 4.64844 4.5 4.64844C4.43229 4.64844 4.3724 4.6224 4.32031 4.57031L0.679688 0.929687C0.627604 0.877604 0.601563 0.817708 0.601563 0.75C0.601563 0.682291 0.627604 0.622396 0.679688 0.570312L1.07031 0.179687C1.1224 0.127604 1.18229 0.101562 1.25 0.101562C1.31771 0.101562 1.3776 0.127604 1.42969 0.179687L4.5 3.25L7.57031 0.179687C7.6224 0.127604 7.68229 0.101562 7.75 0.101562C7.81771 0.101562 7.8776 0.127604 7.92969 0.179687L8.32031 0.570312Z" fill="#B6B5B5"/>
</svg>
