<svg width="20" height="20" viewBox="0 0 20 20" fill="none" xmlns="http://www.w3.org/2000/svg">
<path d="M10 0C4.48615 0 0 4.48585 0 10C0 15.5142 4.48615 20 10 20C15.5138 20 20 15.5142 20 10C20 4.48585 15.5138 0 10 0ZM10 18.7692C5.16462 18.7692 1.23077 14.8354 1.23077 10C1.23077 5.16462 5.16462 1.23077 10 1.23077C14.8354 1.23077 18.7692 5.16462 18.7692 10C18.7692 14.8354 14.8354 18.7692 10 18.7692Z" fill="#A62868"/>
<path d="M10 7C10.5523 7 11 6.55229 11 6C11 5.44772 10.5523 5 10 5C9.44772 5 9 5.44772 9 6C9 6.55229 9.44772 7 10 7Z" fill="#A62868"/>
<path d="M10 8C9.448 8 9 8.34133 9 8.7619V15.2381C9 15.6587 9.448 16 10 16C10.552 16 11 15.6587 11 15.2381V8.7619C11 8.34095 10.552 8 10 8Z" fill="#A62868"/>
</svg>
