<svg width="15" height="15" viewBox="0 0 15 15" fill="none" xmlns="http://www.w3.org/2000/svg">
<g clip-path="url(#clip0)">
<path d="M14.252 12.9471H4.22161C3.80821 12.9471 3.47314 12.6121 3.47314 12.1987C3.47314 11.7853 3.80821 11.4502 4.22161 11.4502H14.2518C14.6652 11.4502 15.0003 11.7853 15.0003 12.1987C15.0003 12.6121 14.6655 12.9471 14.252 12.9471Z" fill="#4F4F4F"/>
<path d="M14.252 8.24815H4.22161C3.80821 8.24815 3.47314 7.91309 3.47314 7.49969C3.47314 7.08628 3.80821 6.75122 4.22161 6.75122H14.2518C14.6652 6.75122 15.0003 7.08628 15.0003 7.49969C15.0005 7.91309 14.6655 8.24815 14.252 8.24815Z" fill="#4F4F4F"/>
<path d="M14.252 3.55089H4.22161C3.80821 3.55089 3.47314 3.21582 3.47314 2.80242C3.47314 2.38902 3.80821 2.05396 4.22161 2.05396H14.2518C14.6652 2.05396 15.0003 2.38902 15.0003 2.80242C15.0003 3.21582 14.6655 3.55089 14.252 3.55089Z" fill="#4F4F4F"/>
<path d="M1.00519 3.86536C1.56034 3.86536 2.01038 3.41532 2.01038 2.86017C2.01038 2.30502 1.56034 1.85498 1.00519 1.85498C0.450039 1.85498 0 2.30502 0 2.86017C0 3.41532 0.450039 3.86536 1.00519 3.86536Z" fill="#4F4F4F"/>
<path d="M1.00519 8.50525C1.56034 8.50525 2.01038 8.05521 2.01038 7.50006C2.01038 6.94491 1.56034 6.49487 1.00519 6.49487C0.450039 6.49487 0 6.94491 0 7.50006C0 8.05521 0.450039 8.50525 1.00519 8.50525Z" fill="#4F4F4F"/>
<path d="M1.00519 13.1464C1.56034 13.1464 2.01038 12.6963 2.01038 12.1412C2.01038 11.586 1.56034 11.136 1.00519 11.136C0.450039 11.136 0 11.586 0 12.1412C0 12.6963 0.450039 13.1464 1.00519 13.1464Z" fill="#4F4F4F"/>
</g>
<defs>
<clipPath id="clip0">
<rect width="15" height="15" fill="white"/>
</clipPath>
</defs>
</svg>
