<svg width="26" height="21" viewBox="0 0 26 21" fill="none" xmlns="http://www.w3.org/2000/svg">
<path d="M2.49548 6.86543C2.82437 7.09752 3.81579 7.78682 5.46977 8.93297C7.1238 10.0791 8.3909 10.9616 9.27112 11.5805C9.36783 11.6484 9.57328 11.7959 9.88759 12.0232C10.202 12.2506 10.4632 12.4344 10.671 12.5747C10.879 12.7148 11.1305 12.872 11.4256 13.0461C11.7207 13.22 11.9988 13.3508 12.2599 13.4374C12.5211 13.5247 12.7629 13.5679 12.9854 13.5679H13H13.0146C13.237 13.5679 13.4789 13.5246 13.7401 13.4374C14.0012 13.3508 14.2796 13.2198 14.5744 13.0461C14.8693 12.8718 15.1208 12.7148 15.3287 12.5747C15.5367 12.4344 15.7978 12.2506 16.1122 12.0232C16.4265 11.7957 16.6322 11.6484 16.7289 11.5805C17.6186 10.9616 19.8822 9.38978 23.519 6.86513C24.225 6.37204 24.8149 5.77706 25.2888 5.0806C25.763 4.38444 25.9999 3.65413 25.9999 2.89008C25.9999 2.2516 25.7701 1.70505 25.3106 1.25048C24.8511 0.795812 24.307 0.568604 23.6784 0.568604H2.32132C1.57658 0.568604 1.00346 0.820052 0.602043 1.32295C0.200681 1.82595 0 2.45467 0 3.20907C0 3.81843 0.266084 4.47876 0.797998 5.18965C1.32986 5.9006 1.89587 6.45925 2.49548 6.86543Z" fill="#FFA200"/>
<path d="M24.5488 8.4175C21.3766 10.5646 18.9678 12.2333 17.3237 13.4231C16.7723 13.8292 16.3251 14.1462 15.9816 14.3734C15.6381 14.6007 15.1813 14.8328 14.6105 15.0697C14.04 15.3069 13.5082 15.4252 13.0148 15.4252H13H12.9854C12.4921 15.4252 11.9601 15.3069 11.3895 15.0697C10.8189 14.8328 10.3618 14.6007 10.0184 14.3734C9.67512 14.1462 9.22772 13.8292 8.67645 13.4231C7.37057 12.4656 4.96697 10.7969 1.46555 8.4175C0.914067 8.05018 0.425602 7.62915 0 7.15527V18.675C0 19.3138 0.227208 19.86 0.681879 20.3146C1.13645 20.7694 1.68305 20.9967 2.32148 20.9967H23.6786C24.3169 20.9967 24.8635 20.7694 25.3181 20.3146C25.7729 19.8599 26 19.3138 26 18.675V7.15527C25.584 7.61935 25.1005 8.04037 24.5488 8.4175Z" fill="#FFA200"/>
</svg>
