<svg width="326" height="306" viewBox="0 0 326 306" fill="none" xmlns="http://www.w3.org/2000/svg">
<path d="M184.816 145.926L106.694 225.963L184.816 306L262.816 225.963L184.816 145.926ZM107.265 225.963L184.816 146.428L262.367 225.963L184.816 305.498L107.265 225.963Z" fill="#FFA200"/>
<path d="M184.816 145.926L106.694 225.963L184.816 306L262.816 225.963L184.816 145.926ZM107.265 225.963L184.816 146.428L262.367 225.963L184.816 305.498L107.265 225.963Z" fill="url(#paint0_linear)"/>
<path d="M145.917 106.033L106.693 146.177L145.713 186.195L184.733 146.177L145.917 106.033ZM107.223 146.177L145.917 106.493L184.611 146.177L145.917 185.86L107.223 146.177Z" fill="#FFA200"/>
<path d="M145.917 106.033L106.693 146.177L145.713 186.195L184.733 146.177L145.917 106.033ZM107.223 146.177L145.917 106.493L184.611 146.177L145.917 185.86L107.223 146.177Z" fill="url(#paint1_linear)"/>
<path d="M68.121 146.051L48.6108 166.06L68.121 186.069L87.6313 166.06L68.121 146.051ZM48.9782 166.144L68.121 146.511L87.2639 166.144L68.121 185.776L48.9782 166.144Z" fill="#FFA200"/>
<path d="M68.121 146.051L48.6108 166.06L68.121 186.069L87.6313 166.06L68.121 146.051ZM48.9782 166.144L68.121 146.511L87.2639 166.144L68.121 185.776L48.9782 166.144Z" fill="url(#paint2_linear)"/>
<path d="M68.122 185.818L56.6526 197.581L68.122 209.344L79.5914 197.581L68.122 185.818ZM56.9791 197.706L68.122 186.279L79.2649 197.706L68.122 209.134L56.9791 197.706Z" fill="#FFA200"/>
<path d="M68.122 185.818L56.6526 197.581L68.122 209.344L79.5914 197.581L68.122 185.818ZM56.9791 197.706L68.122 186.279L79.2649 197.706L68.122 209.134L56.9791 197.706Z" fill="url(#paint3_linear)"/>
<path d="M11.4694 149.4L0 161.162L11.4694 172.925L23.0204 161.288L11.4694 149.4ZM0.326539 161.288L11.4694 149.86L22.6123 161.288L11.4694 172.716L0.326539 161.288Z" fill="#FFA200"/>
<path d="M11.4694 149.4L0 161.162L11.4694 172.925L23.0204 161.288L11.4694 149.4ZM0.326539 161.288L11.4694 149.86L22.6123 161.288L11.4694 172.716L0.326539 161.288Z" fill="url(#paint4_linear)"/>
<path d="M223.714 106.033L184.694 146.051L223.714 186.07L262.735 146.051L223.714 106.033ZM185.02 146.177L223.714 106.493L262.408 146.177L223.714 185.86L185.02 146.177Z" fill="#FFA200"/>
<path d="M223.714 106.033L184.694 146.051L223.714 186.07L262.735 146.051L223.714 106.033ZM185.02 146.177L223.714 106.493L262.408 146.177L223.714 185.86L185.02 146.177Z" fill="url(#paint5_linear)"/>
<path d="M184.816 0L113.428 73.2138L184.816 146.386L256.204 73.2138L184.816 0ZM113.877 73.2138L184.816 0.460465L255.755 73.2138L184.816 145.926L113.877 73.2138Z" fill="#FFA200"/>
<path d="M184.816 0L113.428 73.2138L184.816 146.386L256.204 73.2138L184.816 0ZM113.877 73.2138L184.816 0.460465L255.755 73.2138L184.816 145.926L113.877 73.2138Z" fill="url(#paint6_linear)"/>
<path d="M99.5506 243.46L86.8567 256.478L99.5506 269.497L112.245 256.478L99.5506 243.46ZM87.3057 256.604L99.5506 244.046L111.796 256.604L99.5506 269.162L87.3057 256.604Z" fill="#FFA200"/>
<path d="M99.5506 243.46L86.8567 256.478L99.5506 269.497L112.245 256.478L99.5506 243.46ZM87.3057 256.604L99.5506 244.046L111.796 256.604L99.5506 269.162L87.3057 256.604Z" fill="url(#paint7_linear)"/>
<path d="M180.611 201.851L167.917 214.953L180.611 227.972L193.305 214.953L180.611 201.851ZM168.366 214.995L180.611 202.437L192.856 214.995L180.611 227.553L168.366 214.995Z" fill="#FFA200"/>
<path d="M180.611 201.851L167.917 214.953L180.611 227.972L193.305 214.953L180.611 201.851ZM168.366 214.995L180.611 202.437L192.856 214.995L180.611 227.553L168.366 214.995Z" fill="url(#paint8_linear)"/>
<path d="M107.019 145.926L67.9989 185.944L106.694 225.963L146.04 185.944L107.019 145.926ZM68.3254 186.028L107.019 146.344L145.713 186.028L107.019 225.712L68.3254 186.028Z" fill="#FFA200"/>
<path d="M107.019 145.926L67.9989 185.944L106.694 225.963L146.04 185.944L107.019 145.926ZM68.3254 186.028L107.019 146.344L145.713 186.028L107.019 225.712L68.3254 186.028Z" fill="url(#paint9_linear)"/>
<path d="M262.611 225.753L223.591 265.771L262.611 305.999L301.754 265.855L262.611 225.753ZM223.917 265.855L262.611 226.172L301.305 265.855L262.611 305.539L223.917 265.855Z" fill="#FFA200"/>
<path d="M262.611 225.753L223.591 265.771L262.611 305.999L301.754 265.855L262.611 225.753ZM223.917 265.855L262.611 226.172L301.305 265.855L262.611 305.539L223.917 265.855Z" fill="url(#paint10_linear)"/>
<path d="M313.306 199.716L326 212.734L313.306 225.753L300.612 212.734L313.306 199.716ZM325.551 212.86L313.306 200.302L301.061 212.86L313.306 225.418L325.551 212.86Z" fill="#FFA200"/>
<path d="M313.306 199.716L326 212.734L313.306 225.753L300.612 212.734L313.306 199.716ZM325.551 212.86L313.306 200.302L301.061 212.86L313.306 225.418L325.551 212.86Z" fill="url(#paint11_linear)"/>
<defs>
<linearGradient id="paint0_linear" x1="13.1636" y1="60.3787" x2="238.505" y2="289.523" gradientUnits="userSpaceOnUse">
<stop stop-color="white"/>
<stop offset="1" stop-color="white" stop-opacity="0"/>
</linearGradient>
<linearGradient id="paint1_linear" x1="13.1636" y1="60.3787" x2="238.505" y2="289.523" gradientUnits="userSpaceOnUse">
<stop stop-color="white"/>
<stop offset="1" stop-color="white" stop-opacity="0"/>
</linearGradient>
<linearGradient id="paint2_linear" x1="13.1636" y1="60.3787" x2="238.505" y2="289.523" gradientUnits="userSpaceOnUse">
<stop stop-color="white"/>
<stop offset="1" stop-color="white" stop-opacity="0"/>
</linearGradient>
<linearGradient id="paint3_linear" x1="13.1636" y1="60.3787" x2="238.505" y2="289.523" gradientUnits="userSpaceOnUse">
<stop stop-color="white"/>
<stop offset="1" stop-color="white" stop-opacity="0"/>
</linearGradient>
<linearGradient id="paint4_linear" x1="13.1636" y1="60.3787" x2="238.505" y2="289.523" gradientUnits="userSpaceOnUse">
<stop stop-color="white"/>
<stop offset="1" stop-color="white" stop-opacity="0"/>
</linearGradient>
<linearGradient id="paint5_linear" x1="13.1636" y1="60.3787" x2="238.505" y2="289.523" gradientUnits="userSpaceOnUse">
<stop stop-color="white"/>
<stop offset="1" stop-color="white" stop-opacity="0"/>
</linearGradient>
<linearGradient id="paint6_linear" x1="13.1636" y1="60.3787" x2="238.505" y2="289.523" gradientUnits="userSpaceOnUse">
<stop stop-color="white"/>
<stop offset="1" stop-color="white" stop-opacity="0"/>
</linearGradient>
<linearGradient id="paint7_linear" x1="13.1636" y1="60.3787" x2="238.505" y2="289.523" gradientUnits="userSpaceOnUse">
<stop stop-color="white"/>
<stop offset="1" stop-color="white" stop-opacity="0"/>
</linearGradient>
<linearGradient id="paint8_linear" x1="13.1636" y1="60.3787" x2="238.505" y2="289.523" gradientUnits="userSpaceOnUse">
<stop stop-color="white"/>
<stop offset="1" stop-color="white" stop-opacity="0"/>
</linearGradient>
<linearGradient id="paint9_linear" x1="13.1636" y1="60.3787" x2="238.505" y2="289.523" gradientUnits="userSpaceOnUse">
<stop stop-color="white"/>
<stop offset="1" stop-color="white" stop-opacity="0"/>
</linearGradient>
<linearGradient id="paint10_linear" x1="13.1636" y1="60.3787" x2="238.505" y2="289.523" gradientUnits="userSpaceOnUse">
<stop stop-color="white"/>
<stop offset="1" stop-color="white" stop-opacity="0"/>
</linearGradient>
<linearGradient id="paint11_linear" x1="13.1636" y1="60.3787" x2="238.505" y2="289.523" gradientUnits="userSpaceOnUse">
<stop stop-color="white"/>
<stop offset="1" stop-color="white" stop-opacity="0"/>
</linearGradient>
</defs>
</svg>
