<svg width="560" height="502" viewBox="0 0 560 502" fill="none" xmlns="http://www.w3.org/2000/svg">
<path d="M242.524 262.605L376.722 131.303L242.524 3.46504e-05L108.536 131.303L242.524 262.605ZM375.741 131.303L242.524 261.781L109.307 131.303L242.524 0.824131L375.741 131.303Z" fill="#FFA200"/>
<path d="M242.524 262.605L376.722 131.303L242.524 3.46504e-05L108.536 131.303L242.524 262.605ZM375.741 131.303L242.524 261.781L109.307 131.303L242.524 0.824131L375.741 131.303Z" fill="url(#paint0_linear)"/>
<path d="M309.345 328.051L376.724 262.194L309.695 196.542L242.666 262.194L309.345 328.051ZM375.813 262.194L309.345 327.296L242.877 262.194L309.345 197.092L375.813 262.194Z" fill="#FFA200"/>
<path d="M309.345 328.051L376.724 262.194L309.695 196.542L242.666 262.194L309.345 328.051ZM375.813 262.194L309.345 327.296L242.877 262.194L309.345 197.092L375.813 262.194Z" fill="url(#paint1_linear)"/>
<path d="M442.982 262.401L476.497 229.575L442.982 196.749L409.468 229.575L442.982 262.401ZM475.866 229.438L442.982 261.645L410.099 229.438L442.982 197.23L475.866 229.438Z" fill="#FFA200"/>
<path d="M442.982 262.401L476.497 229.575L442.982 196.749L409.468 229.575L442.982 262.401ZM475.866 229.438L442.982 261.645L410.099 229.438L442.982 197.23L475.866 229.438Z" fill="url(#paint2_linear)"/>
<path d="M442.981 197.161L462.683 177.864L442.981 158.567L423.279 177.864L442.981 197.161ZM462.122 177.658L442.981 196.406L423.84 177.658L442.981 158.91L462.122 177.658Z" fill="#FFA200"/>
<path d="M442.981 197.161L462.683 177.864L442.981 158.567L423.279 177.864L442.981 197.161ZM462.122 177.658L442.981 196.406L423.84 177.658L442.981 158.91L462.122 177.658Z" fill="url(#paint3_linear)"/>
<path d="M540.298 256.906L560 237.609L540.298 218.312L520.456 237.403L540.298 256.906ZM559.439 237.403L540.298 256.151L521.157 237.403L540.298 218.656L559.439 237.403Z" fill="#FFA200"/>
<path d="M540.298 256.906L560 237.609L540.298 218.312L520.456 237.403L540.298 256.906ZM559.439 237.403L540.298 256.151L521.157 237.403L540.298 218.656L559.439 237.403Z" fill="url(#paint4_linear)"/>
<path d="M175.705 328.051L242.734 262.4L175.705 196.748L108.676 262.4L175.705 328.051ZM242.173 262.194L175.705 327.296L109.237 262.194L175.705 197.092L242.173 262.194Z" fill="#FFA200"/>
<path d="M175.705 328.051L242.734 262.4L175.705 196.748L108.676 262.4L175.705 328.051ZM242.173 262.194L175.705 327.296L109.237 262.194L175.705 197.092L242.173 262.194Z" fill="url(#paint5_linear)"/>
<path d="M242.525 502L365.154 381.891L242.525 261.851L119.895 381.891L242.525 502ZM364.383 381.891L242.525 501.245L120.666 381.891L242.524 262.605L364.383 381.891Z" fill="#FFA200"/>
<path d="M242.525 502L365.154 381.891L242.525 261.851L119.895 381.891L242.525 502ZM364.383 381.891L242.525 501.245L120.666 381.891L242.524 262.605L364.383 381.891Z" fill="url(#paint6_linear)"/>
<path d="M249.747 170.859L271.553 149.365L249.747 128.007L227.942 149.365L249.747 170.859ZM270.782 149.296L249.747 169.898L228.713 149.296L249.747 128.694L270.782 149.296Z" fill="#FFA200"/>
<path d="M249.747 170.859L271.553 149.365L249.747 128.007L227.942 149.365L249.747 170.859ZM270.782 149.296L249.747 169.898L228.713 149.296L249.747 128.694L270.782 149.296Z" fill="url(#paint7_linear)"/>
<path d="M376.163 262.605L443.192 196.954L376.722 131.303L309.134 196.954L376.163 262.605ZM442.631 196.817L376.163 261.919L309.695 196.817L376.163 131.715L442.631 196.817Z" fill="#FFA200"/>
<path d="M376.163 262.605L443.192 196.954L376.722 131.303L309.134 196.954L376.163 262.605ZM442.631 196.817L376.163 261.919L309.695 196.817L376.163 131.715L442.631 196.817Z" fill="url(#paint8_linear)"/>
<path d="M108.889 131.647L175.918 65.9958L108.889 0.00109166L41.6497 65.8584L108.889 131.647ZM175.357 65.8585L108.889 130.96L42.4209 65.8584L108.889 0.756524L175.357 65.8585Z" fill="#FFA200"/>
<path d="M108.889 131.647L175.918 65.9958L108.889 0.00109166L41.6497 65.8584L108.889 131.647ZM175.357 65.8585L108.889 130.96L42.4209 65.8584L108.889 0.756524L175.357 65.8585Z" fill="url(#paint9_linear)"/>
<path d="M21.8053 174.362L-2.89409e-05 153.004L21.8053 131.647L43.6108 153.004L21.8053 174.362ZM0.77115 152.798L21.8053 173.4L42.8396 152.798L21.8053 132.197L0.77115 152.798Z" fill="#FFA200"/>
<path d="M21.8053 174.362L-2.89409e-05 153.004L21.8053 131.647L43.6108 153.004L21.8053 174.362ZM0.77115 152.798L21.8053 173.4L42.8396 152.798L21.8053 132.197L0.77115 152.798Z" fill="url(#paint10_linear)"/>
<defs>
<linearGradient id="paint0_linear" x1="537.388" y1="402.947" x2="168.386" y2="10.0441" gradientUnits="userSpaceOnUse">
<stop stop-color="white"/>
<stop offset="1" stop-color="white" stop-opacity="0"/>
</linearGradient>
<linearGradient id="paint1_linear" x1="537.388" y1="402.947" x2="168.386" y2="10.0441" gradientUnits="userSpaceOnUse">
<stop stop-color="white"/>
<stop offset="1" stop-color="white" stop-opacity="0"/>
</linearGradient>
<linearGradient id="paint2_linear" x1="537.388" y1="402.947" x2="168.386" y2="10.0441" gradientUnits="userSpaceOnUse">
<stop stop-color="white"/>
<stop offset="1" stop-color="white" stop-opacity="0"/>
</linearGradient>
<linearGradient id="paint3_linear" x1="537.388" y1="402.947" x2="168.386" y2="10.0441" gradientUnits="userSpaceOnUse">
<stop stop-color="white"/>
<stop offset="1" stop-color="white" stop-opacity="0"/>
</linearGradient>
<linearGradient id="paint4_linear" x1="537.388" y1="402.947" x2="168.386" y2="10.0441" gradientUnits="userSpaceOnUse">
<stop stop-color="white"/>
<stop offset="1" stop-color="white" stop-opacity="0"/>
</linearGradient>
<linearGradient id="paint5_linear" x1="537.388" y1="402.947" x2="168.386" y2="10.0441" gradientUnits="userSpaceOnUse">
<stop stop-color="white"/>
<stop offset="1" stop-color="white" stop-opacity="0"/>
</linearGradient>
<linearGradient id="paint6_linear" x1="537.388" y1="402.947" x2="168.386" y2="10.0441" gradientUnits="userSpaceOnUse">
<stop stop-color="white"/>
<stop offset="1" stop-color="white" stop-opacity="0"/>
</linearGradient>
<linearGradient id="paint7_linear" x1="537.388" y1="402.947" x2="168.386" y2="10.0441" gradientUnits="userSpaceOnUse">
<stop stop-color="white"/>
<stop offset="1" stop-color="white" stop-opacity="0"/>
</linearGradient>
<linearGradient id="paint8_linear" x1="537.388" y1="402.947" x2="168.386" y2="10.0441" gradientUnits="userSpaceOnUse">
<stop stop-color="white"/>
<stop offset="1" stop-color="white" stop-opacity="0"/>
</linearGradient>
<linearGradient id="paint9_linear" x1="537.388" y1="402.947" x2="168.386" y2="10.0441" gradientUnits="userSpaceOnUse">
<stop stop-color="white"/>
<stop offset="1" stop-color="white" stop-opacity="0"/>
</linearGradient>
<linearGradient id="paint10_linear" x1="537.388" y1="402.947" x2="168.386" y2="10.0441" gradientUnits="userSpaceOnUse">
<stop stop-color="white"/>
<stop offset="1" stop-color="white" stop-opacity="0"/>
</linearGradient>
</defs>
</svg>
