<svg width="272" height="502" viewBox="0 0 272 502" fill="none" xmlns="http://www.w3.org/2000/svg">
<path d="M-45.476 262.605L88.7223 131.303L-45.476 3.46504e-05L-179.464 131.303L-45.476 262.605ZM87.7407 131.303L-45.476 261.781L-178.693 131.303L-45.476 0.824131L87.7407 131.303Z" fill="#FFA200"/>
<path d="M-45.476 262.605L88.7223 131.303L-45.476 3.46504e-05L-179.464 131.303L-45.476 262.605ZM87.7407 131.303L-45.476 261.781L-178.693 131.303L-45.476 0.824131L87.7407 131.303Z" fill="url(#paint0_linear)"/>
<path d="M21.3449 328.051L88.7245 262.194L21.6955 196.542L-45.3335 262.194L21.3449 328.051ZM87.813 262.194L21.3449 327.296L-45.1231 262.194L21.3449 197.092L87.813 262.194Z" fill="#FFA200"/>
<path d="M21.3449 328.051L88.7245 262.194L21.6955 196.542L-45.3335 262.194L21.3449 328.051ZM87.813 262.194L21.3449 327.296L-45.1231 262.194L21.3449 197.092L87.813 262.194Z" fill="url(#paint1_linear)"/>
<path d="M154.982 262.401L188.497 229.575L154.982 196.749L121.468 229.575L154.982 262.401ZM187.866 229.438L154.982 261.645L122.099 229.438L154.982 197.23L187.866 229.438Z" fill="#FFA200"/>
<path d="M154.982 262.401L188.497 229.575L154.982 196.749L121.468 229.575L154.982 262.401ZM187.866 229.438L154.982 261.645L122.099 229.438L154.982 197.23L187.866 229.438Z" fill="url(#paint2_linear)"/>
<path d="M154.981 197.161L174.683 177.864L154.981 158.567L135.279 177.864L154.981 197.161ZM174.122 177.658L154.981 196.406L135.84 177.658L154.981 158.91L174.122 177.658Z" fill="#FFA200"/>
<path d="M154.981 197.161L174.683 177.864L154.981 158.567L135.279 177.864L154.981 197.161ZM174.122 177.658L154.981 196.406L135.84 177.658L154.981 158.91L174.122 177.658Z" fill="url(#paint3_linear)"/>
<path d="M252.298 256.906L272 237.609L252.298 218.312L232.456 237.403L252.298 256.906ZM271.439 237.403L252.298 256.151L233.157 237.403L252.298 218.656L271.439 237.403Z" fill="#FFA200"/>
<path d="M252.298 256.906L272 237.609L252.298 218.312L232.456 237.403L252.298 256.906ZM271.439 237.403L252.298 256.151L233.157 237.403L252.298 218.656L271.439 237.403Z" fill="url(#paint4_linear)"/>
<path d="M-112.295 328.051L-45.2656 262.4L-112.295 196.748L-179.324 262.4L-112.295 328.051ZM-45.8265 262.194L-112.295 327.296L-178.763 262.194L-112.295 197.092L-45.8265 262.194Z" fill="#FFA200"/>
<path d="M-112.295 328.051L-45.2656 262.4L-112.295 196.748L-179.324 262.4L-112.295 328.051ZM-45.8265 262.194L-112.295 327.296L-178.763 262.194L-112.295 197.092L-45.8265 262.194Z" fill="url(#paint5_linear)"/>
<path d="M-45.4754 502L77.154 381.891L-45.4754 261.851L-168.105 381.891L-45.4754 502ZM76.3828 381.891L-45.4754 501.245L-167.334 381.891L-45.476 262.605L76.3828 381.891Z" fill="#FFA200"/>
<path d="M-45.4754 502L77.154 381.891L-45.4754 261.851L-168.105 381.891L-45.4754 502ZM76.3828 381.891L-45.4754 501.245L-167.334 381.891L-45.476 262.605L76.3828 381.891Z" fill="url(#paint6_linear)"/>
<path d="M-38.2526 170.859L-16.4471 149.365L-38.2526 128.007L-60.058 149.365L-38.2526 170.859ZM-17.2184 149.296L-38.2526 169.898L-59.2868 149.296L-38.2526 128.694L-17.2184 149.296Z" fill="#FFA200"/>
<path d="M-38.2526 170.859L-16.4471 149.365L-38.2526 128.007L-60.058 149.365L-38.2526 170.859ZM-17.2184 149.296L-38.2526 169.898L-59.2868 149.296L-38.2526 128.694L-17.2184 149.296Z" fill="url(#paint7_linear)"/>
<path d="M88.1631 262.605L155.192 196.954L88.7223 131.303L21.1341 196.954L88.1631 262.605ZM154.631 196.817L88.1631 261.919L21.695 196.817L88.1632 131.715L154.631 196.817Z" fill="#FFA200"/>
<path d="M88.1631 262.605L155.192 196.954L88.7223 131.303L21.1341 196.954L88.1631 262.605ZM154.631 196.817L88.1631 261.919L21.695 196.817L88.1632 131.715L154.631 196.817Z" fill="url(#paint8_linear)"/>
<path d="M-179.111 131.647L-112.082 65.9958L-179.111 0.00109166L-246.35 65.8584L-179.111 131.647ZM-112.643 65.8585L-179.111 130.96L-245.579 65.8584L-179.111 0.756524L-112.643 65.8585Z" fill="#FFA200"/>
<path d="M-179.111 131.647L-112.082 65.9958L-179.111 0.00109166L-246.35 65.8584L-179.111 131.647ZM-112.643 65.8585L-179.111 130.96L-245.579 65.8584L-179.111 0.756524L-112.643 65.8585Z" fill="url(#paint9_linear)"/>
<path d="M-266.195 174.362L-288 153.004L-266.195 131.647L-244.389 153.004L-266.195 174.362ZM-287.229 152.798L-266.195 173.4L-245.16 152.798L-266.195 132.197L-287.229 152.798Z" fill="#FFA200"/>
<path d="M-266.195 174.362L-288 153.004L-266.195 131.647L-244.389 153.004L-266.195 174.362ZM-287.229 152.798L-266.195 173.4L-245.16 152.798L-266.195 132.197L-287.229 152.798Z" fill="url(#paint10_linear)"/>
<defs>
<linearGradient id="paint0_linear" x1="249.388" y1="402.947" x2="-119.614" y2="10.0441" gradientUnits="userSpaceOnUse">
<stop stop-color="white"/>
<stop offset="1" stop-color="white" stop-opacity="0"/>
</linearGradient>
<linearGradient id="paint1_linear" x1="249.388" y1="402.947" x2="-119.614" y2="10.0441" gradientUnits="userSpaceOnUse">
<stop stop-color="white"/>
<stop offset="1" stop-color="white" stop-opacity="0"/>
</linearGradient>
<linearGradient id="paint2_linear" x1="249.388" y1="402.947" x2="-119.614" y2="10.0441" gradientUnits="userSpaceOnUse">
<stop stop-color="white"/>
<stop offset="1" stop-color="white" stop-opacity="0"/>
</linearGradient>
<linearGradient id="paint3_linear" x1="249.388" y1="402.947" x2="-119.614" y2="10.0441" gradientUnits="userSpaceOnUse">
<stop stop-color="white"/>
<stop offset="1" stop-color="white" stop-opacity="0"/>
</linearGradient>
<linearGradient id="paint4_linear" x1="249.388" y1="402.947" x2="-119.614" y2="10.0441" gradientUnits="userSpaceOnUse">
<stop stop-color="white"/>
<stop offset="1" stop-color="white" stop-opacity="0"/>
</linearGradient>
<linearGradient id="paint5_linear" x1="249.388" y1="402.947" x2="-119.614" y2="10.0441" gradientUnits="userSpaceOnUse">
<stop stop-color="white"/>
<stop offset="1" stop-color="white" stop-opacity="0"/>
</linearGradient>
<linearGradient id="paint6_linear" x1="249.388" y1="402.947" x2="-119.614" y2="10.0441" gradientUnits="userSpaceOnUse">
<stop stop-color="white"/>
<stop offset="1" stop-color="white" stop-opacity="0"/>
</linearGradient>
<linearGradient id="paint7_linear" x1="249.388" y1="402.947" x2="-119.614" y2="10.0441" gradientUnits="userSpaceOnUse">
<stop stop-color="white"/>
<stop offset="1" stop-color="white" stop-opacity="0"/>
</linearGradient>
<linearGradient id="paint8_linear" x1="249.388" y1="402.947" x2="-119.614" y2="10.0441" gradientUnits="userSpaceOnUse">
<stop stop-color="white"/>
<stop offset="1" stop-color="white" stop-opacity="0"/>
</linearGradient>
<linearGradient id="paint9_linear" x1="249.388" y1="402.947" x2="-119.614" y2="10.0441" gradientUnits="userSpaceOnUse">
<stop stop-color="white"/>
<stop offset="1" stop-color="white" stop-opacity="0"/>
</linearGradient>
<linearGradient id="paint10_linear" x1="249.388" y1="402.947" x2="-119.614" y2="10.0441" gradientUnits="userSpaceOnUse">
<stop stop-color="white"/>
<stop offset="1" stop-color="white" stop-opacity="0"/>
</linearGradient>
</defs>
</svg>
