<svg width="369" height="324" viewBox="0 0 369 324" fill="none" xmlns="http://www.w3.org/2000/svg">
<path d="M209.194 154.297L120.767 238.819L209.194 323.341L297.482 238.819L209.194 154.297ZM121.414 238.819L209.194 154.828L296.974 238.819L209.194 322.811L121.414 238.819Z" fill="#FFA200"/>
<path d="M209.194 154.297L120.767 238.819L209.194 323.341L297.482 238.819L209.194 154.297ZM121.414 238.819L209.194 154.828L296.974 238.819L209.194 322.811L121.414 238.819Z" fill="url(#paint0_linear)"/>
<path d="M165.164 112.168L120.765 154.562L164.933 196.823L209.1 154.562L165.164 112.168ZM121.366 154.562L165.164 112.655L208.962 154.562L165.164 196.469L121.366 154.562Z" fill="#FFA200"/>
<path d="M165.164 112.168L120.765 154.562L164.933 196.823L209.1 154.562L165.164 112.168ZM121.366 154.562L165.164 112.655L208.962 154.562L165.164 196.469L121.366 154.562Z" fill="url(#paint1_linear)"/>
<path d="M77.1063 154.429L55.0227 175.559L77.1063 196.69L99.19 175.559L77.1063 154.429ZM55.4385 175.648L77.1063 154.915L98.7742 175.648L77.1063 196.381L55.4385 175.648Z" fill="#FFA200"/>
<path d="M77.1063 154.429L55.0227 175.559L77.1063 196.69L99.19 175.559L77.1063 154.429ZM55.4385 175.648L77.1063 154.915L98.7742 175.648L77.1063 196.381L55.4385 175.648Z" fill="url(#paint2_linear)"/>
<path d="M77.1074 196.425L64.1252 208.847L77.1074 221.269L90.0896 208.847L77.1074 196.425ZM64.4948 208.979L77.1074 196.911L89.72 208.979L77.1074 221.048L64.4948 208.979Z" fill="#FFA200"/>
<path d="M77.1074 196.425L64.1252 208.847L77.1074 221.269L90.0896 208.847L77.1074 196.425ZM64.4948 208.979L77.1074 196.911L89.72 208.979L77.1074 221.048L64.4948 208.979Z" fill="url(#paint3_linear)"/>
<path d="M12.9822 157.966L0 170.388L12.9822 182.809L26.0569 170.52L12.9822 157.966ZM0.36961 170.52L12.9822 158.452L25.5949 170.52L12.9822 182.588L0.36961 170.52Z" fill="#FFA200"/>
<path d="M12.9822 157.966L0 170.388L12.9822 182.809L26.0569 170.52L12.9822 157.966ZM0.36961 170.52L12.9822 158.452L25.5949 170.52L12.9822 182.588L0.36961 170.52Z" fill="url(#paint4_linear)"/>
<path d="M253.223 112.168L209.055 154.429L253.223 196.691L297.39 154.429L253.223 112.168ZM209.425 154.562L253.223 112.655L297.02 154.562L253.223 196.469L209.425 154.562Z" fill="#FFA200"/>
<path d="M253.223 112.168L209.055 154.429L253.223 196.691L297.39 154.429L253.223 112.168ZM209.425 154.562L253.223 112.655L297.02 154.562L253.223 196.469L209.425 154.562Z" fill="url(#paint5_linear)"/>
<path d="M209.194 0.194092L128.39 77.5106L209.194 154.783L289.998 77.5106L209.194 0.194092ZM128.898 77.5106L209.194 0.68036L289.489 77.5106L209.194 154.297L128.898 77.5106Z" fill="#FFA200"/>
<path d="M209.194 0.194092L128.39 77.5106L209.194 154.783L289.998 77.5106L209.194 0.194092ZM128.898 77.5106L209.194 0.68036L289.489 77.5106L209.194 154.297L128.898 77.5106Z" fill="url(#paint6_linear)"/>
<path d="M112.682 257.297L98.3133 271.045L112.682 284.793L127.05 271.045L112.682 257.297ZM98.8215 271.177L112.682 257.915L126.542 271.177L112.682 284.439L98.8215 271.177Z" fill="#FFA200"/>
<path d="M112.682 257.297L98.3133 271.045L112.682 284.793L127.05 271.045L112.682 257.297ZM98.8215 271.177L112.682 257.915L126.542 271.177L112.682 284.439L98.8215 271.177Z" fill="url(#paint7_linear)"/>
<path d="M204.434 213.356L190.066 227.192L204.434 240.94L218.803 227.192L204.434 213.356ZM190.574 227.237L204.434 213.975L218.294 227.237L204.434 240.498L190.574 227.237Z" fill="#FFA200"/>
<path d="M204.434 213.356L190.066 227.192L204.434 240.94L218.803 227.192L204.434 213.356ZM190.574 227.237L204.434 213.975L218.294 227.237L204.434 240.498L190.574 227.237Z" fill="url(#paint8_linear)"/>
<path d="M121.135 154.297L76.968 196.558L120.767 238.819L165.303 196.558L121.135 154.297ZM77.3377 196.647L121.135 154.739L164.933 196.647L121.135 238.554L77.3377 196.647Z" fill="#FFA200"/>
<path d="M121.135 154.297L76.968 196.558L120.767 238.819L165.303 196.558L121.135 154.297ZM77.3377 196.647L121.135 154.739L164.933 196.647L121.135 238.554L77.3377 196.647Z" fill="url(#paint9_linear)"/>
<path d="M297.25 238.598L253.083 280.859L297.25 323.341L341.556 280.947L297.25 238.598ZM253.452 280.947L297.25 239.04L341.048 280.947L297.25 322.854L253.452 280.947Z" fill="#FFA200"/>
<path d="M297.25 238.598L253.083 280.859L297.25 323.341L341.556 280.947L297.25 238.598ZM253.452 280.947L297.25 239.04L341.048 280.947L297.25 322.854L253.452 280.947Z" fill="url(#paint10_linear)"/>
<path d="M354.632 211.101L369 224.849L354.632 238.597L340.264 224.849L354.632 211.101ZM368.492 224.982L354.632 211.72L340.772 224.982L354.632 238.244L368.492 224.982Z" fill="#FFA200"/>
<path d="M354.632 211.101L369 224.849L354.632 238.597L340.264 224.849L354.632 211.101ZM368.492 224.982L354.632 211.72L340.772 224.982L354.632 238.244L368.492 224.982Z" fill="url(#paint11_linear)"/>
<defs>
<linearGradient id="paint0_linear" x1="14.8999" y1="63.9562" x2="252.022" y2="322.403" gradientUnits="userSpaceOnUse">
<stop stop-color="white"/>
<stop offset="1" stop-color="white" stop-opacity="0"/>
</linearGradient>
<linearGradient id="paint1_linear" x1="14.8999" y1="63.9562" x2="252.022" y2="322.403" gradientUnits="userSpaceOnUse">
<stop stop-color="white"/>
<stop offset="1" stop-color="white" stop-opacity="0"/>
</linearGradient>
<linearGradient id="paint2_linear" x1="14.8999" y1="63.9562" x2="252.022" y2="322.403" gradientUnits="userSpaceOnUse">
<stop stop-color="white"/>
<stop offset="1" stop-color="white" stop-opacity="0"/>
</linearGradient>
<linearGradient id="paint3_linear" x1="14.8999" y1="63.9562" x2="252.022" y2="322.403" gradientUnits="userSpaceOnUse">
<stop stop-color="white"/>
<stop offset="1" stop-color="white" stop-opacity="0"/>
</linearGradient>
<linearGradient id="paint4_linear" x1="14.8999" y1="63.9562" x2="252.022" y2="322.403" gradientUnits="userSpaceOnUse">
<stop stop-color="white"/>
<stop offset="1" stop-color="white" stop-opacity="0"/>
</linearGradient>
<linearGradient id="paint5_linear" x1="14.8999" y1="63.9562" x2="252.022" y2="322.403" gradientUnits="userSpaceOnUse">
<stop stop-color="white"/>
<stop offset="1" stop-color="white" stop-opacity="0"/>
</linearGradient>
<linearGradient id="paint6_linear" x1="14.8999" y1="63.9562" x2="252.022" y2="322.403" gradientUnits="userSpaceOnUse">
<stop stop-color="white"/>
<stop offset="1" stop-color="white" stop-opacity="0"/>
</linearGradient>
<linearGradient id="paint7_linear" x1="14.8999" y1="63.9562" x2="252.022" y2="322.403" gradientUnits="userSpaceOnUse">
<stop stop-color="white"/>
<stop offset="1" stop-color="white" stop-opacity="0"/>
</linearGradient>
<linearGradient id="paint8_linear" x1="14.8999" y1="63.9562" x2="252.022" y2="322.403" gradientUnits="userSpaceOnUse">
<stop stop-color="white"/>
<stop offset="1" stop-color="white" stop-opacity="0"/>
</linearGradient>
<linearGradient id="paint9_linear" x1="14.8999" y1="63.9562" x2="252.022" y2="322.403" gradientUnits="userSpaceOnUse">
<stop stop-color="white"/>
<stop offset="1" stop-color="white" stop-opacity="0"/>
</linearGradient>
<linearGradient id="paint10_linear" x1="14.8999" y1="63.9562" x2="252.022" y2="322.403" gradientUnits="userSpaceOnUse">
<stop stop-color="white"/>
<stop offset="1" stop-color="white" stop-opacity="0"/>
</linearGradient>
<linearGradient id="paint11_linear" x1="14.8999" y1="63.9562" x2="252.022" y2="322.403" gradientUnits="userSpaceOnUse">
<stop stop-color="white"/>
<stop offset="1" stop-color="white" stop-opacity="0"/>
</linearGradient>
</defs>
</svg>
