<svg width="369" height="338" viewBox="0 0 369 338" fill="none" xmlns="http://www.w3.org/2000/svg">
<path d="M209.194 161.14L120.767 249.521L209.194 337.902L297.482 249.521L209.194 161.14ZM121.414 249.521L209.194 161.694L296.974 249.521L209.194 337.348L121.414 249.521Z" fill="#FFA200"/>
<path d="M209.194 161.14L120.767 249.521L209.194 337.902L297.482 249.521L209.194 161.14ZM121.414 249.521L209.194 161.694L296.974 249.521L209.194 337.348L121.414 249.521Z" fill="url(#paint0_linear)"/>
<path d="M165.164 117.087L120.765 161.417L164.933 205.607L209.1 161.417L165.164 117.087ZM121.366 161.417L165.164 117.596L208.962 161.417L165.164 205.238L121.366 161.417Z" fill="#FFA200"/>
<path d="M165.164 117.087L120.765 161.417L164.933 205.607L209.1 161.417L165.164 117.087ZM121.366 161.417L165.164 117.596L208.962 161.417L165.164 205.238L121.366 161.417Z" fill="url(#paint1_linear)"/>
<path d="M77.1063 161.277L55.0227 183.373L77.1063 205.468L99.19 183.373L77.1063 161.277ZM55.4385 183.465L77.1063 161.786L98.7742 183.465L77.1063 205.144L55.4385 183.465Z" fill="#FFA200"/>
<path d="M77.1063 161.277L55.0227 183.373L77.1063 205.468L99.19 183.373L77.1063 161.277ZM55.4385 183.465L77.1063 161.786L98.7742 183.465L77.1063 205.144L55.4385 183.465Z" fill="url(#paint2_linear)"/>
<path d="M77.1074 205.191L64.1252 218.18L77.1074 231.169L90.0896 218.18L77.1074 205.191ZM64.4948 218.319L77.1074 205.699L89.72 218.319L77.1074 230.938L64.4948 218.319Z" fill="#FFA200"/>
<path d="M77.1074 205.191L64.1252 218.18L77.1074 231.169L90.0896 218.18L77.1074 205.191ZM64.4948 218.319L77.1074 205.699L89.72 218.319L77.1074 230.938L64.4948 218.319Z" fill="url(#paint3_linear)"/>
<path d="M12.9822 164.975L0 177.965L12.9822 190.954L26.0569 178.103L12.9822 164.975ZM0.36961 178.103L12.9822 165.484L25.5949 178.103L12.9822 190.723L0.36961 178.103Z" fill="#FFA200"/>
<path d="M12.9822 164.975L0 177.965L12.9822 190.954L26.0569 178.103L12.9822 164.975ZM0.36961 178.103L12.9822 165.484L25.5949 178.103L12.9822 190.723L0.36961 178.103Z" fill="url(#paint4_linear)"/>
<path d="M253.223 117.087L209.055 161.278L253.223 205.469L297.39 161.278L253.223 117.087ZM209.425 161.417L253.223 117.596L297.02 161.417L253.223 205.238L209.425 161.417Z" fill="#FFA200"/>
<path d="M253.223 117.087L209.055 161.278L253.223 205.469L297.39 161.278L253.223 117.087ZM209.425 161.417L253.223 117.596L297.02 161.417L253.223 205.238L209.425 161.417Z" fill="url(#paint5_linear)"/>
<path d="M209.194 0L128.39 80.8468L209.194 161.647L289.998 80.8468L209.194 0ZM128.898 80.8468L209.194 0.508471L289.489 80.8468L209.194 161.14L128.898 80.8468Z" fill="#FFA200"/>
<path d="M209.194 0L128.39 80.8468L209.194 161.647L289.998 80.8468L209.194 0ZM128.898 80.8468L209.194 0.508471L289.489 80.8468L209.194 161.14L128.898 80.8468Z" fill="url(#paint6_linear)"/>
<path d="M112.682 268.842L98.3133 283.218L112.682 297.594L127.05 283.218L112.682 268.842ZM98.8215 283.357L112.682 269.489L126.542 283.357L112.682 297.224L98.8215 283.357Z" fill="#FFA200"/>
<path d="M112.682 268.842L98.3133 283.218L112.682 297.594L127.05 283.218L112.682 268.842ZM98.8215 283.357L112.682 269.489L126.542 283.357L112.682 297.224L98.8215 283.357Z" fill="url(#paint7_linear)"/>
<path d="M204.434 222.895L190.066 237.363L204.434 251.739L218.803 237.363L204.434 222.895ZM190.574 237.409L204.434 223.542L218.294 237.409L204.434 251.277L190.574 237.409Z" fill="#FFA200"/>
<path d="M204.434 222.895L190.066 237.363L204.434 251.739L218.803 237.363L204.434 222.895ZM190.574 237.409L204.434 223.542L218.294 237.409L204.434 251.277L190.574 237.409Z" fill="url(#paint8_linear)"/>
<path d="M121.135 161.14L76.968 205.33L120.767 249.521L165.303 205.33L121.135 161.14ZM77.3377 205.423L121.135 161.602L164.933 205.423L121.135 249.244L77.3377 205.423Z" fill="#FFA200"/>
<path d="M121.135 161.14L76.968 205.33L120.767 249.521L165.303 205.33L121.135 161.14ZM77.3377 205.423L121.135 161.602L164.933 205.423L121.135 249.244L77.3377 205.423Z" fill="url(#paint9_linear)"/>
<path d="M297.25 249.289L253.083 293.48L297.25 337.902L341.556 293.572L297.25 249.289ZM253.452 293.572L297.25 249.751L341.048 293.572L297.25 337.393L253.452 293.572Z" fill="#FFA200"/>
<path d="M297.25 249.289L253.083 293.48L297.25 337.902L341.556 293.572L297.25 249.289ZM253.452 293.572L297.25 249.751L341.048 293.572L297.25 337.393L253.452 293.572Z" fill="url(#paint10_linear)"/>
<path d="M354.632 220.537L369 234.913L354.632 249.289L340.264 234.913L354.632 220.537ZM368.492 235.052L354.632 221.185L340.772 235.052L354.632 248.919L368.492 235.052Z" fill="#FFA200"/>
<path d="M354.632 220.537L369 234.913L354.632 249.289L340.264 234.913L354.632 220.537ZM368.492 235.052L354.632 221.185L340.772 235.052L354.632 248.919L368.492 235.052Z" fill="url(#paint11_linear)"/>
<defs>
<linearGradient id="paint0_linear" x1="14.8999" y1="66.6735" x2="263.555" y2="325.856" gradientUnits="userSpaceOnUse">
<stop stop-color="white"/>
<stop offset="1" stop-color="white" stop-opacity="0"/>
</linearGradient>
<linearGradient id="paint1_linear" x1="14.8999" y1="66.6735" x2="263.555" y2="325.856" gradientUnits="userSpaceOnUse">
<stop stop-color="white"/>
<stop offset="1" stop-color="white" stop-opacity="0"/>
</linearGradient>
<linearGradient id="paint2_linear" x1="14.8999" y1="66.6735" x2="263.555" y2="325.856" gradientUnits="userSpaceOnUse">
<stop stop-color="white"/>
<stop offset="1" stop-color="white" stop-opacity="0"/>
</linearGradient>
<linearGradient id="paint3_linear" x1="14.8999" y1="66.6735" x2="263.555" y2="325.856" gradientUnits="userSpaceOnUse">
<stop stop-color="white"/>
<stop offset="1" stop-color="white" stop-opacity="0"/>
</linearGradient>
<linearGradient id="paint4_linear" x1="14.8999" y1="66.6735" x2="263.555" y2="325.856" gradientUnits="userSpaceOnUse">
<stop stop-color="white"/>
<stop offset="1" stop-color="white" stop-opacity="0"/>
</linearGradient>
<linearGradient id="paint5_linear" x1="14.8999" y1="66.6735" x2="263.555" y2="325.856" gradientUnits="userSpaceOnUse">
<stop stop-color="white"/>
<stop offset="1" stop-color="white" stop-opacity="0"/>
</linearGradient>
<linearGradient id="paint6_linear" x1="14.8999" y1="66.6735" x2="263.555" y2="325.856" gradientUnits="userSpaceOnUse">
<stop stop-color="white"/>
<stop offset="1" stop-color="white" stop-opacity="0"/>
</linearGradient>
<linearGradient id="paint7_linear" x1="14.8999" y1="66.6735" x2="263.555" y2="325.856" gradientUnits="userSpaceOnUse">
<stop stop-color="white"/>
<stop offset="1" stop-color="white" stop-opacity="0"/>
</linearGradient>
<linearGradient id="paint8_linear" x1="14.8999" y1="66.6735" x2="263.555" y2="325.856" gradientUnits="userSpaceOnUse">
<stop stop-color="white"/>
<stop offset="1" stop-color="white" stop-opacity="0"/>
</linearGradient>
<linearGradient id="paint9_linear" x1="14.8999" y1="66.6735" x2="263.555" y2="325.856" gradientUnits="userSpaceOnUse">
<stop stop-color="white"/>
<stop offset="1" stop-color="white" stop-opacity="0"/>
</linearGradient>
<linearGradient id="paint10_linear" x1="14.8999" y1="66.6735" x2="263.555" y2="325.856" gradientUnits="userSpaceOnUse">
<stop stop-color="white"/>
<stop offset="1" stop-color="white" stop-opacity="0"/>
</linearGradient>
<linearGradient id="paint11_linear" x1="14.8999" y1="66.6735" x2="263.555" y2="325.856" gradientUnits="userSpaceOnUse">
<stop stop-color="white"/>
<stop offset="1" stop-color="white" stop-opacity="0"/>
</linearGradient>
</defs>
</svg>
