<svg width="15" height="26" viewBox="0 0 15 26" fill="none" xmlns="http://www.w3.org/2000/svg">
<path d="M13.256 0H1.74405C0.784969 0 0 0.789657 0 1.75611V24.2431C0 25.2096 0.784969 26 1.74405 26H13.256C14.215 26 15 25.2111 15 24.2439V1.75611C15 0.789657 14.215 0 13.256 0ZM5.65857 1.26583H9.34143C9.458 1.26583 9.55243 1.36091 9.55243 1.47903C9.55243 1.5964 9.458 1.69149 9.34143 1.69149H5.65857C5.542 1.69149 5.44757 1.5964 5.44757 1.47903C5.44757 1.36091 5.542 1.26583 5.65857 1.26583ZM7.5 25.1219C7.01825 25.1219 6.62798 24.729 6.62798 24.2431C6.62798 23.7573 7.01825 23.3651 7.5 23.3651C7.98175 23.3651 8.37202 23.7573 8.37202 24.2431C8.37202 24.729 7.98175 25.1219 7.5 25.1219ZM13.7864 22.75H1.2136V2.78497H13.7864V22.75Z" fill="#018DBD"/>
</svg>
