<svg width="12" height="19" viewBox="0 0 12 19" fill="none" xmlns="http://www.w3.org/2000/svg">
<path d="M10.0159 0H1.43586C0.721039 0 0.135986 0.577057 0.135986 1.28331V17.7161C0.135986 18.4224 0.721039 19 1.43586 19H10.0159C10.7307 19 11.3158 18.4235 11.3158 17.7167V1.28331C11.3158 0.577057 10.7307 0 10.0159 0ZM4.35343 0.925029H7.09834C7.18521 0.925029 7.2556 0.994514 7.2556 1.08083C7.2556 1.1666 7.18521 1.23609 7.09834 1.23609H4.35343C4.26655 1.23609 4.19617 1.1666 4.19617 1.08083C4.19617 0.994514 4.26655 0.925029 4.35343 0.925029ZM5.72588 18.3583C5.36682 18.3583 5.07594 18.0712 5.07594 17.7161C5.07594 17.3611 5.36682 17.0745 5.72588 17.0745C6.08494 17.0745 6.37582 17.3611 6.37582 17.7161C6.37582 18.0712 6.08494 18.3583 5.72588 18.3583ZM10.4113 16.625H1.04051V2.03517H10.4113V16.625Z" fill="black"/>
</svg>
