<svg width="12" height="20" viewBox="0 0 12 20" fill="none" xmlns="http://www.w3.org/2000/svg">
<path d="M10.1984 0H1.80171C0.992374 0 0.333374 0.659 0.333374 1.46833V18.5313C0.333374 19.341 0.992374 20 1.80171 20H10.198C11.0077 20 11.6667 19.341 11.6667 18.5317V1.46833C11.6667 0.659 11.0077 0 10.1984 0ZM1.00004 2.66667H11V15.3333H1.00004V2.66667ZM1.80171 0.666667H10.198C10.6404 0.666667 11 1.02633 11 1.46833V2H1.00004V1.46833C1.00004 1.02633 1.35971 0.666667 1.80171 0.666667ZM10.1984 19.3333H1.80171C1.35971 19.3333 1.00004 18.9737 1.00004 18.5317V16H11V18.5317C11 18.9737 10.6404 19.3333 10.1984 19.3333Z" fill="white"/>
<path d="M6.00008 16.3335C5.26475 16.3335 4.66675 16.9315 4.66675 17.6668C4.66675 18.4022 5.26475 19.0002 6.00008 19.0002C6.73541 19.0002 7.33341 18.4022 7.33341 17.6668C7.33341 16.9315 6.73541 16.3335 6.00008 16.3335ZM6.00008 18.3335C5.63241 18.3335 5.33341 18.0345 5.33341 17.6668C5.33341 17.2992 5.63241 17.0002 6.00008 17.0002C6.36775 17.0002 6.66675 17.2992 6.66675 17.6668C6.66675 18.0345 6.36775 18.3335 6.00008 18.3335Z" fill="white"/>
<path d="M5.42421 1.66618H6.75755C6.94188 1.66618 7.09088 1.51718 7.09088 1.33285C7.09088 1.14851 6.94188 0.999512 6.75755 0.999512H5.42421C5.23988 0.999512 5.09088 1.14851 5.09088 1.33285C5.09088 1.51718 5.23988 1.66618 5.42421 1.66618Z" fill="white"/>
</svg>
