<svg width="17" height="29" viewBox="0 0 17 29" fill="none" xmlns="http://www.w3.org/2000/svg">
<path d="M14.9644 0H2.0354C0.95826 0 0.0766602 0.880772 0.0766602 1.95874V27.0404C0.0766602 28.1184 0.95826 29 2.0354 29H14.9644C16.0416 29 16.9232 28.1201 16.9232 27.0413V1.95874C16.9232 0.880772 16.0416 0 14.9644 0ZM6.4318 1.41189H10.568C10.6989 1.41189 10.805 1.51794 10.805 1.64969C10.805 1.7806 10.6989 1.88666 10.568 1.88666H6.4318C6.30089 1.88666 6.19483 1.7806 6.19483 1.64969C6.19483 1.51794 6.30089 1.41189 6.4318 1.41189ZM8.49992 28.0206C7.95886 28.0206 7.52055 27.5823 7.52055 27.0404C7.52055 26.4985 7.95886 26.0611 8.49992 26.0611C9.04097 26.0611 9.47929 26.4985 9.47929 27.0404C9.47929 27.5823 9.04097 28.0206 8.49992 28.0206ZM15.5602 25.375H1.43966V3.10631H15.5602V25.375Z" fill="#018DBD"/>
</svg>
