<svg width="13" height="16" viewBox="0 0 13 16" fill="none" xmlns="http://www.w3.org/2000/svg">
<path opacity="0.2" d="M6.26825 0.00407228C3.03099 0.115611 0.341634 2.5957 0.030938 5.76142C-0.0325376 6.39457 0.00421149 7.00803 0.117799 7.59525C0.117799 7.59525 0.127822 7.66414 0.16123 7.79536C0.261455 8.23495 0.411791 8.66142 0.598877 9.06165C1.25034 10.5773 2.75705 13.1131 6.13796 15.8721C6.34509 16.0426 6.6491 16.0426 6.85957 15.8721C10.2405 13.1164 11.7472 10.5805 12.402 9.05837C12.5924 8.65814 12.7394 8.23495 12.8396 7.79208C12.8697 7.66414 12.8831 7.59197 12.8831 7.59197C12.9599 7.1983 13 6.7948 13 6.38145C13 2.77941 9.9632 -0.123869 6.26825 0.00407228ZM6.49877 9.55701C4.75486 9.55701 3.34169 8.16934 3.34169 6.4569C3.34169 4.74446 4.75486 3.35679 6.49877 3.35679C8.24267 3.35679 9.65584 4.74446 9.65584 6.4569C9.65584 8.16934 8.24267 9.55701 6.49877 9.55701Z" fill="black"/>
</svg>
