<svg width="19" height="23" viewBox="0 0 19 23" fill="none" xmlns="http://www.w3.org/2000/svg">
<path d="M9.16129 0.0058539C4.42991 0.16619 0.499312 3.73132 0.045217 8.28205C-0.047555 9.19219 0.00615525 10.074 0.172168 10.9182C0.172168 10.9182 0.186816 11.0172 0.235644 11.2058C0.382126 11.8377 0.601849 12.4508 0.875282 13.0261C1.82742 15.2048 4.02953 18.8501 8.97086 22.8161C9.27359 23.0613 9.71792 23.0613 10.0255 22.8161C14.9669 18.8548 17.169 15.2095 18.126 13.0214C18.4043 12.4461 18.6191 11.8377 18.7656 11.2011C18.8096 11.0172 18.8291 10.9135 18.8291 10.9135C18.9414 10.3476 19 9.76752 19 9.17333C19 3.9954 14.5616 -0.178062 9.16129 0.0058539ZM9.4982 13.7382C6.94941 13.7382 4.88401 11.7434 4.88401 9.28179C4.88401 6.82016 6.94941 4.82538 9.4982 4.82538C12.047 4.82538 14.1124 6.82016 14.1124 9.28179C14.1124 11.7434 12.047 13.7382 9.4982 13.7382Z" fill="#FFA200"/>
</svg>
