<svg width="11" height="14" viewBox="0 0 11 14" fill="none" xmlns="http://www.w3.org/2000/svg">
<path d="M5.3128 0.253405L5.31285 0.253403C8.29354 0.146675 10.75 2.56921 10.75 5.58377C10.75 5.92971 10.7176 6.26726 10.6554 6.5966L10.655 6.59878L10.655 6.5988L10.655 6.59884L10.655 6.59887L10.655 6.59889L10.655 6.59891L10.655 6.59901L10.6547 6.60055L10.6533 6.60791L10.6472 6.63911C10.6415 6.66701 10.6328 6.70879 10.6205 6.76267L10.6201 6.76462C10.5391 7.13469 10.4204 7.48786 10.2669 7.82158L10.2667 7.8215L10.2632 7.83005C9.72414 9.12582 8.47293 11.3117 5.64357 13.6965C5.55763 13.7685 5.43683 13.7668 5.35575 13.6977L5.35488 13.697C2.52509 11.3091 1.27379 9.12298 0.737594 7.83299L0.737702 7.83294L0.734549 7.82597C0.582915 7.49052 0.461407 7.1338 0.380562 6.76711L0.380635 6.7671L0.379176 6.76118C0.366083 6.70799 0.357812 6.66842 0.352959 6.64316C0.350532 6.63053 0.348959 6.62148 0.348064 6.61609L0.347247 6.61101L0.347491 6.61098L0.345414 6.59988C0.253329 6.10759 0.223719 5.59444 0.275012 5.06537L0.27506 5.06487C0.526353 2.41712 2.70172 0.346436 5.3128 0.253405ZM2.57758 5.64979C2.57758 7.28262 3.88167 8.61239 5.49896 8.61239C7.11624 8.61239 8.42033 7.28262 8.42033 5.64979C8.42033 4.01695 7.11624 2.68719 5.49896 2.68719C3.88167 2.68719 2.57758 4.01695 2.57758 5.64979Z" stroke="white" stroke-width="0.5"/>
</svg>
