<svg width="22" height="9" viewBox="0 0 22 9" fill="none" xmlns="http://www.w3.org/2000/svg">
<path d="M22 4.50211C22 4.21546 21.7441 3.98361 21.4277 3.98361H1.94501L5.36971 0.881031C5.59306 0.678689 5.59306 0.354098 5.36971 0.151756C5.14636 -0.0505855 4.78807 -0.0505855 4.56472 0.151756L0.167513 4.13536C-0.0558376 4.3377 -0.0558376 4.6623 0.167513 4.86464L4.56472 8.84824C4.6764 8.94941 4.82064 9 4.96954 9C5.11844 9 5.26269 8.94941 5.37437 8.84824C5.59772 8.6459 5.59772 8.32131 5.37437 8.11897L1.94966 5.01639H21.437C21.7441 5.01639 22 4.78876 22 4.50211Z" fill="#BDBDBD"/>
</svg>
