<svg width="18" height="18" viewBox="0 0 18 18" fill="none" xmlns="http://www.w3.org/2000/svg">
<path d="M17.701 12.5963V5.95837C17.701 5.12449 17.0214 4.4449 16.1876 4.4449H14.3655V0.973469C14.3655 0.437143 13.9284 0 13.3921 0H4.60878C4.07246 0 3.63531 0.437143 3.63531 0.973469V4.4449H1.81327C0.979396 4.4449 0.299805 5.12449 0.299805 5.95837V12.5963C0.299805 13.4302 0.979396 14.1098 1.81327 14.1098H3.63531V17.0265C3.63531 17.5629 4.07246 18 4.60878 18H13.3921C13.9284 18 14.3655 17.5629 14.3655 17.0265V14.1061H16.1876C17.0251 14.1061 17.701 13.4302 17.701 12.5963ZM4.36266 0.973469C4.36266 0.837551 4.47287 0.727347 4.60878 0.727347H13.3921C13.528 0.727347 13.6382 0.837551 13.6382 0.973469V4.4449H4.36266V0.973469ZM13.6418 17.0265C13.6418 17.1624 13.5316 17.2727 13.3957 17.2727H4.60878C4.47287 17.2727 4.36266 17.1624 4.36266 17.0265V9.64286H13.6382V17.0265H13.6418ZM16.9737 12.5963C16.9737 13.0298 16.621 13.3824 16.1876 13.3824H14.3655V9.27918C14.3655 9.07714 14.2039 8.91551 14.0018 8.91551H3.99899C3.79695 8.91551 3.63531 9.07714 3.63531 9.27918V13.3824H1.81327C1.3798 13.3824 1.02715 13.0298 1.02715 12.5963V5.95837C1.02715 5.5249 1.3798 5.17225 1.81327 5.17225H16.1876C16.621 5.17225 16.9737 5.5249 16.9737 5.95837V12.5963Z" fill="#FFA200"/>
<path d="M2.88614 6.66992C2.79062 6.66992 2.69879 6.71033 2.62899 6.77645C2.56287 6.84625 2.52246 6.93808 2.52246 7.03359C2.52246 7.1291 2.56287 7.22094 2.62899 7.29074C2.69879 7.35686 2.79062 7.39727 2.88614 7.39727C2.98165 7.39727 3.07348 7.35686 3.14328 7.29074C3.2094 7.22461 3.24981 7.1291 3.24981 7.03359C3.24981 6.93808 3.2094 6.84625 3.14328 6.77645C3.07716 6.71033 2.98165 6.66992 2.88614 6.66992Z" fill="#FFA200"/>
<path d="M6.42715 13.8191H11.581C11.7831 13.8191 11.9447 13.6575 11.9447 13.4555C11.9447 13.2534 11.7831 13.0918 11.581 13.0918H6.42715C6.22511 13.0918 6.06348 13.2534 6.06348 13.4555C6.06348 13.6575 6.22511 13.8191 6.42715 13.8191Z" fill="#FFA200"/>
<path d="M6.42715 15.8797H11.581C11.7831 15.8797 11.9447 15.7181 11.9447 15.516C11.9447 15.314 11.7831 15.1523 11.581 15.1523H6.42715C6.22511 15.1523 6.06348 15.314 6.06348 15.516C6.06348 15.7181 6.22511 15.8797 6.42715 15.8797Z" fill="#FFA200"/>
<path d="M6.42715 11.7586H11.581C11.7831 11.7586 11.9447 11.597 11.9447 11.3949C11.9447 11.1929 11.7831 11.0312 11.581 11.0312H6.42715C6.22511 11.0312 6.06348 11.1929 6.06348 11.3949C6.06348 11.597 6.22511 11.7586 6.42715 11.7586Z" fill="#FFA200"/>
</svg>
