<svg width="8" height="6" viewBox="0 0 8 6" fill="none" xmlns="http://www.w3.org/2000/svg">
<path d="M3.69231 0.818182V3.81818C3.69231 4.11364 3.6266 4.39631 3.49519 4.66619C3.36699 4.93324 3.19231 5.16477 2.97115 5.3608C2.75 5.55682 2.48718 5.71307 2.18269 5.82955C1.88141 5.94318 1.5641 6 1.23077 6H0.923077C0.839744 6 0.767628 5.97301 0.706731 5.91903C0.645833 5.86506 0.615385 5.80114 0.615385 5.72727V5.18182C0.615385 5.10795 0.645833 5.04403 0.706731 4.99006C0.767628 4.93608 0.839744 4.90909 0.923077 4.90909H1.23077C1.57051 4.90909 1.86058 4.80256 2.10096 4.58949C2.34135 4.37642 2.46154 4.11932 2.46154 3.81818V3.68182C2.46154 3.56818 2.41667 3.47159 2.32692 3.39205C2.23718 3.3125 2.12821 3.27273 2 3.27273H0.923077C0.666667 3.27273 0.448718 3.19318 0.269231 3.03409C0.0897436 2.875 0 2.68182 0 2.45455V0.818182C0 0.590909 0.0897436 0.397727 0.269231 0.238636C0.448718 0.0795454 0.666667 0 0.923077 0H2.76923C3.02564 0 3.24359 0.0795454 3.42308 0.238636C3.60256 0.397727 3.69231 0.590909 3.69231 0.818182ZM8 0.818182V3.81818C8 4.11364 7.93429 4.39631 7.80288 4.66619C7.67468 4.93324 7.5 5.16477 7.27885 5.3608C7.05769 5.55682 6.79487 5.71307 6.49038 5.82955C6.1891 5.94318 5.87179 6 5.53846 6H5.23077C5.14744 6 5.07532 5.97301 5.01442 5.91903C4.95353 5.86506 4.92308 5.80114 4.92308 5.72727V5.18182C4.92308 5.10795 4.95353 5.04403 5.01442 4.99006C5.07532 4.93608 5.14744 4.90909 5.23077 4.90909H5.53846C5.87821 4.90909 6.16827 4.80256 6.40865 4.58949C6.64904 4.37642 6.76923 4.11932 6.76923 3.81818V3.68182C6.76923 3.56818 6.72436 3.47159 6.63462 3.39205C6.54487 3.3125 6.4359 3.27273 6.30769 3.27273H5.23077C4.97436 3.27273 4.75641 3.19318 4.57692 3.03409C4.39744 2.875 4.30769 2.68182 4.30769 2.45455V0.818182C4.30769 0.590909 4.39744 0.397727 4.57692 0.238636C4.75641 0.0795454 4.97436 0 5.23077 0H7.07692C7.33333 0 7.55128 0.0795454 7.73077 0.238636C7.91026 0.397727 8 0.590909 8 0.818182Z" fill="white"/>
</svg>
