<svg width="35" height="23" viewBox="0 0 35 23" fill="none" xmlns="http://www.w3.org/2000/svg">
<g opacity="0.25">
<path d="M7.34002 0C3.29249 0 0 3.22098 0 7.18064C0 11.0005 3.06421 14.1335 6.91428 14.3499C6.98094 15.054 6.93093 16.9706 5.05361 19.6367C4.91169 19.8378 4.93745 20.109 5.11371 20.2815C5.88193 21.033 6.3567 21.5063 6.68899 21.8374C7.12389 22.2702 7.32239 22.4678 7.61278 22.7257C7.71126 22.8132 7.83548 22.8571 7.96028 22.8571C8.08146 22.8571 8.20217 22.8157 8.29966 22.7331C11.5709 19.9484 15.2049 14.1947 14.6791 7.14406C14.371 3.00458 11.2846 0 7.34002 0Z" fill="#FFA200"/>
<path d="M27.34 0C23.2925 0 20 3.22098 20 7.18064C20 11.0005 23.0642 14.1335 26.9143 14.3499C26.9809 15.054 26.9309 16.9706 25.0536 19.6367C24.9117 19.8378 24.9374 20.109 25.1137 20.2815C25.8819 21.033 26.3567 21.5063 26.689 21.8374C27.1239 22.2702 27.3224 22.4678 27.6128 22.7257C27.7113 22.8132 27.8355 22.8571 27.9603 22.8571C28.0815 22.8571 28.2022 22.8157 28.2997 22.7331C31.5709 19.9484 35.2049 14.1947 34.6791 7.14406C34.371 3.00458 31.2846 0 27.34 0Z" fill="#FFA200"/>
</g>
</svg>
