<svg width="13" height="13" viewBox="0 0 13 13" fill="none" xmlns="http://www.w3.org/2000/svg">
<g opacity="0.7" clip-path="url(#clip0)">
<path d="M8.68215 1.48762C6.69898 -0.495548 3.47123 -0.495548 1.48806 1.48762C-0.494677 3.47122 -0.494677 6.69854 1.48806 8.68214C3.25412 10.4478 6.00468 10.6369 7.98656 9.25821C8.02826 9.45554 8.1237 9.64384 8.27717 9.79732L11.1653 12.6854C11.5862 13.1055 12.2663 13.1055 12.685 12.6854C13.1055 12.265 13.1055 11.5849 12.685 11.1657L9.7969 8.27673C9.64428 8.12455 9.45555 8.02868 9.25822 7.98698C10.6378 6.00467 10.4486 3.25454 8.68215 1.48762ZM7.77031 7.7703C6.28971 9.25091 3.88007 9.25091 2.3999 7.7703C0.920151 6.2897 0.920151 3.88049 2.3999 2.39989C3.88007 0.919711 6.28971 0.919711 7.77031 2.39989C9.25092 3.88049 9.25092 6.2897 7.77031 7.7703Z" fill="white"/>
</g>
<defs>
<clipPath id="clip0">
<rect width="13" height="13" fill="white"/>
</clipPath>
</defs>
</svg>
