<svg width="10" height="10" viewBox="0 0 10 10" fill="none" xmlns="http://www.w3.org/2000/svg">
<path fill-rule="evenodd" clip-rule="evenodd" d="M9.96846 4.4448C9.95264 4.30424 9.78874 4.1986 9.64702 4.1986C9.18882 4.1986 8.78222 3.92956 8.61169 3.51347C8.43749 3.0873 8.54982 2.59029 8.89131 2.27704C8.9988 2.17877 9.01186 2.01428 8.9217 1.90002C8.68719 1.60221 8.42064 1.3332 8.1296 1.10006C8.01563 1.00861 7.84843 1.02133 7.7496 1.13076C7.45157 1.46082 6.91623 1.58349 6.50257 1.41089C6.07208 1.2298 5.80061 0.793586 5.82718 0.325333C5.83592 0.178253 5.72843 0.0503713 5.5818 0.0332932C5.20831 -0.00990443 4.83155 -0.0112439 4.45695 0.0303166C4.31199 0.0463157 4.2045 0.171183 4.20937 0.316403C4.22567 0.780042 3.95093 1.20863 3.52472 1.38321C3.116 1.55016 2.58442 1.42853 2.28699 1.1014C2.18869 0.993649 2.02419 0.980403 1.90967 1.06966C1.61 1.30478 1.33746 1.57401 1.10078 1.86936C1.00847 1.98418 1.02205 2.15061 1.13062 2.24939C1.47862 2.56454 1.59099 3.06587 1.4102 3.49695C1.23759 3.90794 0.810828 4.17282 0.32226 4.17282C0.16372 4.16772 0.0507957 4.27414 0.0334571 4.41828C-0.0105219 4.79392 -0.0110428 5.17667 0.0312991 5.55537C0.0470005 5.69653 0.215884 5.80123 0.359169 5.80123C0.794568 5.79011 1.21259 6.05967 1.38795 6.4864C1.56275 6.91257 1.45038 7.40929 1.10837 7.7228C1.0014 7.82106 0.987822 7.9853 1.07798 8.09956C1.3103 8.39547 1.57689 8.66474 1.86896 8.89981C1.98352 8.99212 2.15021 8.9791 2.24952 8.86967C2.54867 8.53879 3.08397 8.41634 3.496 8.58928C3.92756 8.76981 4.19903 9.20599 4.17246 9.6745C4.16379 9.82166 4.27181 9.94976 4.41784 9.96658C4.6089 9.98887 4.80112 9.99999 4.99385 9.99999C5.1768 9.99999 5.35978 9.98995 5.54273 9.96959C5.68773 9.9536 5.79514 9.82873 5.79027 9.68325C5.77349 9.21987 6.04871 8.79128 6.47436 8.617C6.88584 8.44893 7.41518 8.57194 7.71266 8.89873C7.81152 9.00626 7.97486 9.01925 8.09001 8.93028C8.38912 8.69573 8.66111 8.42672 8.8989 8.13055C8.99117 8.01599 8.97815 7.8493 8.86902 7.75056C8.52102 7.43541 8.4081 6.93401 8.58889 6.50322C8.75885 6.0977 9.16977 5.82542 9.61175 5.82542L9.67359 5.82702C9.81695 5.83866 9.94885 5.72823 9.96622 5.58189C10.0103 5.20592 10.0108 4.8235 9.96846 4.4448ZM5.0078 6.67835C4.08811 6.67835 3.34003 5.93027 3.34003 5.01058C3.34003 4.09093 4.08811 3.3428 5.0078 3.3428C5.92745 3.3428 6.67554 4.09093 6.67554 5.01058C6.67554 5.93027 5.92745 6.67835 5.0078 6.67835Z" fill="black"/>
</svg>
