<svg width="12" height="10" viewBox="0 0 12 10" fill="none" xmlns="http://www.w3.org/2000/svg">
<path d="M11.122 3.80588C11.1 3.73788 11.0418 3.68828 10.9717 3.67795L7.60699 3.18409L6.10227 0.104821C6.07102 0.040576 6.00629 0 5.93561 0C5.86493 0 5.80002 0.040576 5.76896 0.104821L4.26405 3.18428L0.89935 3.67814C0.829229 3.68847 0.771197 3.73788 0.749063 3.80607C0.727302 3.87388 0.745344 3.94865 0.796121 3.99843L3.23102 6.39542L2.6561 9.78013C2.64419 9.85058 2.67284 9.92177 2.72994 9.96385C2.78741 10.0063 2.86349 10.0118 2.9258 9.97813L5.93561 8.38026L8.94506 9.97813C8.97221 9.99259 9.00216 9.99973 9.03173 9.99973C9.07023 9.99973 9.10855 9.98771 9.1411 9.96385C9.19839 9.92177 9.22703 9.85058 9.21494 9.78013L8.64021 6.39561L11.0751 3.99843C11.1257 3.94827 11.1439 3.87369 11.122 3.80588Z" fill="#E60D36"/>
</svg>
