<svg width="11" height="10" viewBox="0 0 11 10" fill="none" xmlns="http://www.w3.org/2000/svg">
<path d="M10.6138 3.67795C10.6839 3.68828 10.7422 3.73788 10.7641 3.80588C10.7861 3.87369 10.7678 3.94827 10.7172 3.99843L8.28234 6.39561L8.85707 9.78013C8.86916 9.85058 8.84052 9.92177 8.78323 9.96385M10.6138 3.67795L7.24912 3.18409L5.7444 0.104821C5.71315 0.040576 5.64843 0 5.57775 0C5.50707 0 5.44215 0.040576 5.41109 0.104821L3.90619 3.18428L0.541485 3.67814M10.6138 3.67795L10.5866 3.86316L10.5866 3.86332L10.5863 3.86543L10.5418 3.82028L10.5847 3.86379L10.5848 3.86391L10.5862 3.86534L10.5865 3.86336L10.5865 3.86319L10.6138 3.67795ZM0.541485 3.67814C0.471364 3.68847 0.413333 3.73788 0.391199 3.80607M0.541485 3.67814L0.568619 3.863L0.391199 3.80607M0.541485 3.67814L0.568728 3.86304L0.570449 3.86359L0.570865 3.86372L0.629243 3.88246L0.56872 3.86369L0.391199 3.80607M0.391199 3.80607C0.369437 3.87388 0.387479 3.94865 0.438257 3.99843L2.87315 6.39542L2.29823 9.78013C2.28633 9.85058 2.31497 9.92177 2.37208 9.96385C2.42955 10.0063 2.50562 10.0118 2.56793 9.97813L5.57775 8.38026L8.58719 9.97813C8.61435 9.99259 8.64429 9.99973 8.67387 9.99973C8.71237 9.99973 8.75068 9.98771 8.78323 9.96385M8.78323 9.96385L8.67401 9.81515L8.67387 9.81496L8.67384 9.81493L8.67166 9.81196L8.67144 9.81166L8.63524 9.76237C8.61589 9.77658 8.60695 9.79977 8.6106 9.82199L8.70473 9.75748L8.70443 9.75732C8.69456 9.75213 8.68411 9.74973 8.67387 9.74973C8.66013 9.74973 8.6465 9.75411 8.63544 9.76221L8.67166 9.81162L8.67188 9.81192L8.67387 9.81464L8.67394 9.81474L8.67411 9.81496L8.78323 9.96385ZM8.03587 6.43746L8.58924 9.69616L5.69498 8.15946L5.57775 8.09721L5.46052 8.15945L2.5661 9.69606L3.11962 6.43728L3.14146 6.30873L3.04854 6.21726L0.702005 3.90726L3.94249 3.43163L4.07292 3.41248L4.1308 3.29404L5.57775 0.333193L7.02451 3.29385L7.08239 3.4123L7.21282 3.43144L10.4536 3.90712L8.10695 6.21745L8.01404 6.30892L8.03587 6.43746Z" stroke="#E60D36" stroke-width="0.5"/>
</svg>
