<svg width="21" height="21" viewBox="0 0 21 21" fill="none" xmlns="http://www.w3.org/2000/svg">
<path d="M11.4912 7.92966H9.11227V5.55078C9.11227 5.33192 8.93465 5.1543 8.71579 5.1543C8.49693 5.1543 8.31931 5.33192 8.31931 5.55078V7.92966H5.94043C5.72157 7.92966 5.54395 8.10729 5.54395 8.32614C5.54395 8.545 5.72157 8.72262 5.94043 8.72262H8.31931V11.1015C8.31931 11.3204 8.49693 11.498 8.71579 11.498C8.93465 11.498 9.11227 11.3204 9.11227 11.1015V8.72262H11.4912C11.71 8.72262 11.8876 8.545 11.8876 8.32614C11.8876 8.10729 11.71 7.92966 11.4912 7.92966Z" fill="black"/>
<path d="M20.4995 20.3288L14.6082 14.2019C16.1109 12.6949 17.0418 10.6174 17.0418 8.3261C17.0418 3.73485 13.307 0 8.71574 0C4.1245 0 0.389648 3.73485 0.389648 8.3261C0.389648 12.9173 4.1245 16.6522 8.71574 16.6522C10.7311 16.6522 12.5806 15.9318 14.0222 14.7364L19.9278 20.8783C20.0055 20.9596 20.1094 21 20.2137 21C20.3128 21 20.4115 20.9631 20.4884 20.8894C20.6462 20.7375 20.651 20.4866 20.4995 20.3288ZM1.18261 8.3261C1.18261 4.17217 4.56182 0.792962 8.71574 0.792962C12.8697 0.792962 16.2489 4.17217 16.2489 8.3261C16.2489 12.48 12.8697 15.8592 8.71574 15.8592C4.56182 15.8592 1.18261 12.48 1.18261 8.3261Z" fill="black"/>
</svg>
